<svg width="800" height="800" viewBox="0 0 800 800" fill="none" xmlns="http://www.w3.org/2000/svg">
<path d="M560.762 429.344H156.637C155.496 429.343 154.401 428.888 153.594 428.081C152.786 427.274 152.332 426.179 152.331 425.038V64.6375C152.332 63.4959 152.786 62.4013 153.594 61.594C154.401 60.7867 155.496 60.3326 156.637 60.3313H560.762C561.904 60.3326 562.999 60.7867 563.806 61.594C564.613 62.4013 565.067 63.4959 565.069 64.6375V425.038C565.067 426.179 564.613 427.274 563.806 428.081C562.999 428.888 561.904 429.342 560.762 429.344Z" fill="white"/>
<path d="M290.258 76.1855V169.323H290.069C277.718 169.323 265.873 164.417 257.14 155.683C248.406 146.95 243.5 135.105 243.5 122.754C243.5 110.403 248.406 98.5585 257.14 89.8252C265.873 81.0919 277.718 76.1855 290.069 76.1855H290.258Z" fill="#16F2F7"/>
<path d="M279.72 97.1768V148.332H279.616C272.833 148.332 266.327 145.637 261.53 140.84C256.733 136.044 254.039 129.538 254.039 122.754C254.039 115.971 256.733 109.465 261.53 104.668C266.327 99.8715 272.833 97.1768 279.616 97.1768H279.72Z" fill="white"/>
<path d="M359.06 246.162H218.347V122.091H243.5V123.416H219.672V244.837H359.06V246.162Z" fill="#3F3D56"/>
<path d="M378.032 277.408C385.018 277.408 390.68 271.745 390.68 264.76C390.68 257.774 385.018 252.112 378.032 252.112C371.047 252.112 365.384 257.774 365.384 264.76C365.384 271.745 371.047 277.408 378.032 277.408Z" fill="#16F2F7"/>
<path d="M495.891 399.867C502.876 399.867 508.539 394.204 508.539 387.218C508.539 380.233 502.876 374.57 495.891 374.57C488.906 374.57 483.243 380.233 483.243 387.218C483.243 394.204 488.906 399.867 495.891 399.867Z" fill="#3F3D56"/>
<path d="M218.779 257.286C225.764 257.286 231.427 251.623 231.427 244.638C231.427 237.652 225.764 231.989 218.779 231.989C211.793 231.989 206.13 237.652 206.13 244.638C206.13 251.623 211.793 257.286 218.779 257.286Z" fill="#16F2F7"/>
<path d="M359.06 245.787H390.68V214.167H327.438V277.408H359.06V245.787Z" fill="#3F3D56"/>
<path d="M565.457 86.5339H426.9V103.782H565.457V86.5339Z" fill="#E4E4E4"/>
<path d="M565.457 123.904H426.9V141.151H565.457V123.904Z" fill="#E4E4E4"/>
<path d="M524.062 183.121C524.062 183.38 524.056 183.633 524.051 183.886H467.731C467.725 183.633 467.72 183.38 467.72 183.121C467.72 175.649 470.688 168.484 475.971 163.201C481.254 157.918 488.419 154.95 495.891 154.95C503.362 154.95 510.528 157.918 515.811 163.201C521.094 168.484 524.062 175.649 524.062 183.121Z" fill="#E4E4E4"/>
<path d="M524.062 383.579C524.062 383.838 524.056 384.091 524.051 384.344H467.731C467.725 384.091 467.72 383.838 467.72 383.579C467.72 376.108 470.688 368.942 475.971 363.659C481.254 358.376 488.419 355.408 495.891 355.408C503.362 355.408 510.528 358.376 515.811 363.659C521.094 368.942 524.062 376.108 524.062 383.579Z" fill="#E4E4E4"/>
<path d="M496.554 211.292H495.229V355.335H496.554V211.292Z" fill="#3F3D56"/>
<path d="M333.188 369.971C333.188 381.374 328.671 392.312 320.626 400.393C312.58 408.474 301.662 413.039 290.259 413.09V326.852C301.662 326.902 312.58 331.467 320.626 339.548C328.671 347.629 333.188 358.568 333.188 369.971Z" fill="#16F2F7"/>
<path d="M562.007 431H156.112C155.022 430.999 153.977 430.565 153.206 429.794C152.435 429.023 152.001 427.978 152 426.888V64.1121C152.001 63.0219 152.435 61.9767 153.206 61.2058C153.977 60.4349 155.022 60.0013 156.112 60H562.007C563.097 60.0013 564.143 60.4349 564.913 61.2058C565.684 61.9767 566.118 63.0219 566.119 64.1121V426.888C566.118 427.978 565.684 429.023 564.913 429.794C564.143 430.565 563.097 430.999 562.007 431V431ZM156.112 61.325C155.373 61.3258 154.665 61.6198 154.142 62.1423C153.62 62.6648 153.326 63.3732 153.325 64.1121V426.888C153.326 427.627 153.62 428.335 154.142 428.858C154.665 429.38 155.373 429.674 156.112 429.675H562.007C562.746 429.674 563.454 429.38 563.977 428.858C564.499 428.335 564.793 427.627 564.794 426.888V64.1121C564.793 63.3732 564.499 62.6648 563.977 62.1423C563.454 61.6198 562.746 61.3259 562.007 61.325H156.112Z" fill="#3F3D56"/>
<path d="M289.596 169.988V75.5203L290.261 75.5228C302.755 75.5728 314.72 80.571 323.537 89.4231C332.354 98.2753 337.304 110.26 337.304 122.754C337.304 135.248 332.354 147.233 323.537 156.085C314.72 164.937 302.755 169.935 290.261 169.985L289.596 169.988ZM290.921 76.8553V168.653C302.947 168.429 314.404 163.496 322.829 154.912C331.255 146.329 335.975 134.782 335.975 122.754C335.975 110.727 331.255 99.1795 322.829 90.5961C314.404 82.0127 302.947 77.0787 290.921 76.8553Z" fill="#3F3D56"/>
<path d="M290.921 413.752H290.069C278.458 413.752 267.322 409.14 259.111 400.929C250.9 392.718 246.288 381.582 246.288 369.971C246.288 358.359 250.9 347.223 259.111 339.013C267.322 330.802 278.458 326.189 290.069 326.189H290.922L290.921 413.752ZM289.596 327.517C278.419 327.641 267.741 332.169 259.881 340.117C252.021 348.065 247.612 358.792 247.612 369.971C247.612 381.149 252.021 391.876 259.881 399.825C267.741 407.773 278.419 412.3 289.596 412.425V327.517Z" fill="#3F3D56"/>
<path d="M495.891 211.955C488.367 211.995 481.129 209.077 475.738 203.829C470.346 198.582 467.233 191.425 467.069 183.903L467.051 183.223H524.731L524.713 183.903C524.549 191.425 521.436 198.582 516.044 203.829C510.653 209.077 503.414 211.995 495.891 211.955V211.955ZM468.42 184.548C468.785 191.587 471.839 198.218 476.951 203.071C482.063 207.924 488.842 210.63 495.891 210.63C502.94 210.63 509.719 207.924 514.831 203.071C519.943 198.218 522.996 191.587 523.362 184.548H468.42Z" fill="#3F3D56"/>
<path d="M565.457 306.45H152.663V307.775H565.457V306.45Z" fill="#3F3D56"/>
<path d="M565.457 183.223H152.663V184.548H565.457V183.223Z" fill="#3F3D56"/>
<path d="M428.521 60.6626H427.196V430.338H428.521V60.6626Z" fill="#3F3D56"/>
<path d="M290.921 60.6626H289.596V430.338H290.921V60.6626Z" fill="#3F3D56"/>
<path d="M248.675 381.469C255.66 381.469 261.323 375.806 261.323 368.821C261.323 361.835 255.66 356.172 248.675 356.172C241.689 356.172 236.026 361.835 236.026 368.821C236.026 375.806 241.689 381.469 248.675 381.469Z" fill="#16F2F7"/>
<path d="M647 739H266C265.735 739 265.48 738.895 265.293 738.707C265.105 738.52 265 738.265 265 738C265 737.735 265.105 737.48 265.293 737.293C265.48 737.105 265.735 737 266 737H647C647.265 737 647.52 737.105 647.707 737.293C647.895 737.48 648 737.735 648 738C648 738.265 647.895 738.52 647.707 738.707C647.52 738.895 647.265 739 647 739Z" fill="#CACACA"/>
<path d="M518.098 400.135L545.872 353.408L566.401 363.103C566.401 363.103 531.028 407.284 529.901 408.555C530.383 410.702 530.203 412.945 529.383 414.988C528.563 417.03 527.142 418.776 525.308 419.993C523.474 421.211 521.314 421.843 519.114 421.806C516.913 421.769 514.775 421.065 512.984 419.786C511.192 418.508 509.83 416.716 509.079 414.647C508.328 412.578 508.223 410.33 508.777 408.2C509.332 406.07 510.519 404.159 512.184 402.718C513.848 401.278 515.911 400.377 518.098 400.135V400.135Z" fill="#FFB6B6"/>
<path d="M529.651 291.591L574.65 315.068C577.462 317.094 579.82 319.684 581.574 322.674C583.328 325.663 584.439 328.985 584.836 332.428C585.233 335.872 584.907 339.36 583.879 342.67C582.851 345.979 581.144 349.038 578.866 351.651L547.845 387.236L534.331 368.924L544.747 347.144L524.578 341.826L529.651 291.591Z" fill="#16F2F7"/>
<path d="M401.418 236.81L396.35 290.931L373.647 290.969C373.647 290.969 386.672 235.892 387.146 234.261C385.789 232.527 384.991 230.423 384.857 228.226C384.722 226.029 385.258 223.844 386.393 221.958C387.528 220.072 389.209 218.575 391.213 217.665C393.217 216.756 395.45 216.476 397.617 216.863C399.784 217.25 401.782 218.285 403.347 219.833C404.912 221.38 405.971 223.366 406.383 225.528C406.795 227.69 406.541 229.926 405.654 231.941C404.768 233.955 403.291 235.653 401.418 236.81V236.81Z" fill="#FFB6B6"/>
<path d="M446.609 347.487L394.356 337.905C372.352 335.259 363.322 320.781 367.292 306.659L380.069 261.213L400.128 271.966L400.051 296.109L428.129 292.27L446.609 347.487Z" fill="#16F2F7"/>
<path d="M425.22 721.51H410.852L404.017 666.09H425.223L425.22 721.51Z" fill="#FFB6B6"/>
<path d="M425.727 736.499L381.543 736.497V735.938C381.544 731.377 383.356 727.003 386.581 723.778C389.806 720.553 394.18 718.741 398.741 718.741H398.742L406.813 712.618L421.871 718.742L425.727 718.742L425.727 736.499Z" fill="#2F2E41"/>
<path d="M526.883 721.51H541.251L548.086 666.09H526.88L526.883 721.51Z" fill="#FFB6B6"/>
<path d="M526.377 736.499L570.56 736.497V735.938C570.56 731.377 568.748 727.003 565.523 723.778C562.298 720.553 557.924 718.741 553.363 718.741H553.362L545.291 712.618L530.233 718.742L526.376 718.742L526.377 736.499Z" fill="#2F2E41"/>
<path d="M403.386 625.365C403.598 622.202 405.285 604.714 405.285 604.714L409.326 567.626L416.449 469.313L422.798 443.471L454.224 455.714L479.724 443.489L510.034 453.178L533.634 462.028C533.634 462.028 533.675 465.817 533.857 470.394C534.099 476.385 534.523 483.73 535.534 485.639C537.221 489.014 536.797 507.129 536.797 507.129C536.797 507.129 538.474 543.985 540.585 548.026C542.697 552.067 543.121 560.483 542.485 562.17C541.848 563.857 544.596 608.119 544.596 608.119C544.596 608.119 551.649 686.445 547.224 698.256C542.799 710.066 526.077 702.33 526.077 702.33C526.077 702.33 526.885 699.178 522.036 697.693C517.187 696.207 502.416 585.144 502.416 585.144C502.416 585.144 499.668 562.372 497.142 555.845C494.616 549.319 492.293 530.982 492.293 530.982C492.293 530.982 476.693 500.632 476.491 493.883C476.491 493.883 474.45 487.569 472.521 494.52C470.591 501.471 464.903 518.121 464.903 518.121L459.357 538.569L452.83 569.121L448.607 594.843C448.607 594.843 442.282 628.981 441.272 630.457C440.262 631.932 441.272 663.12 441.272 663.12C441.272 663.12 436.382 689.681 429.472 694.318C422.561 698.955 404.252 694.392 404.252 694.392C404.252 694.392 403.173 628.527 403.386 625.365Z" fill="#2F2E41"/>
<path d="M426.878 360.32L422.863 412.341L416.829 418.585C416.285 419.148 415.861 419.815 415.581 420.546C415.3 421.277 415.171 422.057 415.199 422.84C415.228 423.622 415.414 424.391 415.746 425.099C416.079 425.808 416.551 426.442 417.134 426.964V426.964L413.81 432.664L412.633 450.624C412.298 452.022 412.275 453.476 412.566 454.883C412.858 456.291 413.456 457.616 414.319 458.765C415.182 459.915 416.288 460.859 417.558 461.532C418.828 462.204 420.231 462.588 421.667 462.655L525.703 467.543C527.131 467.61 528.555 467.363 529.877 466.819C531.199 466.275 532.385 465.447 533.351 464.394C534.318 463.342 535.041 462.09 535.471 460.727C535.901 459.364 536.026 457.923 535.838 456.506L526.991 389.909V384.929L523.031 375.312L525.067 343.095L529.801 291.961L502.279 284.852L487.357 274.585L461.433 274.998L445.702 287.917L424.728 291.202L408.866 294.355L406.846 298.746L410.887 297.868L425.535 354.998L426.878 360.32Z" fill="#16F2F7"/>
<path d="M473.815 267.614C490.681 267.614 504.354 253.941 504.354 237.075C504.354 220.208 490.681 206.535 473.815 206.535C456.949 206.535 443.276 220.208 443.276 237.075C443.276 253.941 456.949 267.614 473.815 267.614Z" fill="#FFB6B6"/>
<path d="M466.452 265.644L488.517 264.519C491.344 264.374 494.429 264.125 496.486 262.179C497.592 260.978 498.443 259.564 498.987 258.024C501.027 253.286 503.067 248.548 505.055 243.787C507.804 237.203 510.504 230.25 509.803 223.149C509.638 219.906 508.278 216.84 505.985 214.541C504.815 213.433 503.311 212.744 501.707 212.581C500.104 212.419 498.492 212.792 497.124 213.643C496.784 211.397 495.938 209.257 494.649 207.386C493.361 205.516 491.664 203.962 489.686 202.844C485.694 200.638 481.134 199.671 476.59 200.067C469.995 200.492 463.7 202.973 458.588 207.162C457.151 208.488 455.616 209.705 453.996 210.801C453.181 211.346 452.264 211.719 451.3 211.897C450.337 212.075 449.347 212.055 448.391 211.838C447.445 211.585 446.622 210.998 446.074 210.185C445.527 209.373 445.292 208.389 445.414 207.417C443.86 208.579 442.794 210.278 442.425 212.183C442.056 214.088 442.41 216.062 443.417 217.72C442.272 218.2 441.022 218.375 439.789 218.229C438.555 218.083 437.381 217.621 436.379 216.887C435.306 217.42 434.355 218.171 433.589 219.092C432.823 220.013 432.257 221.084 431.929 222.236C431.6 223.388 431.516 224.596 431.681 225.783C431.847 226.97 432.258 228.109 432.889 229.127C433.52 230.146 434.357 231.021 435.346 231.698C436.335 232.374 437.454 232.836 438.632 233.055C439.81 233.274 441.021 233.245 442.187 232.968C443.353 232.692 444.448 232.176 445.403 231.452C446.742 233.328 446.243 235.877 446.069 238.175C445.894 240.473 446.511 243.329 448.726 243.964C451.721 244.823 454.147 240.79 457.262 240.833C458.031 240.895 458.772 241.147 459.42 241.564C460.068 241.982 460.603 242.553 460.978 243.227C461.712 244.581 462.215 246.049 462.465 247.569L466.452 265.519" fill="#2F2E41"/>
</svg>
