<svg width="308" height="307" viewBox="0 0 308 307" fill="none" xmlns="http://www.w3.org/2000/svg">
<path d="M153.501 306.963C238.277 306.963 307.001 238.247 307.001 153.482C307.001 68.716 238.277 0 153.501 0C68.7246 0 0 68.716 0 153.482C0 238.247 68.7246 306.963 153.501 306.963Z" fill="#F0F0F0"/>
<path d="M188.223 217.714L186.55 199.145L118.378 191.802L109.746 215.561L85.272 224.731C84.3848 225.059 83.5396 225.491 82.7543 226.019C77.8671 226.462 73.2222 228.349 69.4111 231.439C69.9687 231.901 70.5264 232.343 71.0839 232.785C71.1994 232.9 71.3336 232.996 71.4491 233.093C73.0064 234.304 74.6023 235.495 76.217 236.63C76.6403 236.937 77.0636 237.245 77.5058 237.533C81.0503 240.044 84.7205 242.373 88.5021 244.511C92.1162 246.568 95.8266 248.464 99.6334 250.201C106.626 253.396 113.873 256.001 121.3 257.986C122.338 258.274 123.377 258.544 124.415 258.793C126.222 259.236 128.048 259.659 129.875 260.004C133.566 260.773 137.302 261.376 141.083 261.811C146.639 262.485 152.231 262.819 157.828 262.811C161.654 262.811 165.442 262.664 169.19 262.369C175.776 261.838 182.316 260.843 188.761 259.389C188.992 259.332 189.223 259.293 189.454 259.216C199.325 256.953 208.918 253.614 218.061 249.259C219.464 248.586 220.867 247.894 222.251 247.183C225.655 245.434 228.962 243.55 232.171 241.531C233.325 240.82 234.459 240.09 235.594 239.321C218.156 227.595 192.837 219.195 188.223 217.714Z" fill="#16F2F7"/>
<path d="M149.8 180.042C176.913 180.042 198.892 158.066 198.892 130.957C198.892 103.848 176.913 81.8721 149.8 81.8721C122.688 81.8721 100.709 103.848 100.709 130.957C100.709 158.066 122.688 180.042 149.8 180.042Z" fill="#A0616A"/>
<path d="M116.85 107.043C121.932 113.057 130.531 114.753 138.464 115.442C154.577 116.856 178.004 114.564 193.749 110.93C194.88 121.819 191.811 133.562 198.224 142.522C201.231 131.676 202.98 120.52 203.436 109.274C203.914 104.449 203.284 99.5785 201.594 95.034C200.69 92.7566 199.165 90.7786 197.192 89.3246C195.22 87.8707 192.879 86.9991 190.436 86.8092C190.976 86.2535 191.346 85.5564 191.506 84.7985C191.665 84.0406 191.605 83.2531 191.335 82.5275C190.743 79.9655 189.437 77.6236 187.569 75.7728C185.701 73.9221 183.346 72.6382 180.779 72.0697L163.106 67.811C163.106 67.811 146.523 60.5385 134.135 61.4519C128.384 61.8751 122.371 62.6843 117.713 66.0165C113.054 69.3487 110.361 75.9695 113.254 80.8604C109.633 81.4551 106.223 82.9644 103.348 85.2452C100.474 87.526 98.2289 90.5028 96.8267 93.8938C95.0533 99.284 94.6251 105.026 95.5796 110.619C96.6425 119.594 98.7281 128.417 101.796 136.917L116.85 107.043Z" fill="#2F2E41"/>
</svg>
