<svg width="308" height="307" viewBox="0 0 308 307" fill="none" xmlns="http://www.w3.org/2000/svg">
<path d="M153.501 306.963C238.277 306.963 307.001 238.247 307.001 153.482C307.001 68.716 238.277 0 153.501 0C68.7246 0 0 68.716 0 153.482C0 238.247 68.7246 306.963 153.501 306.963Z" fill="#F0F0F0"/>
<path d="M150.988 175.498C174.425 175.498 193.424 156.5 193.424 133.066C193.424 109.632 174.425 90.6353 150.988 90.6353C127.551 90.6353 108.552 109.632 108.552 133.066C108.552 156.5 127.551 175.498 150.988 175.498Z" fill="#FFB8B8"/>
<path d="M110.841 146.342C110.841 146.342 114.446 140.01 113.608 118.86C112.77 97.7101 144.98 109.672 171.896 107.655C198.811 105.637 193.113 142.965 193.113 142.965C193.113 142.965 195.055 140.747 199.213 122.731C203.37 104.715 193.93 86.7617 193.93 86.7617C191.15 67.8305 176.168 73.8979 176.168 73.8979C183.383 76.7065 181.998 82.7117 181.998 82.7117C175.89 72.0049 160.908 78.0724 160.908 78.0724C140.925 65.5346 120.674 82.0452 120.674 82.0452C96.534 87.5231 110.691 106.718 110.691 106.718C86.4145 118.985 110.841 146.342 110.841 146.342Z" fill="#2F2E41"/>
<path d="M221.797 232.65C209.701 226.277 197.075 220.964 184.061 216.771L182.4 198.417L115.1 191.167L106.547 214.627L82.3952 223.69C81.5306 224.017 80.7075 224.446 79.943 224.966H79.9169C75.9627 225.301 72.1546 226.617 68.8376 228.795C66.5876 230.231 64.5872 232.025 62.9152 234.105C66.1828 236.581 69.5768 238.879 73.0749 241.074L73.2292 241.151C74.2249 241.763 75.2468 242.376 76.2665 242.963C78.1058 244.061 79.995 245.108 81.8843 246.103L83.0844 246.716C85.8412 248.146 88.6502 249.498 91.5352 250.749C92.1222 251.005 92.7613 251.26 93.3484 251.515C93.3985 251.541 93.4245 251.541 93.4745 251.566C94.8289 252.128 96.1812 252.664 97.5596 253.174C102.089 254.904 106.708 256.387 111.398 257.616C123.366 260.806 135.7 262.419 148.086 262.416C152.606 262.416 157.074 262.211 161.491 261.777C171.583 260.846 181.546 258.835 191.209 255.778C191.233 255.778 191.261 255.753 191.285 255.753C197.39 253.809 203.353 251.446 209.133 248.682C209.157 248.656 209.209 248.656 209.235 248.631C210.537 248.018 211.787 247.354 213.064 246.716L213.677 246.41C214.698 245.874 215.72 245.338 216.742 244.776C219.294 243.372 221.797 241.891 224.271 240.308C224.96 239.9 225.625 239.466 226.315 239.007C227.284 238.368 228.254 237.705 229.2 237.015C226.826 235.484 224.349 234.028 221.797 232.65Z" fill="#16F2F7"/>
</svg>
