<svg width="308" height="307" viewBox="0 0 308 307" fill="none" xmlns="http://www.w3.org/2000/svg">
<path d="M153.501 306.963C238.277 306.963 307.001 238.247 307.001 153.482C307.001 68.7161 238.277 0 153.501 0C68.7246 0 0 68.7161 0 153.482C0 238.247 68.7246 306.963 153.501 306.963Z" fill="#F0F0F0"/>
<path d="M228.105 220.002C216.009 213.629 203.383 208.316 190.369 204.124L188.708 185.769L121.409 178.519L112.856 201.979L88.7035 211.042C87.8388 211.37 87.0156 211.798 86.2511 212.318H86.2251C82.2708 212.653 78.4627 213.969 75.1457 216.147C72.8958 217.583 70.8954 219.377 69.2234 221.457C72.4911 223.934 75.8851 226.231 79.3832 228.427L79.5374 228.503C80.5332 229.116 81.5549 229.728 82.5746 230.316C84.4139 231.413 86.3032 232.46 88.1925 233.455L89.3927 234.068C92.1495 235.498 94.9583 236.851 97.8433 238.101C98.4303 238.357 99.0695 238.612 99.6565 238.867C99.7066 238.893 99.7327 238.893 99.7827 238.919C101.137 239.48 102.489 240.016 103.868 240.527C108.397 242.256 113.016 243.739 117.706 244.969C129.674 248.158 142.008 249.771 154.394 249.768C158.914 249.768 163.382 249.564 167.8 249.13C177.892 248.198 187.855 246.187 197.518 243.131C197.542 243.131 197.57 243.105 197.594 243.105C203.698 241.161 209.661 238.798 215.441 236.034C215.465 236.008 215.517 236.008 215.543 235.983C216.845 235.37 218.095 234.706 219.372 234.068L219.985 233.762C221.007 233.226 222.028 232.69 223.05 232.128C225.603 230.724 228.105 229.243 230.579 227.661C231.268 227.252 231.934 226.818 232.623 226.359C233.593 225.72 234.562 225.057 235.508 224.367C233.134 222.836 230.657 221.381 228.105 220.002Z" fill="#16F2F7"/>
<path d="M152.418 166.915C179.187 166.915 200.888 145.217 200.888 118.451C200.888 91.6845 179.187 69.9863 152.418 69.9863C125.648 69.9863 103.947 91.6845 103.947 118.451C103.947 145.217 125.648 166.915 152.418 166.915Z" fill="#A0616A"/>
<path d="M119.875 94.8445C124.892 100.782 133.384 102.457 141.217 103.144C157.125 104.539 180.257 102.276 195.803 98.6873C196.912 109.44 193.887 121.034 200.221 129.879C203.19 119.171 204.917 108.156 205.367 97.0527C205.84 92.2888 205.218 87.4799 203.548 82.9931C202.655 80.7446 201.15 78.7915 199.202 77.3559C197.255 75.9203 194.944 75.0598 192.531 74.8721C196.142 72.133 200.372 70.3248 204.848 69.6072L189.457 61.8739L193.41 57.8168L165.546 56.112L173.616 50.9857C161.47 49.3169 149.182 48.9291 136.954 49.8286C131.276 50.2468 125.34 51.0459 120.739 54.3353C116.139 57.6247 113.481 64.1625 116.337 68.992C112.761 69.5791 109.394 71.0691 106.556 73.3211C103.717 75.573 101.501 78.5124 100.116 81.8605C98.3655 87.1823 97.9427 92.8515 98.885 98.374C99.9348 107.235 101.994 115.946 105.023 124.339L119.875 94.8445Z" fill="#2F2E41"/>
</svg>
