<svg width="1083" height="584" viewBox="0 0 1083 584" fill="none" xmlns="http://www.w3.org/2000/svg">
<g clip-path="url(#clip0_2_2)">
<path d="M873.572 583.577H217.447C210.74 583.57 205.305 578.971 205.297 573.296V98.5281C205.305 92.8521 210.74 88.2531 217.447 88.2471H873.573C880.28 88.2541 885.716 92.8531 885.723 98.5291V573.299C885.715 578.977 880.28 583.577 873.572 583.577ZM217.447 92.3591C213.423 92.3591 210.161 95.1221 210.157 98.5281V573.299C210.157 576.704 213.423 579.464 217.448 579.468H873.574C877.598 579.468 880.86 576.704 880.864 573.299V98.5281C880.864 95.1231 877.598 92.3631 873.574 92.3591H217.447Z" fill="#E6E6E6"/>
<path d="M487.306 281.09L662.306 246.098L666.106 342.109L652.406 450.871L662.306 580.579H473.573L478.485 430.087C478.485 430.087 436.373 370.67 461.182 310.779L487.306 281.09Z" fill="#16F2F7"/>
<path d="M877.524 53.3309C878.401 57.3608 878.384 61.5339 877.474 65.5564C876.563 69.5789 874.782 73.353 872.256 76.6127C869.729 79.8725 866.519 82.5386 862.85 84.4235C859.182 86.3083 855.145 87.3659 851.024 87.5219L683.21 282.122L644.194 234.772L821.418 58.3799C821.615 51.4382 824.351 44.8099 829.109 39.7511C833.867 34.6924 840.315 31.5548 847.231 30.9329C854.148 30.311 861.052 32.248 866.636 36.3769C872.22 40.5058 876.095 46.5396 877.527 53.3349L877.524 53.3309Z" fill="#FEB8B8"/>
<path d="M719.745 260.883C719.785 262.701 719.431 264.505 718.71 266.174C717.988 267.842 716.915 269.335 715.564 270.551L668.377 313.029C665.448 316.595 661.846 319.548 657.776 321.722C653.707 323.895 649.248 325.245 644.656 325.696C640.065 326.146 635.429 325.687 631.014 324.346C626.6 323.005 622.492 320.808 618.927 317.879C615.362 314.951 612.408 311.349 610.235 307.279C608.061 303.209 606.711 298.75 606.261 294.159C605.81 289.567 606.269 284.931 607.61 280.516C608.951 276.102 611.148 271.995 614.077 268.429L647.018 213.919C647.958 212.363 649.223 211.028 650.725 210.005C652.228 208.982 653.933 208.294 655.726 207.99C657.518 207.685 659.355 207.77 661.111 208.24C662.867 208.709 664.502 209.551 665.903 210.709L715.156 251.409C716.558 252.567 717.694 254.013 718.486 255.65C719.278 257.286 719.707 259.074 719.745 260.892L719.745 260.883Z" fill="#16F2F7"/>
<path d="M212.908 510.642C212.646 506.526 213.289 502.402 214.793 498.562C216.296 494.721 218.624 491.257 221.611 488.413C224.599 485.569 228.173 483.415 232.083 482.102C235.993 480.789 240.144 480.349 244.242 480.814L439.355 313.603L470.824 366.271L269.139 514.071C267.903 520.905 264.203 527.048 258.74 531.336C253.277 535.623 246.431 537.758 239.499 537.335C232.567 536.912 226.031 533.96 221.13 529.04C216.229 524.12 213.304 517.572 212.908 510.639V510.642Z" fill="#FEB8B8"/>
<path d="M568.63 198.052C607.976 198.052 639.872 166.156 639.872 126.81C639.872 87.464 607.976 55.5679 568.63 55.5679C529.284 55.5679 497.388 87.464 497.388 126.81C497.388 166.156 529.284 198.052 568.63 198.052Z" fill="#3F3D56"/>
<path d="M400.043 329.114C400.277 327.311 400.896 325.58 401.86 324.038C402.824 322.497 404.109 321.182 405.627 320.182L458.654 285.265C462.066 282.156 466.056 279.75 470.398 278.184C474.74 276.618 479.348 275.924 483.958 276.139C488.569 276.355 493.092 277.477 497.268 279.441C501.445 281.405 505.194 284.173 508.3 287.587C511.407 291.001 513.81 294.993 515.373 299.336C516.936 303.679 517.628 308.287 517.409 312.897C517.191 317.508 516.066 322.03 514.099 326.205C512.132 330.381 509.361 334.128 505.945 337.232C505.846 337.322 505.746 337.413 505.645 337.502L464.894 386.463C463.731 387.86 462.281 388.99 460.642 389.776C459.003 390.562 457.213 390.986 455.396 391.018C453.578 391.05 451.775 390.691 450.109 389.963C448.443 389.236 446.954 388.158 445.742 386.803L403.154 339.178C401.941 337.823 401.035 336.223 400.498 334.486C399.96 332.749 399.804 330.917 400.039 329.114H400.043Z" fill="#16F2F7"/>
<path d="M561.89 236.29C597.513 236.29 626.392 207.411 626.392 171.788C626.392 136.164 597.513 107.286 561.89 107.286C526.267 107.286 497.388 136.164 497.388 171.788C497.388 207.411 526.267 236.29 561.89 236.29Z" fill="#FEB8B8"/>
<path d="M605.817 0C600.433 7.68903 592.452 13.1746 583.345 15.447C567.632 19.655 583.217 43.266 583.217 43.266C583.217 43.266 577.55 34.68 585.724 25.587C593.898 16.494 607.053 10.278 605.817 0Z" fill="#3F3D56"/>
<path d="M580.433 68.7839C591.398 68.7839 600.287 59.895 600.287 48.9299C600.287 37.9649 591.398 29.0759 580.433 29.0759C569.468 29.0759 560.579 37.9649 560.579 48.9299C560.579 59.895 569.468 68.7839 580.433 68.7839Z" fill="#3F3D56"/>
<path d="M610.101 65.5719C593.915 59.4499 566.965 56.3459 553.101 58.4719L555.001 44.5869C568.331 51.4759 595.158 54.7139 612.001 51.6869L610.101 65.5719Z" fill="#16F2F7"/>
<path d="M572.705 68.1689C572.705 68.1689 552.42 101.909 505.251 114.54C458.082 127.171 504.866 198.053 504.866 198.053C504.866 198.053 487.854 172.278 512.392 144.981C536.93 117.684 576.417 99.0219 572.705 68.1689Z" fill="#3F3D56"/>
<path d="M580.392 68.49C580.392 68.49 599.879 114.834 621.273 119.216C642.667 123.598 641.044 196.826 607.588 207.807C607.588 207.807 631.988 164.877 611.131 136.086C590.274 107.295 577.106 84.535 580.392 68.49Z" fill="#3F3D56"/>
<path d="M1082.1 580.58H0V582.58H1082.1V580.58Z" fill="#E6E6E6"/>
<path d="M188.878 533.047C188.878 530.54 188.385 528.058 187.426 525.742C186.466 523.427 185.061 521.323 183.288 519.55C181.516 517.778 179.412 516.372 177.096 515.412C174.781 514.453 172.299 513.959 169.792 513.959H169.791V499.276H96.375V571.937C96.375 574.473 97.3826 576.906 99.1762 578.7C100.97 580.493 103.402 581.501 105.939 581.501H160.227C162.764 581.501 165.196 580.493 166.99 578.7C168.783 576.906 169.791 574.473 169.791 571.937V552.135C174.853 552.135 179.708 550.123 183.288 546.544C186.867 542.964 188.878 538.109 188.878 533.047V533.047ZM169.791 544.792L169.791 544.792V521.299C172.906 521.299 175.894 522.536 178.097 524.739C180.3 526.942 181.537 529.93 181.537 533.045C181.538 536.161 180.3 539.148 178.097 541.351C175.894 543.554 172.906 544.792 169.791 544.792V544.792Z" fill="#E6E6E6"/>
<path d="M973.467 511.716C987.843 527.142 988.586 549.816 988.586 549.816C988.586 549.816 966.021 547.478 951.645 532.052C937.269 516.626 936.526 493.952 936.526 493.952C936.526 493.952 959.091 496.29 973.467 511.716Z" fill="#E6E6E6"/>
<path d="M1018.72 535.795C1003.3 550.171 980.624 550.914 980.624 550.914C980.624 550.914 982.962 528.349 998.388 513.973C1013.81 499.597 1036.49 498.854 1036.49 498.854C1036.49 498.854 1034.15 521.419 1018.72 535.795Z" fill="#E6E6E6"/>
<path d="M1014.89 581.582H958.151C957.062 581.583 955.996 581.277 955.073 580.699C954.15 580.122 953.408 579.296 952.932 578.317L940.579 552.922C940.148 552.037 939.948 551.058 940 550.075C940.052 549.092 940.353 548.138 940.875 547.304C941.397 546.469 942.123 545.782 942.984 545.305C943.845 544.829 944.814 544.579 945.798 544.58H1027.24C1028.23 544.579 1029.2 544.829 1030.06 545.305C1030.92 545.782 1031.64 546.47 1032.17 547.304C1032.69 548.138 1032.99 549.092 1033.04 550.075C1033.09 551.058 1032.89 552.037 1032.46 552.922L1020.11 578.316C1019.63 579.295 1018.89 580.121 1017.97 580.698C1017.05 581.276 1015.98 581.581 1014.89 581.581L1014.89 581.582Z" fill="#E5E5E5"/>
<g clip-path="url(#clip1_2_2)">
<path d="M300.625 108C301.133 111.254 303.745 110.141 305.33 110.193C309.474 110.329 313.634 110.162 317.782 109.984C320.701 109.858 322.315 110.966 321.972 114.019C321.324 119.778 320.937 125.537 320.853 131.341C320.817 133.823 318.77 135.633 316.291 135.858C312.823 136.173 309.276 136.231 305.816 135.879C301.262 135.416 303.809 131.394 302.615 128.723C300.688 133.206 298.41 136.619 292.684 136.128C288.243 135.748 288.388 132.193 286.71 129.634C282.202 134.681 277.211 138.247 270.152 134.731C269.021 134.167 268.165 134.824 267.445 135.266C265.874 136.229 264.127 136.285 262.611 135.923C253.387 133.723 244.194 136.676 235.017 135.891C231.712 135.608 228.318 134.869 228.968 130.013C229.559 125.603 229.716 121.136 230.258 116.717C230.67 113.354 232.273 110.582 235.111 108.36C236.389 108 237.778 108 239.583 108C241.349 109.15 242.844 109.765 244.943 109.19C246.046 108.974 246.888 108.979 247.785 108.217C248.444 108 248.889 108 249.667 108C250.124 108.122 250.248 108.244 250.567 108.539C251.133 108.735 251.504 108.738 252.176 108.806C255.554 110.348 258.536 109.667 261.748 108.237C263.389 108 264.778 108 266.583 108C269.058 109.634 271.257 109.321 273.747 108.236C275.389 108 276.778 108 278.583 108C282.405 110.274 285.951 109.407 289.75 108.235C290.75 108 291.5 108 292.625 108C294.376 109.486 295.853 109.978 297.767 108.23C298.75 108 299.5 108 300.625 108Z" fill="#862561"/>
<path d="M246.224 109.937C246.077 109.522 246.247 109.064 246.209 108.303C246.444 108 246.889 108 247.667 108C247.76 108.82 247.581 109.687 246.224 109.937Z" fill="#8E1D71"/>
<path d="M281.484 166.928C279.152 164.654 277.24 162.394 274.483 165.96C273.531 167.19 271.973 167.35 270.822 166.923C265.078 164.787 259.225 168.265 253.767 166.797C247.223 165.037 241.031 166.879 234.701 167.064C230.679 167.182 229.199 165.112 229.087 161.786C228.879 155.638 229.045 149.478 229.004 143.324C228.989 141.188 230.164 139.886 231.908 139.087C233.078 138.551 234.408 138.055 235.663 138.061C243.862 138.104 252.005 139.19 260.282 138.206C264.418 137.715 268.188 140.152 269.837 145.366C272.194 140.799 274.714 137.313 280.351 137.894C283.983 138.269 284.756 140.896 286.463 143.574C288.471 139.923 291.198 137.186 295.522 138.086C299.403 138.894 303.475 136.623 307.093 138.816C308.655 139.764 309.445 139.488 310.977 138.755C316.566 136.083 319.958 138.358 319.989 144.507C320.015 149.497 320.013 154.487 319.99 159.478C319.963 165.368 317.965 167.79 312.252 166.785C308.213 166.074 304.517 167.044 300.667 167.007C294.407 166.948 288.146 166.979 281.484 166.928Z" fill="#852460"/>
<path d="M254.734 119.326C255.619 112.555 262.339 110.6 268.165 112.686C269.456 113.149 270.519 113.809 272.114 113.028C276.794 110.736 280.91 111.843 284.625 115.897C286.499 116.99 286.893 118.594 287.315 120.607C287.315 121.861 287.106 122.648 286.39 123.683C284.255 126.486 284.041 130.316 280.075 131.546C276.355 133.382 273.017 132.425 269.335 130.989C268.378 131.069 267.799 131.196 267.082 131.588C257.602 133.936 251.903 128.382 254.734 119.326Z" fill="#FEFEFE"/>
<path d="M233.356 126.257C232.971 125.556 232.906 125.131 232.799 124.385C232.579 123.6 232.518 123.119 232.716 122.291C232.873 121.958 233.007 121.945 233.057 121.99C234.881 120.184 237.221 119.769 239.524 120.104C243.302 120.653 247.13 120.164 251.314 121.088C252.889 122.143 253.141 123.327 252.879 125.088C252.329 126.369 251.587 126.776 250.32 127.057C248.939 127.108 247.968 126.749 246.616 127.086C244.49 127.631 242.701 127.821 240.485 127.539C239.548 127.497 239.009 127.491 238.057 127.504C236.197 127.688 234.842 127.493 233.356 126.257Z" fill="#FF769B"/>
<path d="M252.354 122.145C246 122.004 240.013 122.009 233.567 122.025C233.078 121.863 233.05 121.692 232.99 121.262C232.96 119.573 233.2 118.19 234.093 116.564C236.682 115.029 238.943 114.974 241.509 116.685C241.842 116.983 242.004 117.441 242.048 117.68C242.925 118.916 243.875 118.263 245.167 118.114C247.706 118.964 250.178 117.898 252.586 119.428C253.318 120.015 253.527 120.474 253.435 121.404C253.127 121.953 252.924 122.122 252.354 122.145Z" fill="#FD82A0"/>
<path d="M293.791 119.7C294.528 119.948 294.909 119.948 295.577 119.948C297.509 118.643 299.262 118.209 301.535 119.639C302.393 122.113 301.151 123.685 300.02 125.665C298.28 127.683 296.192 127.737 293.711 127.792C293.066 127.77 292.81 127.728 292.198 127.529C290.371 125.895 289.824 123.826 288.441 121.841C288.321 120.891 288.448 120.365 289.03 119.589C290.738 118.584 292.102 118.598 293.791 119.7Z" fill="#FE789C"/>
<path d="M318.222 123.877C317.575 124.364 317.063 124.602 316.259 124.868C314.635 125.381 313.241 125.664 311.544 126.227C309.632 126.516 308.119 126.526 306.528 125.223C306.204 124.509 306.148 124.071 306.15 123.305C306.278 122.815 306.348 122.653 306.3 122.255C306.17 121.825 306.156 121.633 306.213 121.16C307.106 118.474 309.411 118.594 311.646 117.855C312.282 117.721 312.54 117.682 313.193 117.618C314.924 117.577 316.263 117.558 317.703 118.711C318.283 119.754 318.551 120.547 318.796 121.666C318.512 122.506 318.506 123.085 318.222 123.877Z" fill="#FE7C9E"/>
<path d="M306.149 125.314C307.889 124.964 309.519 124.98 311.562 124.992C313.063 125.37 314.228 125.466 315.638 125.98C317.954 126.258 319.045 127.215 318.72 129.685C316.945 131.886 314.408 130.296 312.292 131.762C310.619 132.06 309.214 132.12 307.388 132.186C306.791 131.991 306.616 131.789 306.403 131.189C306.256 129.087 306.147 127.383 306.149 125.314Z" fill="#FE6796"/>
<path d="M309.595 112.283C311.92 112.043 313.894 112.032 315.86 111.904C320.599 111.594 320.844 113.758 318.537 117.424C316.961 118.027 315.649 117.995 313.946 117.994C313.288 117.989 313.024 117.986 312.364 117.969C310.303 117.845 308.822 117.328 307.522 115.662C307.08 113.757 307.518 112.679 309.595 112.283Z" fill="#FF94A7"/>
<path d="M301.974 119.752C300.154 119.982 298.44 119.979 296.294 119.963C296.221 118.878 296.677 117.828 296.921 116.731C298.055 111.631 298.795 111.246 303.944 113.631C304.555 114.266 304.808 114.692 304.95 115.577C304.895 117.044 304.269 117.807 303.19 118.715C302.632 119.146 302.356 119.333 301.974 119.752Z" fill="#FE8CA4"/>
<path d="M294.075 119.569C292.633 119.989 291.119 120.031 289.153 120.109C285.267 119.68 286.389 116.726 285.804 114.357C290.883 110.754 291.711 111.047 293.043 116.447C293.274 117.383 293.679 118.276 294.075 119.569Z" fill="#FE8CA3"/>
<path d="M285.648 114.175C287.363 115.582 286.469 118.172 288.457 119.911C288.804 120.576 288.906 121.006 289.108 121.753C290.203 123.308 290.92 124.679 291.324 126.569C292.076 128.077 292.879 129.173 293.514 130.737C293.54 131.295 293.498 131.519 293.234 132.001C290.504 133.667 290.283 131.351 289.631 130.053C288.745 128.289 288.107 126.401 287.212 124.243C286.167 123.34 286.642 122.399 286.335 121.341C285.811 119.632 285.412 118.212 284.981 116.415C285.11 115.483 285.27 114.928 285.648 114.175Z" fill="#BC3D6F"/>
<path d="M252.728 122.363C252.932 121.568 252.954 121.118 252.929 120.333C252.807 119.792 252.732 119.585 252.9 119.156C253.559 118.952 253.976 118.97 254.705 118.982C255.151 120.957 255.084 122.977 255.455 124.913C256.404 129.869 259.778 132.024 266.522 131.904C262.456 134.666 258.614 132.785 254.517 130.145C253.248 129.424 252.747 128.529 252.748 126.995C252.95 125.289 252.314 124.027 252.728 122.363Z" fill="#BC3F70"/>
<path d="M239.657 126.394C241.969 126.022 244.016 126.007 246.501 125.988C247.12 126.154 247.302 126.324 247.646 126.833C248.084 128.534 247.646 129.644 246.307 130.759C244.912 132.513 243.256 132.09 241.365 132.193C239.123 130.757 238.295 129.034 239.657 126.394Z" fill="#FB6897"/>
<path d="M244.821 116.389C245.077 115.593 245.185 115.227 245.347 114.581C245.324 113.958 245.384 113.645 245.758 113.167C250.166 109.974 252.038 112.017 252.845 116.619C250.804 119.021 248.423 118.69 245.606 117.791C245.038 117.305 244.855 117.063 244.821 116.389Z" fill="#FF93A6"/>
<path d="M241.851 116.604C239.595 116.983 237.348 116.983 234.679 116.976C233.25 116.46 233.574 115.54 233.791 114.362C238.88 110.363 239.933 110.661 241.851 116.604Z" fill="#FE93A7"/>
<path d="M293.419 132.229C292.989 132.061 292.967 131.862 292.902 131.366C293.66 129.801 291.911 128.746 292.79 127.239C294.807 125.31 297.028 126.261 299.453 125.991C299.611 129.769 298.478 132.691 293.419 132.229Z" fill="#FD6595"/>
<path d="M232.953 126.407C234.435 125.993 235.834 126.005 237.654 126.026C239.06 127.118 238.988 128.458 238.924 130.174C238.739 130.799 238.614 131.032 238.219 131.556C233.606 132.862 232.196 130.903 232.953 126.407Z" fill="#FD6796"/>
<path d="M253.615 125.775C253.956 127.078 253.999 128.176 254.103 129.685C253.128 130.976 252.329 132.265 250.34 132.097C249.647 131.737 249.237 131.497 248.534 131.073C247.75 129.89 247.945 128.917 248.091 127.597C248.244 127.02 248.341 126.8 248.675 126.308C249.689 126.023 250.465 126.01 251.629 125.994C252.382 125.638 252.818 125.507 253.615 125.775Z" fill="#FF6A98"/>
<path d="M307.666 114.777C309.202 115.54 310.405 116.077 311.824 116.872C312.375 117.494 312.5 117.924 312.229 118.69C310.67 120.657 308.434 119.525 306.588 120.734C306.283 120.88 306.015 120.504 305.928 120.29C305.358 118.833 304.725 117.618 305.188 115.82C305.455 115.214 305.616 114.999 306.152 114.635C306.796 114.509 307.064 114.53 307.666 114.777Z" fill="#FF88A2"/>
<path d="M244.93 117.197C247.484 116.977 249.731 116.984 252.399 116.987C252.89 117.416 252.962 117.849 253.088 118.608C253.096 119.11 253.05 119.287 252.943 119.731C250.424 119.776 247.89 120.531 245.218 119.136C244.598 118.426 244.494 117.951 244.93 117.197Z" fill="#FE84A0"/>
<path d="M269.204 131.235C272.466 129.799 275.504 133.477 279.472 131.883C276.342 134.022 272.875 133.51 269.204 131.235Z" fill="#B94071"/>
<path d="M238.183 131.155C238.041 129.59 238.037 128.222 238.054 126.444C238.485 126.023 238.896 126.011 239.615 126.018C240.255 127.821 240.587 129.605 240.947 131.784C240.501 132.839 239.947 132.976 239.145 132.235C238.715 131.863 238.489 131.638 238.183 131.155Z" fill="#BD3C6F"/>
<path d="M248.511 126.867C248.819 128.157 248.904 129.183 249.008 130.594C249.168 131.211 249.309 131.442 249.241 132.02C247.571 133.447 247.191 131.962 246.235 131.131C246.323 129.896 246.647 128.816 247.037 127.401C247.404 126.669 247.803 126.527 248.511 126.867Z" fill="#B93B6E"/>
<path d="M312.435 132.061C313.044 128.616 315.852 130.508 318.247 130.03C317.762 133.658 314.834 131.584 312.435 132.061Z" fill="#FB76A2"/>
<path d="M315.982 125.782C314.54 127.28 313.22 127.502 312.054 125.317C313.005 123.841 314.212 123.81 315.745 124.661C315.977 125.093 315.986 125.29 315.982 125.782Z" fill="#D95786"/>
<path d="M312.852 117.515C314.558 117.3 315.99 117.303 317.829 117.472C318.17 117.929 318.109 118.221 318.034 118.738C316.638 118.962 315.261 118.962 313.471 118.936C312.656 118.615 312.483 118.228 312.852 117.515Z" fill="#BC3E6F"/>
<path d="M233.751 114.235C234.048 114.746 234.079 115.491 234.184 116.603C234.013 118.161 233.768 119.353 233.241 120.774C230.996 118.653 233.382 116.653 233.751 114.235Z" fill="#BB3C6E"/>
<path d="M306.327 114.72C306.124 116.473 306.08 117.865 305.939 119.667C305.548 119.934 305.313 119.725 305.022 119.241C304.238 118.375 304.115 117.576 304.223 116.39C304.127 115.602 304.109 115.121 304.129 114.28C304.602 113.68 305.038 113.44 305.693 113.081C306.315 113.341 306.506 113.808 306.327 114.72Z" fill="#BB3C6E"/>
<path d="M308.044 114.703C308 115.003 307.508 115.01 307.261 115.006C306.376 114.351 306.518 113.547 306.829 112.454C307.881 112.09 308.677 112.032 309.712 112.04C309.33 112.873 308.709 113.638 308.044 114.703Z" fill="#FEB2BE"/>
<path d="M303.983 116.357C304.9 116.681 304.983 117.515 304.935 118.71C304.464 119.018 304.02 119.005 303.241 118.975C303.212 118.184 303.516 117.407 303.983 116.357Z" fill="#932C65"/>
<path d="M245.178 116.715C245.146 117.385 245.056 117.801 244.95 118.533C244.04 119.007 243.14 119.213 242.216 118.235C243.348 118.084 243.871 117.144 244.726 116.147C245.02 116.126 245.07 116.293 245.178 116.715Z" fill="#C34876"/>
<path d="M306.155 130.902C306.502 131.008 306.64 131.225 306.872 131.817C306.546 132.333 305.946 132.719 305.739 132.568C305.023 132.045 305.361 131.471 306.155 130.902Z" fill="#BB3C6E"/>
<path d="M306.836 112.188C307.051 112.861 307.018 113.574 307 114.644C307.015 115.002 306.59 115.031 306.379 115.056C306.106 114.61 306.043 114.14 305.947 113.315C306.138 112.717 306.363 112.472 306.836 112.188Z" fill="#E56F90"/>
<path d="M286.137 121.417C286.485 121.803 286.759 122.554 287.047 123.613C287.061 123.921 286.6 123.974 286.368 123.991C286.112 123.266 286.088 122.524 286.137 121.417Z" fill="#9B376D"/>
<path d="M232.694 122.131C232.888 122.429 232.903 122.901 232.837 123.719C232.217 123.541 232.043 122.967 232.694 122.131Z" fill="#BC3B6E"/>
<path d="M318.341 123.947C318.194 123.564 318.3 123.001 318.589 122.215C318.713 122.584 318.654 123.176 318.341 123.947Z" fill="#D86B92"/>
<path d="M238.018 131.18C238.353 131.094 238.601 131.302 238.895 131.805C238.824 132.01 238.647 131.992 238.21 131.911C237.951 131.848 237.991 131.402 238.018 131.18Z" fill="#E65186"/>
<path d="M249.274 132.304C249.025 132.137 249.017 131.905 249.018 131.327C249.328 131.14 249.577 131.358 249.882 131.861C249.989 132.089 249.515 132.241 249.274 132.304Z" fill="#E14F84"/>
<path d="M250.078 109.255C249.985 109.134 250.465 109.081 250.696 109.148C250.928 109.216 250.577 109.483 250.577 109.483C250.577 109.483 250.171 109.377 250.078 109.255Z" fill="#8E1D71"/>
<path d="M306.127 122.259C306.492 122.209 306.575 122.462 306.32 122.876C306.207 122.977 306.071 122.5 306.127 122.259Z" fill="#FE6796"/>
<path d="M245.735 113.148C245.967 113.31 245.905 113.63 245.566 114.115C245.453 113.977 245.504 113.652 245.735 113.148Z" fill="#C34876"/>
<path d="M307.311 158.846C306.94 160.467 306.822 161.846 305.336 162.981C304.758 163.334 304.469 163.507 303.935 163.712C302.81 163.703 301.936 163.672 300.734 163.658C298.115 162.573 298.656 160.439 298.487 158.53C298.218 155.472 299.243 152.302 297.493 148.996C296.949 147.863 296.853 147.052 296.989 145.825C297.687 144.026 298.553 142.772 299.804 141.332C303.755 140.247 306.713 141.014 308.662 144.932C310.067 145.077 310.018 144.026 310.661 143.175C311.882 140.029 314.322 140.727 316.288 141.095C318.547 141.518 318.01 143.711 317.869 145.211C317.323 151.027 319.319 157.013 316.388 162.919C315.877 163.234 315.691 163.315 315.21 163.325C314.191 163.204 313.467 163.154 312.381 163.071C309.736 162.513 309.662 160.254 308.644 158.736C308.193 159.29 308.293 155.639 307.311 158.846Z" fill="#FC7B9E"/>
<path d="M232.42 161.895C234.031 155.616 230.143 149.82 232.041 143.52C232.212 142.845 232.343 142.564 232.765 142.161C238.823 138.823 243.901 139.635 247.976 144.654C250.273 146.995 248.924 150.001 250.289 152.702C250.476 154.904 250.785 156.709 249.198 158.57C245.194 163.496 240.04 163.237 234.468 163.065C233.374 162.982 232.846 162.697 232.42 161.895Z" fill="#FC7A9D"/>
<path d="M250.661 143.352C250.83 142.787 250.878 142.627 251.016 142.233C251.235 141.836 251.364 141.673 251.745 141.328C254.39 140.517 256.787 139.891 259.297 140.264C265.413 141.174 267.805 144.223 267.781 151.222C265.303 152.623 262.899 154.07 265.103 157.203C267.627 160.79 265.689 162.001 262.346 163.081C260.713 163.19 259.8 161.298 258.025 162.525C257.375 162.759 257.005 162.892 256.351 163.105C255.88 163.255 255.692 163.325 255.214 163.319C254.194 163.198 253.465 163.154 252.371 163.09C251.842 162.896 251.679 162.722 251.538 162.19C251.552 161.185 251.543 160.538 251.453 159.577C250.287 157.535 250.691 155.495 250.109 153.234C249.475 150.616 249.232 148.396 249.992 145.77C250.414 144.871 250.535 144.326 250.661 143.352Z" fill="#FC7A9D"/>
<path d="M268.645 160.415C270.149 155.926 271.556 151.871 273.014 147.442C273.447 146.594 273.493 146.005 273.788 145.207C273.958 144.971 274.088 144.592 274.12 144.394C274.239 143.885 274.388 143.606 274.708 143.149C278.265 139.35 282.163 139.903 283.652 144.214C285.038 148.226 286.378 152.253 287.928 156.591C290.093 158.952 291.485 160.952 287.314 162.745C286.951 162.944 287.003 162.995 286.981 162.965C286.802 163.085 286.645 163.235 286.168 163.433C283.389 163.88 282.348 162.299 281.25 160.25C279.92 160.072 278.876 160.042 277.441 160.036C276.791 160.276 276.52 160.477 275.994 160.721C275.034 161.49 274.32 162.202 273.353 163.081C270.599 164.314 269.122 163.439 268.645 160.415Z" fill="#FC7A9D"/>
<path d="M290.704 149.433C290.915 148.978 291.059 148.523 291.098 148.287C291.945 146.9 293.147 146.701 294.893 146.739C295.982 146.933 296.536 147.215 297.281 148.026C299.102 153.048 298.883 157.695 297.356 162.671C296.998 162.987 296.556 163.142 296.336 163.22C290.912 164.341 290.095 163.871 289.911 159.089C289.793 156.022 289.722 152.917 290.704 149.433Z" fill="#FC7A9E"/>
<path d="M297.323 163.133C296.994 158.349 296.989 153.712 296.901 148.625C297.082 147.97 297.347 147.764 298.081 147.744C301.563 152.62 299.069 157.925 300.311 163.249C299.412 164.065 298.517 163.766 297.323 163.133Z" fill="#B6396C"/>
<path d="M290.613 149.187C290.938 152.279 291.147 155.592 290.93 158.877C290.711 162.195 292.147 163.398 295.682 163.213C293.211 166.947 290.476 164.229 287.325 163.009C289.333 161.603 289.029 159.683 288.108 157.267C290.181 154.793 287.746 151.364 290.613 149.187Z" fill="#B5396C"/>
<path d="M290.52 143.253C291.644 139.804 294.213 141.429 296.482 141.059C297.798 141.921 298.154 142.926 297.736 144.521C297.382 145.779 296.966 146.47 295.673 146.872C292.804 147.057 289.792 147.996 290.52 143.253Z" fill="#FC7B9E"/>
<path d="M250.601 144.717C250.901 147.399 250.965 149.754 250.999 152.55C250.59 153.311 250.153 153.455 249.374 153.203C247.375 150.785 248.09 148.24 248.109 145.379C248.521 144.955 248.882 144.953 249.515 144.954C249.979 144.767 250.172 144.578 250.601 144.717Z" fill="#A3336A"/>
<path d="M307.335 159.305C306.965 157.982 306.69 156.85 307.523 155.512C309.797 157.341 310.313 160.185 311.913 162.704C308.358 164.606 309.15 160.57 307.335 159.305Z" fill="#BD3D6F"/>
<path d="M249.065 153.405C249.508 152.983 249.926 152.985 250.656 152.989C252.351 154.662 251.814 156.588 251.533 158.861C250.755 159.167 250.139 159.071 249.207 158.935C248.941 157.207 248.99 155.518 249.065 153.405Z" fill="#BA3B6D"/>
<path d="M290.385 142.999C291.072 144.919 291.146 147.322 294.723 146.127C295.376 146.501 295.505 146.912 295.241 147.651C293.995 147.967 292.954 148.013 291.525 148.055C289.02 146.788 288.106 145.267 290.385 142.999Z" fill="#B83A6D"/>
<path d="M258.052 162.804C257.914 161.378 258.083 160.129 258.269 158.763C260.404 159.274 260.451 161.455 261.856 162.83C260.728 164.495 259.544 163.744 258.052 162.804Z" fill="#C14172"/>
<path d="M280.967 160.456C282.014 158.984 282.661 159.515 283.019 160.676C283.391 161.88 284.062 162.7 285.667 163.032C286.127 163.246 286.248 163.389 286.182 163.743C282.769 165.384 281.291 164.022 280.967 160.456Z" fill="#BA3B6D"/>
<path d="M268.537 160.258C269.118 161.985 270.301 163.035 272.732 163.146C272.594 164.964 271.481 165.05 270.037 164.448C268.187 163.678 267.571 162.419 268.537 160.258Z" fill="#B3376B"/>
<path d="M297.516 145.289C297.094 144.009 297.011 142.952 296.906 141.499C297.684 141.092 298.484 141.082 299.683 141.075C299.769 142.34 300.276 143.804 298.841 144.966C298.302 145.213 298.078 145.363 297.516 145.289Z" fill="#B6396C"/>
<path d="M310.529 142.986C310.916 144.023 311.078 145.142 311.048 146.257C311.03 146.937 311.389 148.153 310.186 148.057C308.97 147.96 309.056 146.733 308.98 145.446C309.072 144.225 309.263 143.412 310.529 142.986Z" fill="#B83B6E"/>
<path d="M251.32 161.917C251.67 162.026 251.778 162.22 251.946 162.742C251.627 163.604 251.096 163.974 250.592 163.398C250.102 162.836 250.512 162.332 251.32 161.917Z" fill="#BA3B6D"/>
<path d="M232.312 161.895C232.879 161.892 233.347 162.2 233.917 162.777C232.743 164.209 232.281 163.629 232.312 161.895Z" fill="#BB3B6D"/>
<path d="M268.001 151.562C268.015 152.056 269.206 152.367 268.269 153.071C268.172 152.766 268.075 152.46 267.966 151.883C267.954 151.612 268.017 151.592 268.001 151.562Z" fill="#8D386B"/>
<path d="M273.726 145.163C273.815 145.542 273.673 146.112 273.298 146.876C273.208 146.497 273.351 145.926 273.726 145.163Z" fill="#B83C6F"/>
<path d="M250.893 144.695C250.664 145.032 250.489 145.019 250.051 144.982C249.983 144.421 250.178 143.884 250.578 143.148C250.837 143.414 250.893 143.88 250.893 144.695Z" fill="#BA3B6D"/>
<path d="M276.012 160.76C276.008 160.552 276.268 160.327 276.789 160.081C276.792 160.288 276.534 160.515 276.012 160.76Z" fill="#BA3B6D"/>
<path d="M315.045 163.378C315.103 163.205 315.292 163.156 315.771 163.13C315.767 163.27 315.471 163.385 315.045 163.378Z" fill="#BD3D6F"/>
<path d="M303.948 163.75C303.968 163.55 304.251 163.365 304.793 163.175C304.771 163.369 304.491 163.567 303.948 163.75Z" fill="#B6396C"/>
<path d="M286.214 163.846C285.995 163.953 286 163.527 286.003 163.315C286.006 163.103 286.478 162.996 286.718 162.966C286.892 163.274 286.717 163.542 286.214 163.846Z" fill="#B5396C"/>
<path d="M255.049 163.369C255.112 163.197 255.301 163.151 255.779 163.145C255.77 163.289 255.472 163.392 255.049 163.369Z" fill="#BA3B6D"/>
<path d="M251.759 141.168C251.863 141.394 251.684 141.606 251.284 141.89C251.064 141.637 251.202 141.367 251.759 141.168Z" fill="#EC6B91"/>
<path d="M232.714 142.122C232.907 142.31 232.809 142.619 232.421 143.045C232.174 142.839 232.272 142.532 232.714 142.122Z" fill="#BB3B6D"/>
<path d="M274.629 143.1C274.848 143.287 274.756 143.6 274.346 144.037C274.118 143.845 274.214 143.533 274.629 143.1Z" fill="#B83C6F"/>
<path d="M269.463 149.528C269.439 149.484 269.486 149.572 269.463 149.528V149.528Z" fill="#8D386B"/>
<path d="M281.763 117.027C282.749 117.609 283.66 118.079 283.832 118.741C284.515 121.355 283.987 123.895 281.265 124.828C278.366 125.823 277.5 122.892 277.184 121.164C276.693 118.476 278.077 116.51 281.763 117.027Z" fill="#202020"/>
<path d="M268.813 124.948C265.358 124.045 263.777 120.294 265.44 118.002C266.246 116.89 267.396 116.917 268.566 117.017C270.129 117.149 270.865 118.037 271.007 119.584C271.195 121.641 270.713 123.435 268.813 124.948Z" fill="#1F1F1F"/>
<path d="M253.813 125.65C253.492 125.989 253.071 126 252.333 126C252.008 124.926 251.999 123.862 251.988 122.398C251.986 121.999 252.449 122 252.68 122.009C253.178 123.118 253.445 124.219 253.813 125.65Z" fill="#FD98B5"/>
<path d="M248.803 126.862C248.372 127.103 248.01 127.074 247.376 127.055C247.073 126.885 247.043 126.705 246.976 126.254C247.41 125.338 247.949 125.524 248.707 125.945C248.9 126.221 248.886 126.407 248.803 126.862Z" fill="#D44E7D"/>
<path d="M292.779 126.99C293.073 128.225 293.895 128.987 294.576 129.928C295.579 131.315 293.942 130.741 293.157 131.048C291.626 130.304 290.91 129.243 290.912 127.407C291.054 126.923 291.245 126.776 291.748 126.813C292.06 126.997 292.539 126.992 292.779 126.99Z" fill="#FE7AA5"/>
<path d="M292.036 126.639C291.86 127.007 291.661 127.017 291.162 127.048C290.31 125.628 289.758 124.187 289.206 122.407C291.501 122.568 291.716 124.452 292.036 126.639Z" fill="#FF8DAF"/>
<path d="M312.86 117.225C313.098 117.655 313.07 118.013 313.05 118.639C312.885 118.928 312.712 118.948 312.276 118.968C312.018 118.56 312.022 118.151 312.034 117.436C312.226 117.138 312.41 117.145 312.86 117.225Z" fill="#D45A82"/>
<path d="M296.986 145.309C297.402 145.067 297.626 145.068 298.188 145.067C298.515 145.781 298.503 146.497 298.52 147.572C298.26 147.964 297.97 147.997 297.249 148.104C296.419 148.131 296.021 148.086 295.329 147.981C295.032 147.527 295.03 147.133 295.044 146.444C295.637 145.95 296.216 145.751 296.986 145.309Z" fill="#8E2A64"/>
<path d="M243.286 155.725C242.049 157.134 240.664 157.69 239.319 156.802C238.755 156.43 238.955 155.103 239.672 154.606C241.094 153.622 242.453 153.737 243.286 155.725Z" fill="#BF4273"/>
<path d="M240.571 148.571C238.845 148.467 238.871 147.591 239.489 146.643C239.897 146.017 240.679 146.015 241.205 146.436C242.162 147.202 241.365 147.821 240.571 148.571Z" fill="#B2396D"/>
<path d="M260.436 146.678C260.9 148.01 261.506 149.325 259.777 149.586C258.943 149.712 258.314 148.886 258.204 148.041C258.007 146.534 258.673 145.903 260.436 146.678Z" fill="#BD3D6F"/>
<path d="M279.295 149.897C280.106 151.332 280.738 152.819 278.813 153.665C278.482 153.811 277.595 153.532 277.522 153.284C277.089 151.813 278.06 150.84 279.295 149.897Z" fill="#BF4475"/>
</g>
</g>
<defs>
<clipPath id="clip0_2_2">
<rect width="1082.1" height="583.577" fill="white"/>
</clipPath>
<clipPath id="clip1_2_2">
<rect width="104" height="61" fill="white" transform="translate(223 107)"/>
</clipPath>
</defs>
</svg>
