<svg width="800" height="800" viewBox="0 0 800 800" fill="none" xmlns="http://www.w3.org/2000/svg">
<path d="M421.336 620.977H178.727C152.425 620.977 131.027 599.578 131.027 573.276V109.701C131.027 83.3985 152.425 62 178.727 62H421.336C447.637 62 469.036 83.3985 469.036 109.701V573.276C469.036 599.578 447.637 620.977 421.336 620.977H421.336V620.977Z" fill="#3F3D56"/>
<path d="M469.036 232.518C467.923 232.518 467.018 233.423 467.018 234.536V299.111C467.018 300.224 467.923 301.129 469.036 301.129C470.149 301.129 471.054 300.224 471.054 299.111V234.536C471.054 233.423 470.149 232.518 469.036 232.518Z" fill="#3F3D56"/>
<path d="M464.496 109.701V573.268C464.496 596.161 446.677 614.888 424.147 616.341H424.137C423.804 616.361 423.471 616.382 423.128 616.392C422.532 616.422 421.937 616.432 421.332 616.432C421.332 616.432 419.112 616.27 415.056 615.968C410.959 615.665 404.996 615.211 397.56 614.616C395.33 614.444 392.979 614.253 390.497 614.051C385.553 613.647 380.125 613.203 374.303 612.699C371.982 612.507 369.581 612.295 367.129 612.083C354.597 611.004 340.563 609.742 325.761 608.31C323.258 608.078 320.736 607.835 318.193 607.583C317.527 607.513 316.851 607.452 316.175 607.381C305.621 606.342 294.775 605.222 283.888 604.032C283.212 603.961 282.536 603.89 281.87 603.82C263.113 601.751 244.285 599.501 226.669 597.08C213.118 595.223 200.284 593.266 188.761 591.238C185.008 590.572 181.396 589.906 177.945 589.23C177.269 589.099 176.593 588.967 175.927 588.826C151.54 583.943 135.568 578.676 135.568 573.268V109.701C135.568 85.8587 154.89 66.5366 178.732 66.5366H204.501C208.618 66.5366 211.927 69.7452 212.281 73.8517C212.311 74.1242 212.341 74.3966 212.392 74.669C213.138 78.7958 216.922 81.6714 221.119 81.6714H378.944C383.142 81.6714 386.925 78.7958 387.672 74.669C387.722 74.3966 387.753 74.1242 387.783 73.8517C388.136 69.7452 391.445 66.5366 395.562 66.5366H421.332C445.174 66.5366 464.496 85.8587 464.496 109.701H464.496V109.701Z" fill="white"/>
<path d="M130.018 184.087C128.905 184.087 128 184.992 128 186.105V202.249C128 203.362 128.905 204.267 130.018 204.267C131.131 204.267 132.036 203.362 132.036 202.249V186.105C132.036 184.992 131.131 184.087 130.018 184.087Z" fill="#3F3D56"/>
<path d="M130.018 232.518C128.905 232.518 128 233.423 128 234.536V265.814C128 266.927 128.905 267.832 130.018 267.832C131.131 267.832 132.036 266.927 132.036 265.814V234.536C132.036 233.423 131.131 232.518 130.018 232.518Z" fill="#3F3D56"/>
<path d="M130.018 276.913C128.905 276.913 128 277.818 128 278.931V310.21C128 311.323 128.905 312.228 130.018 312.228C131.131 312.228 132.036 311.323 132.036 310.21V278.931C132.036 277.818 131.131 276.913 130.018 276.913Z" fill="#3F3D56"/>
<path d="M203.868 73.6035H165.138C164.967 73.6035 164.828 73.7424 164.828 73.9137V78.3382C164.828 78.5095 164.967 78.6484 165.138 78.6484H203.868C204.039 78.6484 204.178 78.5095 204.178 78.3382V73.9137C204.178 73.7424 204.039 73.6035 203.868 73.6035Z" fill="#3F3D56"/>
<path d="M401.939 78.6483C404.168 78.6483 405.975 76.8413 405.975 74.6123C405.975 72.3834 404.168 70.5764 401.939 70.5764C399.71 70.5764 397.903 72.3834 397.903 74.6123C397.903 76.8413 399.71 78.6483 401.939 78.6483Z" fill="#3F3D56"/>
<path d="M413.037 78.6483C415.266 78.6483 417.073 76.8413 417.073 74.6123C417.073 72.3834 415.266 70.5764 413.037 70.5764C410.808 70.5764 409.001 72.3834 409.001 74.6123C409.001 76.8413 410.808 78.6483 413.037 78.6483Z" fill="#3F3D56"/>
<path d="M424.136 78.6483C426.365 78.6483 428.172 76.8413 428.172 74.6123C428.172 72.3834 426.365 70.5764 424.136 70.5764C421.907 70.5764 420.1 72.3834 420.1 74.6123C420.1 76.8413 421.907 78.6483 424.136 78.6483Z" fill="#3F3D56"/>
<path d="M136.5 688H207.5C209.754 687.997 211.914 687.101 213.508 685.508C215.101 683.914 215.997 681.754 216 679.5V654.5C215.997 652.246 215.101 650.086 213.508 648.492C211.914 646.899 209.754 646.003 207.5 646H136.5C134.246 646.003 132.086 646.899 130.492 648.492C128.899 650.086 128.003 652.246 128 654.5V679.5C128.003 681.754 128.899 683.914 130.492 685.508C132.086 687.101 134.246 687.997 136.5 688Z" fill="#E6E6E6"/>
<path d="M395.117 737.389L670.867 737.696C671.183 737.696 671.486 737.571 671.709 737.347C671.932 737.124 672.058 736.821 672.058 736.505C672.058 736.19 671.932 735.887 671.709 735.663C671.486 735.44 671.183 735.315 670.867 735.315L395.117 735.007C394.801 735.007 394.499 735.133 394.275 735.356C394.052 735.579 393.926 735.882 393.926 736.198C393.926 736.514 394.052 736.817 394.275 737.04C394.499 737.263 394.801 737.389 395.117 737.389V737.389Z" fill="#CACACA"/>
<path d="M532.127 688.549L534.013 701.835V701.868L534.636 706.289L535.647 713.386V713.394L536.067 716.383L536.699 720.829L542.34 720.711L544.024 720.669L544.908 720.652L544.824 716.729L544.613 706.322L544.234 688.296H544.159L542.475 688.33L535.748 688.473L534.064 688.507L532.127 688.549Z" fill="#FFB6B6"/>
<path d="M519.001 734.468C519.052 736.497 520.727 738.105 522.748 738.063L525.442 738.004L527.126 737.971L533.853 737.836L535.545 737.802L539.065 737.727L541.751 731.85L542.281 734.367V734.376L542.971 737.642L543.956 737.626L549.126 737.516L546.971 716.813L544.824 716.729L544.041 716.695L542.357 716.628L536.076 716.383H536.067L535.63 716.367L533.946 716.299L533.247 716.274L533.373 722.151L527.177 726.621L525.484 727.842L520.525 731.42C519.549 732.128 518.976 733.264 519.001 734.468L519.001 734.468H519.001Z" fill="#2F2E41"/>
<path d="M597.412 687.586L602.085 700.166L602.092 700.199L603.642 704.385L606.141 711.104L606.143 711.112L607.191 713.943L608.755 718.152L614.242 716.835L615.878 716.435L616.738 716.23L615.82 712.415L613.397 702.292L609.187 684.76L609.113 684.777L607.475 685.168L600.933 686.741L599.295 687.133L597.412 687.586Z" fill="#FFB6B6"/>
<path d="M594.369 735.248C594.851 737.22 596.831 738.434 598.796 737.963L601.416 737.331L603.054 736.939L609.598 735.375L611.244 734.981L614.666 734.158L616.039 727.844L617.093 730.19L617.095 730.198L618.465 733.243L619.424 733.017L624.452 731.809L617.936 712.04L615.82 712.415L615.048 712.549L613.388 712.842L607.199 713.941L607.191 713.943L606.76 714.02L605.1 714.312L604.412 714.437L605.787 720.152L600.685 725.84L599.292 727.393L595.209 731.945C594.406 732.845 594.088 734.077 594.369 735.248H594.369H594.369Z" fill="#2F2E41"/>
<path d="M546.106 439.017L540.25 463.768C557.908 473.55 575.357 476.764 582.935 465.098L592.853 443.379L546.106 439.017H546.106Z" fill="#FFB6B6"/>
<path d="M581.493 465.301C580.482 472.081 565.818 458.639 540.495 463.143L523.233 520.684V702.657L555.599 704.095L547.688 607.714L563.871 562.76L558.836 605.916L594.853 704.095H620.95L593.361 616.705L597.676 539.744C597.676 539.744 607.746 509.535 589.764 485.08L581.493 465.301H581.493Z" fill="#2F2E41"/>
<path d="M586.528 460.266L541.357 449.35L541.062 435.017C541.062 435.017 533.187 427.643 541.103 414.559L560.893 381.851L562.726 375.685L578.086 372.973L594.559 390.516L597.309 434.807L586.528 460.266L586.528 460.266V460.266Z" fill="#E6E6E6"/>
<path d="M528.067 366.46L513.288 391.586L502.611 388.088L521.396 362.359C521.032 361.275 520.966 360.077 521.277 358.888C522.127 355.631 525.458 353.68 528.715 354.53C531.973 355.381 533.924 358.711 533.073 361.969C532.436 364.406 530.411 366.112 528.067 366.46V366.46Z" fill="#FFB6B6"/>
<path d="M575.642 401.01L577.701 391.62C577.701 391.62 576.096 385.532 565.01 385.896C553.923 386.26 516.121 391.339 516.121 391.339L520.132 385.055L521.256 379.013L510.465 375.805L505.272 379.603L503.799 383.555L504.757 384.847L502.011 387.256C499.258 394.022 502.311 401.757 508.943 404.819L511.645 406.71L515.334 407.938L519.363 406.696L575.642 401.01L575.642 401.01H575.642V401.01Z" fill="#E6E6E6"/>
<path d="M613.616 495.57L603.838 468.109L613.373 462.167L621.043 493.086C622.108 493.504 623.069 494.222 623.781 495.223C625.733 497.967 625.091 501.773 622.348 503.724C619.604 505.676 615.798 505.034 613.847 502.291C612.386 500.238 612.379 497.59 613.616 495.57V495.57Z" fill="#FFB6B6"/>
<path d="M580.926 392.977L589.044 387.827C589.044 387.827 595.314 387.252 598.768 397.793C602.221 408.333 611.515 451.965 611.515 451.965L615.09 457.175L615.369 458.758L618.503 463.21L617.376 464.82L621.633 467.17L605.731 476.349L600.425 467.649L601.308 463.324L598.606 461.433L596.189 458.387L595.976 454.177L580.926 392.977L580.926 392.977V392.977Z" fill="#E6E6E6"/>
<path d="M558.387 363.284L567.747 371.19L558.356 342.051L556.963 343.084C555.511 344.162 554.779 345.958 555.064 347.743L558.387 363.284L558.387 363.284Z" fill="#2F2E41"/>
<path d="M570.353 369.812C579.005 369.812 586.019 362.798 586.019 354.146C586.019 345.494 579.005 338.479 570.353 338.479C561.701 338.479 554.687 345.494 554.687 354.146C554.687 362.798 561.701 369.812 570.353 369.812Z" fill="#FFB6B6"/>
<path d="M581.016 385.306C581.016 385.306 572.256 385.754 562.857 383.937C562.147 381.776 562.126 379.384 562.864 377.231C562.225 378.907 556.963 385.306 556.963 385.306C557.757 378.27 557.674 372.778 561.222 368.259C566.87 361.076 559.67 353.341 555.428 345.698C554.971 343.602 555.927 341.447 557.791 340.38C557.797 338.093 568.786 331.11 576.203 335.326C582.534 332.091 596.185 340.951 597.619 349.075C605.216 354.189 607.911 384.296 599.25 380.595L581.016 385.306L581.016 385.306Z" fill="#2F2E41"/>
<path d="M325.27 529.862L313.183 529.862L317.079 561.449L325.268 561.449L325.27 529.862Z" fill="#A0616A"/>
<path d="M314.354 562.186C312.72 563.924 299.9 570.493 300.551 573.532C300.551 574.522 300.966 575.415 301.638 576.045C302.254 576.64 303.092 577 304.012 577H319.428L319.906 576.01L322.086 571.511L322.931 576.01L323.118 577H328.933L328.849 576.003L327.299 557.41L325.271 557.285L316.507 556.766L314.354 556.635V562.186L314.354 562.186H314.354Z" fill="#2F2E41"/>
<path d="M274.047 449.316L266.265 458.564L292.943 475.92L298.216 469.654L274.047 449.316Z" fill="#A0616A"/>
<path d="M291.753 478.48C292.03 480.848 288.803 494.887 291.547 496.346C292.304 496.983 293.255 497.24 294.169 497.132C295.022 497.044 295.836 496.635 296.429 495.93L306.354 484.135L305.905 483.132L303.866 478.566L307.852 480.817L308.73 481.312L312.474 476.862L311.657 476.284L296.432 465.5L295.031 466.971L288.991 473.343L287.505 474.905L291.753 478.48V478.48V478.48Z" fill="#2F2E41"/>
<path d="M261.609 310.135L261.854 348.322L300.978 375.25L310.936 530.744L327.297 531.562L333.023 484.116L349.798 391.543C349.798 391.543 348.566 385.952 350.794 386.046C353.022 386.141 349.384 380.225 351.854 380.196C352.626 380.187 353.233 378.429 353.704 376.016C355.214 368.268 354.282 360.243 351.244 352.957L333.39 310.135C310.024 321.832 286.041 320.673 261.609 310.135V310.135H261.609Z" fill="#2F2E41"/>
<path d="M274.62 340.72L306.543 370.295C306.543 370.295 271.67 385.134 274.852 387.268C278.035 389.403 270.84 388.692 270.84 388.692L249.087 405.28L236.61 411.38L281.346 449.635L263.812 464.243L211.293 424.116C203.858 421.077 199 413.844 199 405.812V405.812C199 398.684 202.837 391.289 209.042 387.781L261.854 348.322L274.62 340.72L274.62 340.72H274.62Z" fill="#2F2E41"/>
<path d="M266.588 280.619C263.959 279.995 265.944 279.607 266.456 279.534C266.969 279.461 266.762 277.153 266.266 277.955C265.769 278.758 261.644 239.719 261.644 239.719C258.593 231.881 249.458 216.34 256.945 212.528L283.123 200.257L307.664 201.075L333.841 211.71C338.54 216.359 333.733 228.477 331.153 236.194L328.79 252.757C328.79 252.757 324.024 272.245 325.838 273.448C327.651 274.651 325.606 275.071 325.606 275.071C325.606 275.071 322.388 273.881 325.282 277.344C322.631 281.985 331.05 309.682 334.104 309.033C318.502 324.678 287.118 319.671 263.753 304.124C263.753 304.124 269.216 281.243 266.588 280.619L266.588 280.619Z" fill="#16F2F7"/>
<path d="M351.545 257.216L314.951 260.67L315.369 273.532L361.599 269.225C367.17 268.706 371.109 263.536 370.118 258.029C368.13 246.972 348.271 222.144 344.945 217.123C339.834 209.407 332.902 234.596 332.902 234.596L351.545 257.216V257.216Z" fill="#A0616A"/>
<path d="M310.561 274.843C315.531 274.843 319.559 270.815 319.559 265.845C319.559 260.875 315.531 256.846 310.561 256.846C305.591 256.846 301.562 260.875 301.562 265.845C301.562 270.815 305.591 274.843 310.561 274.843Z" fill="#A0616A"/>
<path d="M266.265 210.537H266.265C266.265 210.537 266.44 230.893 258.213 226.653C252.859 223.893 215.001 215.655 207.869 206.975C204.318 202.652 205.232 196.217 209.841 193.045L248.09 166.724L254.732 177.746L224.477 198.62L266.265 210.537H266.265V210.537Z" fill="#A0616A"/>
<path d="M256.038 180.085C261.008 180.085 265.036 176.056 265.036 171.087C265.036 166.117 261.008 162.088 256.038 162.088C251.068 162.088 247.04 166.117 247.04 171.087C247.04 176.056 251.068 180.085 256.038 180.085Z" fill="#A0616A"/>
<path d="M197.386 588.244L197.386 588.244C197.887 590.284 198.14 592.385 198.105 594.494L198.105 594.495C197.55 595.182 196.99 595.863 196.435 596.55C196.414 596.576 196.393 596.603 196.366 596.629C195.273 597.971 194.179 599.324 193.085 600.666C194.427 600.914 195.801 600.993 197.164 600.909C197.117 601.073 197.069 601.242 197.016 601.406H182.275C180.489 597.549 179.1 593.501 178.149 589.359H178.143C169.444 592.336 161.312 591.366 159.418 581.143C157.474 579.024 155.921 576.567 154.806 573.92C154.843 573.915 154.874 573.91 154.911 573.904L154.963 573.897C157.23 573.547 157.892 570.58 155.978 569.314C155.643 569.092 155.299 568.882 154.948 568.684C154.336 568.341 153.702 568.034 153.052 567.77L153.034 567.654C152.667 565.218 155.359 563.556 157.46 564.842C161.825 567.513 167.541 568.737 171.586 572.061C174.302 574.29 176.173 577.508 176.844 580.953L176.86 581.064C176.595 577.936 176.574 574.787 176.817 571.654C177.013 569.17 177.361 566.698 177.863 564.251C178.423 561.483 179.179 558.751 180.125 556.088C179.919 555.988 179.718 555.882 179.512 555.777C170.177 555.585 163.639 551.32 166.667 539.609C166.35 538.378 166.134 537.125 166.007 535.863L166.058 535.855C168.326 535.505 168.987 532.538 167.074 531.272C166.738 531.05 166.395 530.84 166.044 530.642C166.049 530.598 166.053 530.555 166.058 530.511C166.558 525.969 172.372 524.406 175.207 527.988C177.568 530.971 180.248 533.876 181.678 537.326C182.934 540.354 183.671 545.051 183.172 548.95C184.938 545.442 187.033 542.103 189.456 538.996C189.588 538.827 189.725 538.663 189.857 538.494C188.573 536.439 188.372 533.841 186.909 531.921C184.609 528.904 184.645 525.766 188.394 523.874C190.148 519.379 193.509 518.802 195.949 522.11C196.44 522.775 197.244 523.113 197.693 523.795C197.45 524.096 198.343 529.005 198.665 528.962C198.475 530.109 198.073 531.234 197.561 532.28C196.134 535.181 193.772 537.601 190.94 539.149C185.049 546.488 180.965 555.275 179.079 564.5C178.73 566.206 178.46 567.929 178.265 569.662C178.027 571.78 177.911 573.905 177.911 576.029C177.911 584.482 179.765 592.888 183.29 600.587C182.914 598.928 182.819 597.205 183.031 595.514C183.502 591.684 185.417 588.056 186.921 584.433C188.616 580.352 194.408 580.324 196.117 584.399C196.134 584.44 196.151 584.48 196.168 584.521L196.04 585.026C194.762 586.25 195.696 588.35 197.386 588.244V588.244H197.386Z" fill="#F2F2F2"/>
<path d="M421.279 594.244L421.279 594.244C420.778 596.284 420.525 598.385 420.56 600.494L420.56 600.495C421.115 601.182 421.675 601.863 422.23 602.55C422.251 602.576 422.272 602.603 422.298 602.629C423.392 603.971 424.486 605.324 425.58 606.666C424.237 606.914 422.864 606.993 421.501 606.909C421.548 607.073 421.596 607.242 421.649 607.406H436.39C438.176 603.549 439.565 599.501 440.516 595.359H440.522C449.221 598.336 457.353 597.366 459.247 587.143C461.191 585.024 462.744 582.567 463.859 579.92C463.822 579.915 463.79 579.91 463.753 579.904L463.702 579.897C461.434 579.547 460.773 576.58 462.687 575.314C463.022 575.092 463.366 574.882 463.716 574.684C464.329 574.341 464.963 574.034 465.613 573.77L465.631 573.654C465.998 571.218 463.306 569.556 461.205 570.842C456.84 573.513 451.124 574.737 447.078 578.06C444.363 580.29 442.492 583.508 441.821 586.953L441.805 587.064C442.07 583.936 442.091 580.787 441.848 577.654C441.652 575.17 441.303 572.698 440.802 570.251C440.242 567.483 439.486 564.751 438.54 562.088C438.746 561.988 438.947 561.882 439.153 561.777C448.488 561.585 455.026 557.32 451.997 545.609C452.314 544.378 452.531 543.125 452.658 541.863L452.607 541.855C450.339 541.505 449.678 538.538 451.591 537.272C451.927 537.05 452.27 536.84 452.621 536.642L452.607 536.511C452.107 531.969 446.293 530.406 443.458 533.988C441.097 536.971 438.417 539.876 436.987 543.326C435.731 546.354 434.994 551.051 435.493 554.95C433.727 551.442 431.632 548.103 429.209 544.996C429.077 544.827 428.94 544.663 428.808 544.494C430.092 542.439 430.293 539.841 431.756 537.921C434.056 534.904 434.02 531.766 430.271 529.874C428.517 525.379 425.155 524.802 422.716 528.11C422.225 528.775 421.421 529.113 420.972 529.795C421.215 530.096 420.322 535.005 420 534.962C420.19 536.109 420.592 537.234 421.104 538.28C422.531 541.181 424.893 543.601 427.725 545.149C433.616 552.488 437.7 561.275 439.586 570.5C439.935 572.206 440.204 573.929 440.4 575.662C440.638 577.78 440.754 579.905 440.754 582.029C440.754 590.482 438.899 598.888 435.375 606.587C435.75 604.928 435.846 603.205 435.634 601.514C435.163 597.684 433.248 594.056 431.744 590.433C430.049 586.352 424.257 586.324 422.548 590.399C422.531 590.44 422.514 590.48 422.497 590.521L422.625 591.026C423.903 592.25 422.969 594.35 421.279 594.244V594.244H421.279V594.244Z" fill="#F2F2F2"/>
<path d="M298.797 196.775C291.037 193.907 275.311 203.603 276.67 194.037C277.748 186.412 271.737 226.509 270.246 226.045C267.625 225.227 274.931 171.343 273.393 167.87C273.196 167.42 272.967 166.946 272.696 166.452C272.416 165.923 272.099 165.37 271.741 164.786C271.732 164.771 271.718 164.756 271.709 164.741C270.47 151.153 283.755 139.986 300.6 141.383H300.614C302.325 141.517 304.092 141.802 305.868 142.211H314.238C315.142 142.211 316.027 142.266 316.904 142.366C320.277 142.76 323.42 143.913 326.178 145.639C329.885 147.965 332.194 152.096 332.556 156.198C332.841 159.337 331.983 162.46 329.752 164.741L329.725 164.746C330.019 166.008 330.225 167.301 330.349 168.618C330.445 169.566 330.487 170.529 330.487 171.497C330.487 171.697 330.487 171.901 330.473 172.096C330.248 184.102 322.952 194.336 312.664 198.628C312.577 198.664 312.484 198.701 312.388 198.739C309.633 199.808 308.022 199.486 305.168 198.79C302.972 198.255 300.861 197.538 298.797 196.775H298.797L298.797 196.775Z" fill="#2F2E41"/>
<path d="M298.575 193.041C309.518 193.041 318.388 184.17 318.388 173.228C318.388 162.285 309.518 153.414 298.575 153.414C287.632 153.414 278.762 162.285 278.762 173.228C278.762 184.17 287.632 193.041 298.575 193.041Z" fill="#A0616A"/>
<path d="M281.346 164.849C281.346 164.501 281.355 164.161 281.378 163.812C281.905 153.749 290.133 149.371 300.37 148.963C300.641 148.949 300.912 148.94 301.183 148.94H308.534C308.534 148.151 308.795 147.426 309.25 146.848C309.516 146.49 309.855 146.191 310.236 145.967C310.245 145.967 310.245 145.962 310.25 145.962C310.773 145.655 311.374 145.476 312.021 145.476C312.122 145.476 312.232 145.485 312.347 145.489C313.926 145.636 315.467 145.875 316.986 146.191C317.73 146.347 318.473 146.526 319.198 146.724C319.258 146.737 319.308 146.751 319.368 146.765C321.763 147.426 324.071 148.288 326.26 149.353C328.706 150.831 330.84 152.749 332.556 154.997C332.84 157.884 331.982 160.756 329.752 162.853L329.725 162.858C330.018 164.019 330.225 165.207 330.349 166.419C330.445 167.291 330.486 168.176 330.486 169.066C330.486 169.25 330.486 169.438 330.473 169.617C330.248 180.658 321.373 222.557 311.085 226.504C311.686 223.847 313.793 189.284 314.1 188.312C318.817 173.504 315.33 169.36 308.534 164.849H301.935C300.65 162.922 300.017 160.563 300.187 158.251C299.274 160.339 298.769 162.587 298.677 164.849C295.401 169.172 290 168.837 283.369 165.831C283.02 165.675 282.676 165.51 282.332 165.345C282.002 165.184 281.676 165.024 281.345 164.849H281.345V164.849L281.346 164.849Z" fill="#2F2E41"/>
<path d="M324.807 165.646C332.016 165.646 337.86 159.802 337.86 152.592C337.86 145.383 332.016 139.539 324.807 139.539C317.598 139.539 311.754 145.383 311.754 152.592C311.754 159.802 317.598 165.646 324.807 165.646Z" fill="#2F2E41"/>
<path d="M316.435 130.756C322.013 135.323 330.508 133.305 332.234 140.305C333.96 147.304 329.685 154.377 322.685 156.103C315.686 157.829 308.369 153.61 306.887 146.555C304.887 137.041 308.544 124.296 316.435 130.756V130.756Z" fill="#2F2E41"/>
<g clip-path="url(#clip0_8_116)">
<path d="M427.625 102C428.133 105.254 430.745 104.141 432.33 104.193C436.474 104.329 440.634 104.162 444.782 103.984C447.701 103.858 449.315 104.966 448.972 108.019C448.324 113.778 447.937 119.537 447.853 125.341C447.817 127.823 445.77 129.633 443.291 129.858C439.823 130.173 436.276 130.231 432.816 129.879C428.262 129.416 430.809 125.394 429.615 122.723C427.688 127.206 425.41 130.619 419.684 130.128C415.243 129.748 415.388 126.193 413.71 123.634C409.202 128.681 404.211 132.247 397.152 128.731C396.021 128.167 395.165 128.824 394.445 129.266C392.874 130.229 391.127 130.285 389.611 129.923C380.387 127.723 371.194 130.676 362.017 129.891C358.712 129.608 355.318 128.869 355.968 124.013C356.559 119.603 356.716 115.136 357.258 110.717C357.67 107.354 359.273 104.582 362.111 102.36C363.389 102 364.778 102 366.583 102C368.349 103.15 369.844 103.765 371.943 103.19C373.046 102.974 373.888 102.979 374.785 102.217C375.444 102 375.889 102 376.667 102C377.124 102.122 377.248 102.244 377.567 102.539C378.133 102.735 378.504 102.738 379.176 102.806C382.554 104.348 385.536 103.667 388.748 102.237C390.389 102 391.778 102 393.583 102C396.058 103.634 398.257 103.321 400.747 102.236C402.389 102 403.778 102 405.583 102C409.405 104.274 412.951 103.407 416.75 102.235C417.75 102 418.5 102 419.625 102C421.376 103.486 422.853 103.978 424.767 102.23C425.75 102 426.5 102 427.625 102Z" fill="#862561"/>
<path d="M373.224 103.937C373.077 103.522 373.247 103.064 373.209 102.303C373.444 102 373.889 102 374.667 102C374.76 102.82 374.581 103.687 373.224 103.937Z" fill="#8E1D71"/>
<path d="M408.484 160.928C406.152 158.654 404.24 156.394 401.483 159.96C400.531 161.19 398.973 161.35 397.822 160.923C392.078 158.787 386.225 162.265 380.767 160.797C374.223 159.037 368.031 160.879 361.701 161.064C357.679 161.182 356.199 159.112 356.087 155.786C355.879 149.638 356.045 143.478 356.004 137.324C355.989 135.188 357.164 133.886 358.908 133.087C360.078 132.551 361.408 132.055 362.663 132.061C370.862 132.104 379.005 133.19 387.282 132.206C391.418 131.715 395.188 134.152 396.837 139.366C399.194 134.799 401.714 131.313 407.351 131.894C410.983 132.269 411.756 134.896 413.463 137.574C415.471 133.923 418.198 131.186 422.522 132.086C426.403 132.894 430.474 130.623 434.093 132.816C435.655 133.764 436.445 133.488 437.977 132.755C443.566 130.083 446.958 132.358 446.989 138.507C447.015 143.497 447.013 148.487 446.99 153.478C446.963 159.368 444.965 161.79 439.252 160.785C435.213 160.074 431.517 161.044 427.667 161.007C421.407 160.948 415.146 160.979 408.484 160.928Z" fill="#852460"/>
<path d="M381.734 113.326C382.619 106.555 389.339 104.6 395.165 106.686C396.456 107.149 397.519 107.809 399.114 107.028C403.795 104.736 407.91 105.843 411.625 109.897C413.499 110.99 413.893 112.594 414.315 114.607C414.315 115.861 414.106 116.648 413.39 117.683C411.256 120.486 411.041 124.316 407.075 125.546C403.355 127.382 400.017 126.425 396.335 124.989C395.378 125.069 394.799 125.196 394.082 125.588C384.602 127.936 378.903 122.382 381.734 113.326Z" fill="#FEFEFE"/>
<path d="M360.356 120.257C359.971 119.556 359.906 119.131 359.799 118.385C359.579 117.6 359.518 117.119 359.716 116.291C359.874 115.958 360.007 115.945 360.057 115.99C361.881 114.184 364.222 113.769 366.524 114.104C370.302 114.653 374.13 114.164 378.314 115.088C379.889 116.143 380.142 117.327 379.879 119.088C379.329 120.369 378.587 120.776 377.32 121.057C375.939 121.108 374.968 120.749 373.617 121.086C371.49 121.631 369.702 121.821 367.485 121.539C366.548 121.497 366.009 121.491 365.057 121.504C363.198 121.688 361.842 121.493 360.356 120.257Z" fill="#FF769B"/>
<path d="M379.354 116.145C373 116.004 367.013 116.009 360.567 116.025C360.078 115.863 360.05 115.692 359.99 115.262C359.96 113.573 360.2 112.19 361.093 110.564C363.682 109.029 365.943 108.974 368.509 110.685C368.842 110.983 369.004 111.441 369.048 111.68C369.925 112.916 370.875 112.263 372.167 112.114C374.706 112.964 377.178 111.898 379.586 113.428C380.318 114.015 380.527 114.474 380.435 115.404C380.127 115.953 379.924 116.122 379.354 116.145Z" fill="#FD82A0"/>
<path d="M420.791 113.7C421.528 113.948 421.909 113.948 422.577 113.948C424.509 112.643 426.262 112.209 428.535 113.639C429.393 116.113 428.151 117.685 427.02 119.665C425.28 121.683 423.192 121.737 420.71 121.792C420.066 121.77 419.809 121.728 419.198 121.529C417.371 119.895 416.824 117.826 415.441 115.841C415.321 114.891 415.448 114.365 416.03 113.589C417.737 112.584 419.102 112.598 420.791 113.7Z" fill="#FE789C"/>
<path d="M445.222 117.877C444.575 118.364 444.063 118.602 443.259 118.868C441.635 119.381 440.241 119.664 438.544 120.227C436.632 120.516 435.119 120.526 433.528 119.223C433.203 118.509 433.148 118.071 433.149 117.305C433.277 116.815 433.347 116.653 433.3 116.255C433.169 115.825 433.156 115.633 433.213 115.16C434.106 112.474 436.411 112.594 438.646 111.855C439.282 111.721 439.54 111.682 440.193 111.618C441.924 111.577 443.262 111.558 444.703 112.711C445.283 113.754 445.551 114.547 445.796 115.666C445.512 116.506 445.506 117.085 445.222 117.877Z" fill="#FE7C9E"/>
<path d="M433.149 119.314C434.889 118.964 436.519 118.98 438.562 118.992C440.063 119.37 441.228 119.466 442.638 119.98C444.954 120.258 446.044 121.215 445.72 123.685C443.945 125.886 441.408 124.296 439.292 125.762C437.619 126.06 436.214 126.12 434.388 126.186C433.791 125.991 433.616 125.789 433.403 125.189C433.256 123.087 433.147 121.383 433.149 119.314Z" fill="#FE6796"/>
<path d="M436.595 106.283C438.92 106.043 440.894 106.032 442.859 105.904C447.599 105.594 447.844 107.758 445.537 111.424C443.961 112.027 442.649 111.995 440.946 111.994C440.288 111.989 440.024 111.986 439.364 111.969C437.302 111.845 435.822 111.328 434.522 109.662C434.08 107.757 434.518 106.679 436.595 106.283Z" fill="#FF94A7"/>
<path d="M428.974 113.752C427.154 113.982 425.44 113.979 423.294 113.963C423.221 112.878 423.677 111.828 423.921 110.731C425.055 105.631 425.795 105.246 430.944 107.631C431.555 108.266 431.808 108.692 431.95 109.577C431.895 111.044 431.269 111.807 430.19 112.715C429.632 113.146 429.356 113.333 428.974 113.752Z" fill="#FE8CA4"/>
<path d="M421.075 113.569C419.633 113.989 418.119 114.031 416.153 114.109C412.267 113.68 413.389 110.726 412.804 108.357C417.883 104.754 418.711 105.047 420.043 110.447C420.274 111.383 420.679 112.276 421.075 113.569Z" fill="#FE8CA3"/>
<path d="M412.647 108.175C414.363 109.582 413.469 112.172 415.457 113.911C415.804 114.576 415.906 115.006 416.108 115.753C417.203 117.308 417.92 118.679 418.324 120.569C419.076 122.077 419.879 123.173 420.514 124.737C420.54 125.295 420.497 125.519 420.234 126.001C417.504 127.667 417.283 125.351 416.631 124.053C415.745 122.289 415.107 120.401 414.212 118.243C413.167 117.34 413.642 116.399 413.335 115.341C412.811 113.632 412.412 112.212 411.981 110.415C412.11 109.483 412.27 108.928 412.647 108.175Z" fill="#BC3D6F"/>
<path d="M379.728 116.363C379.932 115.568 379.954 115.118 379.929 114.333C379.807 113.792 379.732 113.585 379.9 113.156C380.559 112.952 380.976 112.97 381.705 112.982C382.151 114.957 382.084 116.977 382.455 118.913C383.404 123.869 386.778 126.024 393.522 125.904C389.456 128.666 385.614 126.785 381.517 124.145C380.248 123.424 379.747 122.529 379.748 120.995C379.95 119.289 379.314 118.027 379.728 116.363Z" fill="#BC3F70"/>
<path d="M366.657 120.394C368.969 120.022 371.016 120.007 373.501 119.988C374.12 120.154 374.302 120.324 374.646 120.833C375.084 122.534 374.646 123.644 373.307 124.759C371.912 126.513 370.256 126.09 368.365 126.193C366.123 124.757 365.295 123.034 366.657 120.394Z" fill="#FB6897"/>
<path d="M371.822 110.389C372.077 109.593 372.185 109.227 372.347 108.581C372.325 107.958 372.384 107.645 372.758 107.167C377.166 103.974 379.038 106.017 379.845 110.619C377.804 113.021 375.423 112.69 372.607 111.791C372.038 111.305 371.855 111.063 371.822 110.389Z" fill="#FF93A6"/>
<path d="M368.851 110.604C366.595 110.983 364.348 110.983 361.679 110.976C360.25 110.46 360.574 109.54 360.791 108.362C365.88 104.363 366.933 104.661 368.851 110.604Z" fill="#FE93A7"/>
<path d="M420.419 126.229C419.989 126.061 419.967 125.862 419.902 125.366C420.659 123.801 418.911 122.746 419.79 121.239C421.807 119.31 424.028 120.261 426.453 119.991C426.611 123.769 425.477 126.691 420.419 126.229Z" fill="#FD6595"/>
<path d="M359.953 120.407C361.435 119.993 362.834 120.005 364.654 120.026C366.06 121.118 365.988 122.458 365.924 124.174C365.739 124.799 365.614 125.032 365.219 125.556C360.606 126.862 359.196 124.903 359.953 120.407Z" fill="#FD6796"/>
<path d="M380.615 119.775C380.956 121.078 380.999 122.176 381.103 123.685C380.128 124.976 379.329 126.265 377.34 126.097C376.647 125.737 376.237 125.497 375.534 125.073C374.75 123.89 374.945 122.917 375.091 121.597C375.244 121.02 375.341 120.8 375.675 120.308C376.689 120.023 377.465 120.01 378.629 119.994C379.382 119.638 379.818 119.507 380.615 119.775Z" fill="#FF6A98"/>
<path d="M434.666 108.777C436.202 109.54 437.405 110.077 438.824 110.872C439.375 111.494 439.5 111.924 439.229 112.69C437.67 114.657 435.434 113.525 433.588 114.734C433.283 114.88 433.015 114.504 432.928 114.29C432.358 112.833 431.725 111.618 432.188 109.82C432.455 109.214 432.616 108.999 433.152 108.635C433.796 108.509 434.064 108.53 434.666 108.777Z" fill="#FF88A2"/>
<path d="M371.93 111.197C374.484 110.977 376.731 110.984 379.399 110.987C379.89 111.416 379.962 111.849 380.088 112.608C380.096 113.11 380.05 113.287 379.943 113.731C377.424 113.776 374.89 114.531 372.218 113.136C371.598 112.426 371.494 111.951 371.93 111.197Z" fill="#FE84A0"/>
<path d="M396.204 125.235C399.466 123.799 402.504 127.477 406.472 125.883C403.343 128.022 399.875 127.51 396.204 125.235Z" fill="#B94071"/>
<path d="M365.183 125.155C365.041 123.59 365.037 122.222 365.054 120.444C365.485 120.023 365.896 120.011 366.615 120.018C367.255 121.821 367.587 123.605 367.947 125.784C367.501 126.839 366.947 126.976 366.145 126.235C365.715 125.863 365.488 125.638 365.183 125.155Z" fill="#BD3C6F"/>
<path d="M375.511 120.867C375.819 122.157 375.904 123.183 376.008 124.594C376.168 125.211 376.309 125.442 376.241 126.02C374.571 127.447 374.191 125.962 373.235 125.131C373.323 123.896 373.647 122.816 374.037 121.401C374.404 120.669 374.803 120.527 375.511 120.867Z" fill="#B93B6E"/>
<path d="M439.435 126.061C440.044 122.616 442.852 124.508 445.247 124.03C444.762 127.658 441.834 125.584 439.435 126.061Z" fill="#FB76A2"/>
<path d="M442.982 119.782C441.54 121.28 440.22 121.502 439.054 119.317C440.005 117.841 441.212 117.81 442.745 118.661C442.977 119.093 442.986 119.29 442.982 119.782Z" fill="#D95786"/>
<path d="M439.852 111.515C441.558 111.3 442.99 111.303 444.829 111.472C445.17 111.929 445.109 112.221 445.034 112.738C443.638 112.962 442.261 112.962 440.471 112.936C439.656 112.615 439.483 112.228 439.852 111.515Z" fill="#BC3E6F"/>
<path d="M360.751 108.235C361.049 108.746 361.079 109.491 361.184 110.603C361.013 112.161 360.768 113.353 360.241 114.774C357.996 112.653 360.382 110.653 360.751 108.235Z" fill="#BB3C6E"/>
<path d="M433.327 108.72C433.124 110.473 433.08 111.865 432.939 113.667C432.548 113.934 432.313 113.725 432.022 113.241C431.238 112.375 431.115 111.576 431.223 110.39C431.127 109.602 431.109 109.121 431.129 108.28C431.603 107.68 432.038 107.44 432.694 107.081C433.315 107.341 433.506 107.808 433.327 108.72Z" fill="#BB3C6E"/>
<path d="M435.044 108.703C435 109.003 434.508 109.01 434.261 109.006C433.376 108.351 433.518 107.547 433.829 106.454C434.881 106.09 435.677 106.032 436.712 106.04C436.33 106.873 435.709 107.638 435.044 108.703Z" fill="#FEB2BE"/>
<path d="M430.983 110.357C431.9 110.681 431.983 111.515 431.935 112.71C431.464 113.018 431.02 113.005 430.241 112.975C430.212 112.184 430.516 111.407 430.983 110.357Z" fill="#932C65"/>
<path d="M372.178 110.715C372.146 111.385 372.056 111.801 371.95 112.533C371.04 113.007 370.14 113.213 369.216 112.235C370.348 112.084 370.871 111.144 371.726 110.147C372.02 110.126 372.07 110.293 372.178 110.715Z" fill="#C34876"/>
<path d="M433.155 124.902C433.503 125.008 433.64 125.225 433.872 125.817C433.546 126.333 432.946 126.719 432.739 126.568C432.023 126.045 432.361 125.471 433.155 124.902Z" fill="#BB3C6E"/>
<path d="M433.836 106.188C434.051 106.861 434.018 107.574 434 108.644C434.015 109.002 433.59 109.031 433.379 109.056C433.106 108.61 433.043 108.14 432.947 107.315C433.138 106.717 433.362 106.472 433.836 106.188Z" fill="#E56F90"/>
<path d="M413.137 115.417C413.485 115.803 413.759 116.554 414.047 117.613C414.061 117.921 413.6 117.974 413.368 117.991C413.112 117.266 413.088 116.524 413.137 115.417Z" fill="#9B376D"/>
<path d="M359.693 116.131C359.888 116.429 359.903 116.901 359.837 117.719C359.217 117.541 359.043 116.967 359.693 116.131Z" fill="#BC3B6E"/>
<path d="M445.341 117.947C445.194 117.564 445.3 117.001 445.59 116.215C445.713 116.584 445.654 117.176 445.341 117.947Z" fill="#D86B92"/>
<path d="M365.018 125.18C365.353 125.094 365.601 125.302 365.894 125.805C365.824 126.01 365.647 125.992 365.21 125.911C364.951 125.848 364.991 125.402 365.018 125.18Z" fill="#E65186"/>
<path d="M376.274 126.304C376.025 126.137 376.017 125.905 376.018 125.327C376.328 125.14 376.577 125.358 376.882 125.861C376.989 126.089 376.515 126.241 376.274 126.304Z" fill="#E14F84"/>
<path d="M377.078 103.255C376.985 103.134 377.465 103.081 377.696 103.148C377.928 103.216 377.577 103.483 377.577 103.483C377.577 103.483 377.171 103.377 377.078 103.255Z" fill="#8E1D71"/>
<path d="M433.127 116.259C433.492 116.209 433.575 116.462 433.32 116.876C433.207 116.977 433.071 116.5 433.127 116.259Z" fill="#FE6796"/>
<path d="M372.735 107.148C372.967 107.31 372.905 107.63 372.566 108.115C372.453 107.977 372.504 107.652 372.735 107.148Z" fill="#C34876"/>
<path d="M434.311 152.846C433.94 154.467 433.822 155.846 432.336 156.981C431.758 157.334 431.469 157.507 430.935 157.712C429.81 157.703 428.936 157.672 427.734 157.658C425.115 156.573 425.656 154.439 425.488 152.53C425.218 149.472 426.243 146.302 424.493 142.996C423.949 141.863 423.853 141.052 423.989 139.825C424.687 138.026 425.553 136.772 426.804 135.332C430.755 134.247 433.714 135.014 435.662 138.932C437.067 139.077 437.018 138.026 437.661 137.175C438.882 134.029 441.322 134.727 443.288 135.095C445.547 135.518 445.01 137.711 444.87 139.211C444.323 145.027 446.319 151.013 443.388 156.919C442.877 157.234 442.691 157.315 442.211 157.325C441.191 157.204 440.467 157.154 439.381 157.071C436.736 156.513 436.662 154.254 435.644 152.736C435.193 153.29 435.293 149.639 434.311 152.846Z" fill="#FC7B9E"/>
<path d="M359.42 155.895C361.031 149.616 357.143 143.82 359.041 137.52C359.212 136.845 359.343 136.564 359.765 136.161C365.823 132.823 370.901 133.635 374.976 138.654C377.273 140.995 375.924 144.001 377.289 146.702C377.476 148.904 377.785 150.709 376.198 152.57C372.194 157.496 367.04 157.237 361.468 157.065C360.374 156.982 359.846 156.697 359.42 155.895Z" fill="#FC7A9D"/>
<path d="M377.661 137.352C377.83 136.787 377.878 136.627 378.016 136.233C378.235 135.836 378.364 135.673 378.745 135.328C381.39 134.517 383.787 133.891 386.297 134.264C392.413 135.174 394.805 138.223 394.781 145.222C392.303 146.623 389.899 148.07 392.103 151.203C394.627 154.79 392.689 156.001 389.346 157.081C387.713 157.19 386.8 155.298 385.025 156.525C384.375 156.759 384.005 156.892 383.351 157.105C382.88 157.255 382.692 157.325 382.214 157.319C381.194 157.198 380.465 157.154 379.371 157.09C378.842 156.896 378.679 156.722 378.538 156.19C378.552 155.185 378.543 154.538 378.453 153.577C377.287 151.535 377.691 149.495 377.109 147.234C376.475 144.616 376.232 142.396 376.992 139.77C377.414 138.871 377.535 138.326 377.661 137.352Z" fill="#FC7A9D"/>
<path d="M395.645 154.415C397.149 149.926 398.556 145.871 400.014 141.442C400.447 140.594 400.493 140.005 400.789 139.207C400.958 138.971 401.088 138.592 401.121 138.394C401.239 137.885 401.388 137.606 401.708 137.149C405.266 133.35 409.163 133.903 410.652 138.214C412.038 142.226 413.379 146.253 414.928 150.591C417.093 152.952 418.485 154.952 414.314 156.745C413.951 156.944 414.003 156.995 413.981 156.965C413.802 157.085 413.645 157.235 413.168 157.433C410.389 157.88 409.348 156.299 408.25 154.25C406.921 154.072 405.877 154.042 404.441 154.036C403.791 154.276 403.52 154.477 402.994 154.721C402.034 155.49 401.32 156.202 400.353 157.081C397.599 158.314 396.122 157.439 395.645 154.415Z" fill="#FC7A9D"/>
<path d="M417.704 143.433C417.915 142.978 418.059 142.523 418.098 142.287C418.945 140.9 420.147 140.701 421.893 140.739C422.982 140.933 423.536 141.215 424.281 142.026C426.102 147.048 425.883 151.695 424.356 156.671C423.998 156.987 423.556 157.142 423.336 157.22C417.912 158.341 417.095 157.871 416.911 153.089C416.793 150.022 416.722 146.917 417.704 143.433Z" fill="#FC7A9E"/>
<path d="M424.323 157.133C423.994 152.349 423.989 147.712 423.901 142.625C424.082 141.97 424.347 141.764 425.081 141.744C428.563 146.62 426.069 151.925 427.311 157.249C426.412 158.065 425.517 157.766 424.323 157.133Z" fill="#B6396C"/>
<path d="M417.613 143.187C417.938 146.279 418.147 149.592 417.93 152.877C417.711 156.195 419.147 157.398 422.682 157.213C420.211 160.947 417.476 158.229 414.325 157.009C416.333 155.603 416.029 153.683 415.108 151.267C417.181 148.793 414.746 145.364 417.613 143.187Z" fill="#B5396C"/>
<path d="M417.52 137.253C418.644 133.804 421.213 135.429 423.482 135.059C424.798 135.921 425.154 136.926 424.736 138.521C424.382 139.779 423.965 140.47 422.672 140.872C419.804 141.057 416.792 141.996 417.52 137.253Z" fill="#FC7B9E"/>
<path d="M377.601 138.717C377.901 141.399 377.965 143.754 377.999 146.55C377.59 147.311 377.153 147.455 376.374 147.203C374.375 144.785 375.09 142.24 375.109 139.379C375.521 138.955 375.882 138.953 376.515 138.954C376.979 138.767 377.172 138.578 377.601 138.717Z" fill="#A3336A"/>
<path d="M434.335 153.305C433.965 151.982 433.69 150.85 434.524 149.512C436.798 151.341 437.313 154.185 438.913 156.704C435.358 158.606 436.15 154.57 434.335 153.305Z" fill="#BD3D6F"/>
<path d="M376.065 147.405C376.508 146.983 376.926 146.985 377.656 146.989C379.35 148.662 378.814 150.588 378.533 152.861C377.755 153.167 377.139 153.071 376.207 152.935C375.941 151.207 375.99 149.518 376.065 147.405Z" fill="#BA3B6D"/>
<path d="M417.385 136.999C418.072 138.919 418.145 141.322 421.723 140.127C422.376 140.501 422.505 140.912 422.241 141.651C420.994 141.967 419.954 142.013 418.525 142.055C416.02 140.788 415.106 139.267 417.385 136.999Z" fill="#B83A6D"/>
<path d="M385.052 156.804C384.914 155.378 385.083 154.129 385.269 152.763C387.404 153.274 387.451 155.455 388.856 156.83C387.728 158.495 386.544 157.744 385.052 156.804Z" fill="#C14172"/>
<path d="M407.967 154.456C409.014 152.984 409.661 153.515 410.019 154.676C410.391 155.88 411.061 156.7 412.667 157.032C413.127 157.246 413.247 157.389 413.181 157.743C409.769 159.384 408.29 158.022 407.967 154.456Z" fill="#BA3B6D"/>
<path d="M395.537 154.258C396.118 155.985 397.301 157.035 399.732 157.146C399.594 158.964 398.481 159.05 397.037 158.448C395.187 157.678 394.571 156.419 395.537 154.258Z" fill="#B3376B"/>
<path d="M424.516 139.289C424.094 138.009 424.011 136.952 423.906 135.499C424.684 135.092 425.484 135.082 426.683 135.075C426.769 136.34 427.276 137.804 425.841 138.966C425.302 139.213 425.078 139.363 424.516 139.289Z" fill="#B6396C"/>
<path d="M437.529 136.986C437.916 138.023 438.078 139.142 438.048 140.257C438.03 140.937 438.389 142.153 437.186 142.057C435.969 141.96 436.056 140.733 435.979 139.446C436.072 138.225 436.263 137.412 437.529 136.986Z" fill="#B83B6E"/>
<path d="M378.32 155.917C378.67 156.026 378.778 156.22 378.946 156.742C378.627 157.604 378.096 157.974 377.592 157.398C377.102 156.836 377.512 156.332 378.32 155.917Z" fill="#BA3B6D"/>
<path d="M359.312 155.895C359.88 155.892 360.347 156.2 360.917 156.777C359.744 158.209 359.281 157.629 359.312 155.895Z" fill="#BB3B6D"/>
<path d="M395.001 145.562C395.015 146.056 396.206 146.367 395.269 147.071C395.172 146.766 395.075 146.46 394.966 145.883C394.954 145.612 395.017 145.592 395.001 145.562Z" fill="#8D386B"/>
<path d="M400.726 139.163C400.815 139.542 400.673 140.112 400.298 140.876C400.208 140.497 400.351 139.926 400.726 139.163Z" fill="#B83C6F"/>
<path d="M377.893 138.695C377.664 139.032 377.489 139.019 377.051 138.982C376.983 138.421 377.178 137.884 377.578 137.148C377.837 137.414 377.893 137.88 377.893 138.695Z" fill="#BA3B6D"/>
<path d="M403.012 154.76C403.008 154.552 403.268 154.327 403.789 154.081C403.792 154.288 403.534 154.515 403.012 154.76Z" fill="#BA3B6D"/>
<path d="M442.045 157.378C442.104 157.205 442.292 157.156 442.772 157.13C442.767 157.27 442.471 157.385 442.045 157.378Z" fill="#BD3D6F"/>
<path d="M430.948 157.75C430.968 157.55 431.251 157.365 431.793 157.175C431.771 157.369 431.491 157.567 430.948 157.75Z" fill="#B6396C"/>
<path d="M413.214 157.846C412.994 157.953 413 157.527 413.003 157.315C413.006 157.103 413.478 156.996 413.718 156.966C413.891 157.274 413.717 157.542 413.214 157.846Z" fill="#B5396C"/>
<path d="M382.049 157.369C382.112 157.197 382.301 157.151 382.779 157.145C382.77 157.289 382.472 157.392 382.049 157.369Z" fill="#BA3B6D"/>
<path d="M378.759 135.168C378.862 135.394 378.684 135.606 378.284 135.89C378.064 135.637 378.202 135.367 378.759 135.168Z" fill="#EC6B91"/>
<path d="M359.714 136.122C359.907 136.31 359.809 136.619 359.42 137.045C359.174 136.839 359.272 136.532 359.714 136.122Z" fill="#BB3B6D"/>
<path d="M401.629 137.1C401.848 137.287 401.756 137.6 401.346 138.037C401.118 137.845 401.215 137.533 401.629 137.1Z" fill="#B83C6F"/>
<path d="M396.463 143.528C396.439 143.484 396.487 143.572 396.463 143.528V143.528Z" fill="#8D386B"/>
<path d="M408.763 111.027C409.749 111.609 410.66 112.079 410.833 112.741C411.515 115.355 410.987 117.895 408.265 118.828C405.366 119.823 404.5 116.892 404.184 115.164C403.693 112.476 405.077 110.51 408.763 111.027Z" fill="#202020"/>
<path d="M395.813 118.948C392.358 118.045 390.777 114.294 392.44 112.002C393.246 110.89 394.396 110.917 395.566 111.017C397.129 111.149 397.865 112.037 398.007 113.584C398.195 115.641 397.713 117.435 395.813 118.948Z" fill="#1F1F1F"/>
<path d="M380.813 119.65C380.492 119.989 380.071 120 379.333 120C379.008 118.926 378.999 117.862 378.988 116.398C378.986 115.999 379.449 116 379.68 116.009C380.178 117.118 380.445 118.219 380.813 119.65Z" fill="#FD98B5"/>
<path d="M375.803 120.862C375.372 121.103 375.01 121.074 374.376 121.055C374.073 120.885 374.043 120.705 373.976 120.254C374.41 119.338 374.949 119.524 375.707 119.945C375.9 120.221 375.886 120.407 375.803 120.862Z" fill="#D44E7D"/>
<path d="M419.779 120.99C420.074 122.225 420.895 122.987 421.576 123.928C422.579 125.315 420.943 124.741 420.157 125.048C418.626 124.304 417.91 123.243 417.912 121.407C418.054 120.923 418.245 120.776 418.748 120.813C419.06 120.997 419.539 120.992 419.779 120.99Z" fill="#FE7AA5"/>
<path d="M419.037 120.639C418.86 121.007 418.661 121.017 418.162 121.048C417.311 119.628 416.758 118.187 416.207 116.407C418.501 116.568 418.716 118.452 419.037 120.639Z" fill="#FF8DAF"/>
<path d="M439.86 111.225C440.098 111.655 440.07 112.013 440.05 112.639C439.885 112.928 439.712 112.948 439.276 112.968C439.018 112.56 439.022 112.151 439.034 111.436C439.226 111.138 439.41 111.145 439.86 111.225Z" fill="#D45A82"/>
<path d="M423.986 139.309C424.402 139.067 424.626 139.068 425.189 139.067C425.515 139.781 425.503 140.497 425.52 141.572C425.26 141.964 424.97 141.997 424.249 142.104C423.419 142.131 423.021 142.086 422.329 141.981C422.033 141.527 422.03 141.133 422.044 140.444C422.638 139.95 423.216 139.751 423.986 139.309Z" fill="#8E2A64"/>
<path d="M370.286 149.725C369.049 151.134 367.664 151.69 366.319 150.802C365.754 150.43 365.955 149.103 366.672 148.606C368.094 147.622 369.453 147.737 370.286 149.725Z" fill="#BF4273"/>
<path d="M367.571 142.571C365.845 142.467 365.872 141.591 366.489 140.643C366.897 140.017 367.679 140.015 368.205 140.436C369.162 141.202 368.365 141.821 367.571 142.571Z" fill="#B2396D"/>
<path d="M387.436 140.678C387.9 142.01 388.506 143.325 386.777 143.586C385.943 143.712 385.314 142.886 385.204 142.041C385.007 140.534 385.673 139.903 387.436 140.678Z" fill="#BD3D6F"/>
<path d="M406.295 143.897C407.106 145.332 407.738 146.819 405.813 147.665C405.483 147.811 404.595 147.532 404.522 147.284C404.089 145.813 405.06 144.84 406.295 143.897Z" fill="#BF4475"/>
</g>
<defs>
<clipPath id="clip0_8_116">
<rect width="104" height="61" fill="white" transform="translate(350 101)"/>
</clipPath>
</defs>
</svg>
