<svg width="800" height="800" viewBox="0 0 800 800" fill="none" xmlns="http://www.w3.org/2000/svg">
<path d="M668.344 472.375H126.958C123.747 472.374 120.669 471.825 118.399 470.85C116.129 469.875 114.852 468.552 114.848 467.173V134.223C114.852 132.844 116.129 131.521 118.399 130.546C120.669 129.571 123.747 129.022 126.958 129.021H668.344C671.554 129.022 674.632 129.571 676.903 130.546C679.173 131.521 680.45 132.844 680.454 134.223V467.173C680.45 468.552 679.173 469.875 676.903 470.85C674.632 471.825 671.554 472.374 668.344 472.375V472.375Z" fill="#3F3D56"/>
<path d="M656.946 467.479H138.356C135.145 467.477 132.067 466.929 129.797 465.953C127.526 464.978 126.249 463.656 126.246 462.276V139.119C126.249 137.74 127.526 136.417 129.796 135.442C132.067 134.467 135.145 133.918 138.356 133.917H656.946C660.157 133.918 663.235 134.467 665.505 135.442C667.775 136.417 669.052 137.74 669.056 139.119V462.276C669.052 463.656 667.775 464.978 665.505 465.953C663.235 466.929 660.157 467.477 656.946 467.479V467.479Z" fill="white"/>
<path d="M256.709 221.821C256.709 224.693 257.323 227.565 258.55 230.183C261.004 235.418 265.401 238.545 270.311 238.545H341.711C346.621 238.545 351.017 235.418 353.472 230.183C354.699 227.565 355.313 224.693 355.313 221.821C355.313 218.949 354.699 216.076 353.472 213.459L317.772 137.307C315.317 132.071 310.921 128.945 306.011 128.945C301.102 128.945 296.706 132.071 294.25 137.307L258.55 213.459C257.323 216.076 256.709 218.949 256.709 221.821H256.709Z" fill="#F2F2F2"/>
<path d="M386.216 284.245C386.216 285.865 386.563 287.485 387.255 288.962C388.639 291.915 391.12 293.679 393.889 293.679H434.168C436.938 293.679 439.418 291.915 440.803 288.962C441.495 287.485 441.842 285.865 441.842 284.245C441.842 282.624 441.495 281.004 440.803 279.527L420.663 236.568C419.279 233.614 416.799 231.851 414.029 231.851C411.26 231.851 408.78 233.614 407.394 236.568L387.255 279.527C386.563 281.004 386.216 282.624 386.216 284.245Z" fill="#F2F2F2"/>
<path d="M125.601 282.976C125.601 284.596 125.947 286.217 126.639 287.693C128.024 290.647 130.504 292.41 133.274 292.41H173.553C176.323 292.41 178.803 290.647 180.187 287.693C180.88 286.217 181.226 284.596 181.226 282.976C181.226 281.356 180.88 279.735 180.187 278.259L160.048 235.299C158.663 232.346 156.183 230.582 153.413 230.582C150.644 230.582 148.164 232.346 146.779 235.299L126.639 278.259C125.947 279.735 125.601 281.356 125.601 282.976Z" fill="#3F3D56"/>
<path d="M605.628 237.306C605.628 238.902 605.964 240.499 606.636 241.958C608.035 244.995 610.759 246.741 613.595 246.741H630.624C633.459 246.741 636.184 244.995 637.582 241.958C638.254 240.499 638.591 238.902 638.591 237.306C638.591 235.686 638.244 234.065 637.552 232.589L628.916 203.951C627.487 200.904 624.884 198.831 622.027 198.867C619.291 198.902 616.846 200.66 615.475 203.584L606.666 232.589C605.974 234.065 605.628 235.686 605.628 237.306V237.306Z" fill="#3F3D56"/>
<path d="M433.138 293.679H392.859C389.804 293.679 387.038 292.402 385.462 290.262C384.608 289.103 384.156 287.771 384.156 286.409C384.156 285.048 384.608 283.716 385.462 282.556L405.602 255.232C407.179 253.092 409.944 251.815 412.999 251.815C416.054 251.815 418.82 253.092 420.396 255.232L440.535 282.556C441.39 283.716 441.842 285.048 441.842 286.409C441.842 287.771 441.39 289.103 440.535 290.262C438.959 292.402 436.194 293.679 433.138 293.679V293.679ZM412.999 254.352C410.516 254.352 408.321 255.318 407.127 256.937C403.992 268.547 397.406 277.743 386.987 284.261C386.476 284.956 386.216 285.679 386.216 286.409C386.216 287.14 386.476 287.863 386.987 288.558C388.18 290.176 390.375 291.142 392.859 291.142H433.138C435.622 291.142 437.817 290.176 439.01 288.558C439.522 287.863 439.781 287.14 439.781 286.409C439.781 285.679 439.522 284.956 439.01 284.261L418.87 256.936C417.678 255.318 415.483 254.352 412.999 254.352V254.352Z" fill="#3F3D56"/>
<path d="M316.331 238.705C313.317 238.705 310.326 237.594 307.703 235.4L248.63 186.009C244.022 182.157 241.513 175.773 241.917 168.933C242.116 165.581 243.014 162.368 244.519 159.641C246.021 156.915 248.114 154.7 250.57 153.235L314.839 114.926C319.851 111.935 325.597 112.453 330.203 116.306C334.812 120.159 337.321 126.543 336.916 133.383L331.721 221.084C331.522 224.436 330.624 227.649 329.12 230.374C327.616 233.102 325.524 235.318 323.068 236.78C320.909 238.068 318.613 238.705 316.331 238.705V238.705ZM321.569 117.506C319.829 117.506 318.078 117.992 316.429 118.974C300.821 138.286 284.632 156.943 252.161 157.282C250.281 158.404 248.682 160.093 247.539 162.166C246.396 164.242 245.712 166.695 245.56 169.26C245.251 174.479 247.165 179.35 250.681 182.289L309.754 231.68C313.269 234.618 317.649 235.011 321.478 232.733C323.356 231.612 324.955 229.923 326.1 227.848C327.243 225.774 327.927 223.322 328.078 220.756L333.273 133.056C333.583 127.837 331.668 122.967 328.152 120.026C326.151 118.354 323.87 117.506 321.569 117.506V117.506Z" fill="#3F3D56"/>
<path d="M647.862 291.142H101V293.679H647.862V291.142Z" fill="#3F3D56"/>
<path d="M216.846 195.698C191.936 204.499 180.879 231.979 180.767 232.262L182.622 233.368C182.729 233.096 193.318 206.836 217.102 198.241L215.273 209.394C219.146 203.8 225.781 197.972 231.248 194.267C225.142 192.686 217.417 189.489 212.389 185.526L216.846 195.698V195.698Z" fill="#16F2F7"/>
<path d="M353.594 169.842L353.061 172.292C353.298 172.371 376.228 180.254 387.545 207.413L378.306 207.292C383.495 210.928 389.387 217.861 393.368 223.78C393.484 216.097 394.584 206.152 396.802 199.326L389.525 206.625C377.833 178.144 353.841 169.923 353.594 169.842V169.842Z" fill="#16F2F7"/>
<path d="M489.18 202.78C483.718 199.065 477.091 193.223 473.226 187.62L475.069 198.953C449.166 198.38 432.051 220.672 431.878 220.902L433.388 222.628C433.555 222.407 449.916 201.131 474.709 201.479L470.308 211.482C475.342 207.529 483.071 204.35 489.18 202.78V202.78Z" fill="#16F2F7"/>
<path d="M503.746 663.839L495.173 663.75L491.378 622.075L504.031 622.206L503.746 663.839Z" fill="#A0616A"/>
<path d="M507.618 685.199L506.023 658.974L503.784 658.79L494.652 658.02L491.714 657.779L491.658 665.326L477.965 676.768C476.93 677.641 476.296 679.088 476.286 680.628C476.268 682.776 477.434 684.614 479.029 685.199C479.365 685.326 479.719 685.395 480.092 685.395L497.134 685.567L497.283 685.199L500.118 678.123L501.154 685.199L501.21 685.613L507.646 685.682L507.618 685.199V685.199Z" fill="#2F2E41"/>
<path d="M626.723 657.249L618.416 659.86L606.1 620.764L618.36 616.909L626.723 657.249Z" fill="#A0616A"/>
<path d="M634.898 676.682L627.915 651.829L625.713 652.356L616.724 654.485L613.834 655.177L615.345 662.491L604.481 677.862C603.661 679.032 603.348 680.631 603.659 682.122C604.086 684.204 605.595 685.614 607.258 685.679C607.609 685.695 607.966 685.651 608.327 685.533L624.839 680.337L624.907 679.935L626.18 672.201L628.649 678.716L628.789 679.099L635.026 677.14L634.899 676.682H634.898Z" fill="#2F2E41"/>
<path d="M513.18 314.734L563.787 325.59V335.3C563.787 335.3 567.264 334.716 567.264 337.57V342.582L570.078 346.048C570.078 346.048 597.396 386.098 592.761 433.674L596.624 474.589L600.487 483.153L598.941 492.668C598.941 492.668 604.35 499.329 604.35 500.28C604.35 501.232 602.805 509.795 602.805 509.795C602.805 509.795 610.531 513.601 609.758 514.553C608.986 515.504 610.531 521.214 610.531 521.214C610.531 521.214 629.846 590.675 624.438 638.251L611.303 643.008L566.491 514.553L540.222 422.255L518.074 486.959V499.471L518.847 502.183V504.086L516.529 510.747L518.074 514.553L514.984 525.971V540.244C514.984 540.244 515.498 616.366 504.682 641.105H491.547L478.412 494.571L480.73 479.347L481.503 471.735L485.366 469.832L481.503 464.122L494.638 363.261L513.18 314.734L513.18 314.734Z" fill="#2F2E41"/>
<path d="M525.512 199.533H552.882L556.386 213.837L567.239 219.129C574.762 222.798 579.515 232.009 579.019 241.954L578.853 245.273L581.669 265.579C581.669 265.579 578.327 273.343 576.658 275.008C574.99 276.673 568.489 311.377 568.489 311.377L580.905 364.722L564.173 352.794L507.768 326.663L507.772 312.83L510.921 302.756L512.876 300.349L504.408 281.251L497.137 225.28L519.083 215.895L525.512 199.533V199.533Z" fill="#16F2F7"/>
<path d="M443.735 254.261L448.488 210.62L448.554 210.636C447.982 208.633 448.009 206.368 448.778 204.282C450.362 199.991 454.469 198.093 457.953 200.043C461.437 201.993 462.978 207.052 461.395 211.343C460.669 213.308 459.412 214.763 457.93 215.585L454.483 247.524L499.878 226.238C499.878 226.238 517.583 238.002 510.91 241.085C506.568 243.09 459.306 265.03 450.665 264.516C446.362 264.259 443.162 259.519 443.735 254.261L443.735 254.261Z" fill="#A0616A"/>
<path d="M510.663 230.663L516.607 241.175C506.846 249.822 460.409 270.535 460.232 267.943C460.055 265.351 457.744 267.705 457.507 268.705C457.271 269.705 454.63 268.209 454.646 269.385C454.662 270.561 452.445 269.835 451.336 270.023C451.336 270.023 442.735 266.421 441.438 260.424C440.141 254.426 441.715 247.627 441.715 247.627L439.781 241.295L461.26 236.363L457.282 244.343L500.81 223.412L510.663 230.663V230.663Z" fill="#16F2F7"/>
<path d="M606.895 290.624L626.128 253.54L626.07 253.5C627.924 252.158 629.281 249.765 629.476 246.751C629.694 243.381 628.19 240.086 625.738 238.567C621.707 236.071 617.061 238.769 615.899 243.837C615.423 245.913 615.621 248.023 616.322 249.827L602.221 276.943L583.331 234.886C579.834 227.101 572.999 222.318 565.8 223.048C563.034 223.328 561.271 224.431 562.527 227.195C564.79 232.175 589.369 286.472 596.234 292.945C599.652 296.169 604.577 295.093 606.895 290.624Z" fill="#A0616A"/>
<path d="M568.175 219.437L558.131 222.738C561.051 237.092 585.643 289.797 587.136 287.96C588.629 286.122 589.16 289.755 588.816 290.706C588.473 291.658 591.272 292.613 590.644 293.499C590.016 294.384 592.088 295.591 592.836 296.615C592.836 296.615 601.288 300.7 605.419 297.153C609.55 293.606 611.911 287.166 611.911 287.166L616.705 283.87L602.895 263.041L601.751 272.291L583.859 231.647C581.105 225.392 576.158 221.055 570.457 219.9L568.175 219.437V219.437Z" fill="#16F2F7"/>
<path d="M532.849 193.148C544.72 193.148 554.344 181.296 554.344 166.676C554.344 152.056 544.72 140.204 532.849 140.204C520.978 140.204 511.354 152.056 511.354 166.676C511.354 181.296 520.978 193.148 532.849 193.148Z" fill="#A0616A"/>
<path d="M504.641 155.194C504.413 142.24 508.986 138.948 515.671 138.742C529.471 132.295 532.251 134.818 536.289 136.317L537.843 136.134C542.611 135.573 547.184 136.767 551.137 139.289C559.475 144.6 564.229 155.701 563.772 167.248C563.457 175.208 560.851 183.86 563.958 190.81C566.557 196.613 569.298 202.342 563.948 202.972L549.939 204.62C548.931 202.608 548.169 200.542 547.328 197.969C546.7 200.065 546.418 202.529 546.403 205.035C541.284 207.304 535.888 207.769 530.291 206.93C529.531 205.322 528.881 203.559 529.164 201.72C528.676 203.534 528.119 205.33 527.873 207.215C524.617 203.913 521.627 204.313 518.893 208.271C513.592 201.43 514.439 187.63 521.747 185.198C527.929 183.14 520.554 161.421 514.242 160.089C514.201 160.08 511.76 167.713 511.714 167.557C511.028 165.22 511.553 164.069 510.711 161.496C510.186 163.264 509.897 165.287 509.816 167.377C508.341 166.752 506.866 165.935 505.395 164.918C503.887 161.659 503.492 158.416 504.641 155.194V155.194Z" fill="#2F2E41"/>
<path d="M644.035 666.011C646.163 666.175 647.339 662.919 645.729 661.021L645.569 660.237C645.59 660.174 645.612 660.111 645.633 660.049C647.785 653.729 655.079 653.772 657.213 660.102C659.107 665.719 661.518 671.347 662.112 677.286C662.378 679.908 662.258 682.58 661.786 685.152C666.223 673.214 668.559 660.178 668.559 647.068C668.559 643.774 668.412 640.48 668.113 637.194C667.867 634.506 667.527 631.835 667.088 629.188C664.713 614.882 659.57 601.256 652.152 589.875C648.585 587.474 645.611 583.721 643.815 579.223C643.17 577.6 642.664 575.855 642.425 574.077C642.83 574.142 643.955 566.53 643.649 566.063C644.214 565.006 645.227 564.481 645.844 563.449C648.916 558.32 653.149 559.216 655.359 566.186C660.079 569.12 660.124 573.986 657.228 578.665C655.385 581.643 655.132 585.671 653.516 588.858C653.682 589.121 653.855 589.375 654.021 589.637C657.071 594.455 659.71 599.634 661.933 605.074C661.305 599.028 662.233 591.743 663.815 587.048C665.616 581.697 668.991 577.192 671.963 572.566C675.534 567.011 682.855 569.435 683.484 576.478C683.49 576.546 683.496 576.614 683.502 576.682C683.06 576.989 682.628 577.315 682.205 577.659C679.795 579.622 680.628 584.223 683.484 584.766L683.548 584.778C683.389 586.736 683.116 588.678 682.717 590.587C686.53 608.749 678.298 615.363 666.543 615.66C666.283 615.824 666.03 615.988 665.771 616.144C666.962 620.274 667.913 624.51 668.619 628.803C669.251 632.597 669.69 636.432 669.936 640.283C670.242 645.142 670.215 650.025 669.883 654.876L669.903 654.704C670.748 649.362 673.103 644.372 676.523 640.914C681.617 635.76 688.815 633.862 694.311 629.719C696.956 627.725 700.347 630.302 699.885 634.08L699.862 634.261C699.044 634.67 698.246 635.145 697.474 635.678C697.032 635.985 696.6 636.311 696.177 636.655C693.767 638.618 694.6 643.218 697.456 643.761L697.52 643.774C697.567 643.782 697.607 643.79 697.653 643.798C696.25 647.903 694.294 651.713 691.845 654.999C689.461 670.853 679.22 672.357 668.266 667.74H668.259C667.062 674.164 665.312 680.441 663.063 686.422H644.5C644.434 686.168 644.374 685.906 644.314 685.652C646.031 685.783 647.76 685.66 649.45 685.275C648.073 683.194 646.696 681.096 645.319 679.015C645.286 678.974 645.259 678.933 645.232 678.892C644.534 677.827 643.828 676.77 643.13 675.705L643.129 675.704C643.086 672.434 643.404 669.175 644.035 666.012L644.035 666.011V666.011Z" fill="#F2F2F2"/>
<path d="M436.417 686.49C436.417 687.328 436.963 688 437.643 688H698.557C699.237 688 699.783 687.328 699.783 686.49C699.783 685.653 699.237 684.981 698.557 684.981H437.643C436.963 684.981 436.417 685.653 436.417 686.49Z" fill="#CCCCCC"/>
<path d="M304.838 307.634C311.665 307.634 317.199 300.818 317.199 292.41C317.199 284.003 311.665 277.187 304.838 277.187C298.011 277.187 292.477 284.003 292.477 292.41C292.477 300.818 298.011 307.634 304.838 307.634Z" fill="#CCCCCC"/>
<path d="M412.999 310.171C419.826 310.171 425.36 303.355 425.36 294.948C425.36 286.54 419.826 279.724 412.999 279.724C406.172 279.724 400.638 286.54 400.638 294.948C400.638 303.355 406.172 310.171 412.999 310.171Z" fill="#CCCCCC"/>
<path d="M623.139 316.514C629.966 316.514 635.5 309.698 635.5 301.291C635.5 292.883 629.966 286.067 623.139 286.067C616.312 286.067 610.778 292.883 610.778 301.291C610.778 309.698 616.312 316.514 623.139 316.514Z" fill="#CCCCCC"/>
<path d="M153.413 307.634C160.24 307.634 165.775 300.818 165.775 292.41C165.775 284.003 160.24 277.187 153.413 277.187C146.586 277.187 141.052 284.003 141.052 292.41C141.052 300.818 146.586 307.634 153.413 307.634Z" fill="#CCCCCC"/>
<path d="M157.939 296.491C157.443 296.49 156.947 296.482 156.451 296.474C156.468 296.357 156.485 296.24 156.499 296.125C156.727 294.258 156.833 292.367 156.822 290.48C156.811 288.676 156.742 286.737 156.26 285.018C155.908 283.762 154.938 283.364 153.99 283.881C152.322 284.79 150.885 286.602 149.568 287.761C148.889 288.357 148.565 289.42 149.013 290.364C149.405 291.19 150.445 291.647 151.127 291.047C152.052 290.234 152.833 289.369 153.668 288.592C153.697 289.061 153.717 289.53 153.726 290C153.755 291.619 153.695 293.245 153.545 294.854C153.538 294.932 153.499 295.261 153.504 295.232C153.492 295.328 153.481 295.423 153.468 295.518C153.425 295.826 153.375 296.134 153.306 296.435L153.299 296.463C152.571 296.476 151.842 296.502 151.115 296.571C150.351 296.643 149.692 297.239 149.597 298.221C149.508 299.14 149.946 300.064 150.704 300.309C151.979 300.721 153.436 301.061 154.656 300.257C155.751 300.265 156.845 300.295 157.939 300.297C158.774 300.298 159.485 299.421 159.485 298.394C159.485 297.361 158.777 296.492 157.939 296.491H157.939Z" fill="white"/>
<path d="M306.232 286.424L306.224 286.417C306.245 286.44 306.261 286.459 306.274 286.47C306.26 286.455 306.246 286.439 306.232 286.424Z" fill="white"/>
<path d="M309.64 296.851C308.331 296.856 307.025 296.975 305.717 297.002C305.536 297.006 305.371 297.003 305.199 297.004C305.844 296.374 306.491 295.748 307.111 295.081C308.744 293.322 310.507 290.884 310.257 288.004C310.005 285.109 307.863 282.044 305.324 282.349C303.299 282.593 301.616 284.547 301.039 286.911C300.717 288.228 300.829 289.688 301.522 290.791C302.324 292.067 303.654 292.464 304.913 292.387C304.817 292.491 304.726 292.603 304.628 292.706C303.847 293.52 303.029 294.276 302.24 295.078C301.566 295.764 300.871 296.511 300.433 297.459C299.936 298.534 300.391 299.914 301.356 300.254C304.049 301.204 306.888 300.669 309.64 300.656C310.475 300.653 311.185 299.784 311.185 298.753C311.185 297.724 310.478 296.847 309.64 296.851V296.851ZM306.508 290.419L306.507 290.416C306.544 290.353 306.542 290.362 306.508 290.419ZM305.935 286.205C305.857 286.155 305.787 286.101 305.935 286.205V286.205ZM306.029 286.25C306.026 286.258 305.995 286.242 305.959 286.22C305.998 286.235 306.03 286.247 306.029 286.25ZM303.939 288.407L303.94 288.419L303.934 288.403L303.939 288.407H303.939ZM303.918 288.39L303.927 288.424C303.896 288.385 303.868 288.35 303.866 288.35C303.89 288.352 303.902 288.375 303.918 288.39ZM303.932 288.442L303.933 288.447C303.795 288.363 303.856 288.389 303.932 288.442ZM303.939 288.468L303.94 288.472L303.939 288.468ZM304.33 288.585C304.317 288.585 304.305 288.583 304.292 288.581C304.221 288.556 304.146 288.537 304.074 288.518C304.096 288.534 304.12 288.549 304.131 288.573C304.122 288.555 304.087 288.532 304.05 288.511L304.046 288.51C304.017 288.502 304.016 288.499 303.999 288.493C304.029 288.52 304.049 288.546 304.043 288.565C304.042 288.567 304.011 288.528 303.977 288.486C304.004 288.583 303.993 288.663 303.97 288.503C303.97 288.496 303.97 288.491 303.97 288.483L303.962 288.48L303.961 288.477L303.961 288.466L303.96 288.464L303.961 288.464L303.961 288.462L303.956 288.46L303.954 288.457L303.954 288.457L303.961 288.462L303.957 288.421C303.964 288.434 303.964 288.447 303.969 288.461C303.968 288.379 303.964 288.275 303.961 288.204C303.97 288.151 303.979 288.098 303.99 288.046C304.006 287.971 304.076 287.747 304.097 287.666C304.141 287.566 304.183 287.465 304.23 287.367C304.263 287.299 304.373 287.112 304.415 287.033C304.484 286.938 304.576 286.81 304.612 286.766C304.674 286.689 304.74 286.617 304.805 286.544C304.86 286.481 305.026 286.247 304.853 286.488C304.695 286.709 304.83 286.511 304.911 286.451C304.986 286.396 305.059 286.338 305.135 286.287L305.163 286.273C305.116 286.284 305.107 286.271 305.238 286.227L305.263 286.218C305.294 286.201 305.326 286.183 305.334 286.166C305.326 286.184 305.305 286.196 305.288 286.209L305.445 286.155C305.429 286.152 305.41 286.156 305.397 286.145C305.401 286.148 305.428 286.15 305.454 286.152L305.484 286.142C305.687 286.071 305.626 286.131 305.533 286.156C305.598 286.158 305.665 286.158 305.726 286.156C305.623 286.133 305.527 286.066 305.728 286.138L305.774 286.154C305.807 286.152 305.835 286.15 305.839 286.146C305.826 286.158 305.802 286.155 305.78 286.156C305.829 286.173 305.898 286.197 305.953 286.218L305.962 286.224C306.037 286.277 306.112 286.331 306.187 286.386C306.205 286.399 306.211 286.406 306.224 286.416C306.208 286.398 306.194 286.384 306.173 286.357C306.191 286.381 306.213 286.401 306.232 286.423C306.303 286.482 306.311 286.502 306.273 286.469C306.327 286.526 306.381 286.584 306.432 286.645C306.521 286.754 306.601 286.87 306.687 286.983C306.7 287 306.706 287.007 306.715 287.018L306.732 287.052C306.857 287.29 306.961 287.539 307.079 287.779C307.084 287.794 307.089 287.81 307.092 287.826C307.118 287.94 307.142 288.057 307.171 288.17C307.176 288.189 307.178 288.195 307.183 288.209C307.185 288.328 307.193 288.446 307.191 288.565L307.188 288.654C307.18 288.717 307.171 288.794 307.165 288.828C307.144 288.938 307.12 289.046 307.093 289.153C307.082 289.194 307.069 289.236 307.058 289.278C306.879 289.662 306.702 290.033 306.506 290.403C306.469 289.447 305.783 288.52 304.968 288.58C304.754 288.595 304.544 288.592 304.33 288.585L304.33 288.585Z" fill="white"/>
<path d="M303.969 288.461L303.969 288.467L303.969 288.467L303.969 288.467L303.969 288.469L303.964 288.465L303.961 288.464V288.466L303.97 288.477L303.97 288.483L303.976 288.485L303.977 288.486L303.977 288.485L303.999 288.493L303.973 288.472L303.971 288.468C303.995 288.48 304.019 288.494 304.051 288.512L304.075 288.519C304.039 288.493 304.002 288.474 303.971 288.468L303.969 288.461H303.969Z" fill="white"/>
<path d="M305.533 286.156C305.5 286.155 305.476 286.154 305.453 286.152L305.445 286.155C305.476 286.161 305.502 286.164 305.533 286.156Z" fill="white"/>
<path d="M305.78 286.156L305.774 286.154L305.726 286.156C305.747 286.16 305.761 286.157 305.78 286.156V286.156Z" fill="white"/>
<path d="M303.964 288.465L303.97 288.467L303.961 288.462L303.964 288.465Z" fill="white"/>
<path d="M305.288 286.209L305.263 286.218C305.225 286.24 305.193 286.258 305.163 286.273C305.199 286.265 305.248 286.242 305.288 286.209Z" fill="white"/>
<path d="M390.986 240.363C390.93 240.277 390.859 240.21 390.8 240.129C391.007 239.873 391.193 239.584 391.329 239.222C392.092 237.188 391.206 234.991 390.085 233.456C387.992 230.592 383.973 229.915 381.325 231.931C380.638 232.454 380.311 233.656 380.771 234.534C381.215 235.383 382.149 235.777 382.885 235.217C382.999 235.13 383.116 235.053 383.232 234.971C383.266 234.948 383.284 234.934 383.302 234.92C383.319 234.913 383.329 234.91 383.353 234.899C383.61 234.788 383.869 234.707 384.134 234.634C384.169 234.624 384.189 234.618 384.205 234.612C384.224 234.611 384.238 234.611 384.266 234.61C384.404 234.601 384.541 234.586 384.68 234.583C384.927 234.578 385.17 234.603 385.416 234.626C385.472 234.638 385.528 234.65 385.584 234.664C385.72 234.697 385.856 234.736 385.991 234.781C386.209 234.853 386.424 234.943 386.634 235.045C386.693 235.08 386.81 235.146 386.843 235.167C386.964 235.243 387.082 235.325 387.198 235.412C387.312 235.498 387.419 235.599 387.532 235.685C387.241 235.466 387.497 235.655 387.567 235.734C387.737 235.924 387.888 236.133 388.036 236.347C388.054 236.377 388.076 236.412 388.096 236.449C388.171 236.584 388.242 236.722 388.308 236.864C388.32 236.891 388.381 237.033 388.42 237.124C388.442 237.197 388.485 237.327 388.492 237.356C388.503 237.403 388.511 237.446 388.517 237.486C388.477 237.505 388.435 237.525 388.407 237.534C388.324 237.56 388.24 237.578 388.156 237.596C388.118 237.602 388.047 237.613 387.974 237.62C387.736 237.64 387.498 237.644 387.259 237.644C386.488 237.646 385.843 238.367 385.742 239.294C385.634 240.277 386.116 241.051 386.848 241.382C386.85 241.383 386.931 241.421 386.995 241.451C387.056 241.484 387.156 241.538 387.176 241.55C387.374 241.668 387.569 241.796 387.757 241.936C387.871 242.02 387.98 242.111 388.092 242.2L388.138 242.238C388.288 242.386 388.433 242.543 388.565 242.715C388.641 242.814 388.788 243.137 388.628 242.785C388.664 242.864 388.709 242.949 388.752 243.023C388.762 243.041 388.766 243.045 388.774 243.057L388.775 243.062C388.776 243.07 388.785 243.105 388.795 243.143C388.77 243.201 388.744 243.258 388.714 243.313C388.825 243.077 388.723 243.298 388.639 243.406C388.447 243.649 388.348 243.738 388.143 243.892C388.041 243.969 387.935 244.04 387.827 244.104C387.798 244.114 387.68 244.169 387.634 244.185C387.539 244.22 387.442 244.246 387.345 244.271C387.308 244.276 387.227 244.289 387.168 244.291C387.046 244.296 386.926 244.288 386.804 244.285C386.772 244.284 386.75 244.284 386.732 244.285L386.707 244.276C386.466 244.201 386.225 244.144 385.987 244.05C385.867 244.002 385.749 243.947 385.63 243.894C385.578 243.871 385.558 243.863 385.543 243.856C385.551 243.859 385.551 243.856 385.504 243.83C385.008 243.549 384.529 243.229 384.053 242.899C383.349 242.41 382.333 242.663 381.939 243.581C381.553 244.482 381.741 245.663 382.493 246.185C383.835 247.116 385.241 247.977 386.804 248.091C388.483 248.213 390.165 247.186 391.184 245.563C392.21 243.928 391.998 241.908 390.986 240.363V240.363ZM388.565 237.547C388.588 237.506 388.587 237.502 388.599 237.478C388.623 237.44 388.629 237.434 388.565 237.547ZM388.617 237.439L388.628 237.417C388.641 237.419 388.672 237.406 388.758 237.34C388.711 237.376 388.664 237.406 388.617 237.439V237.439ZM388.82 243.256C388.826 243.288 388.83 243.313 388.826 243.317L388.82 243.256Z" fill="white"/>
<path d="M629.309 300.296C629.114 299.551 628.541 298.941 627.902 298.894C627.822 297.976 627.764 297.056 627.758 296.127C627.752 295.131 627.052 294.177 626.213 294.224C625.381 294.269 624.662 295.06 624.668 296.127C624.675 297.148 624.738 298.155 624.829 299.154C624.241 299.111 623.652 299.057 623.064 299.084C622.357 299.115 621.656 299.255 620.951 299.314C620.85 299.322 620.75 299.312 620.65 299.316C620.748 298.956 620.846 298.596 620.963 298.244C620.983 298.191 621.01 298.116 621.033 298.056C621.077 297.941 621.123 297.827 621.171 297.714C621.273 297.471 621.384 297.233 621.506 297.005C621.547 296.928 621.786 296.574 621.537 296.926C621.611 296.821 621.681 296.714 621.76 296.614C621.816 296.542 621.877 296.476 621.937 296.409C621.96 296.387 621.99 296.362 622.029 296.331C622.713 295.802 623.046 294.611 622.584 293.728C622.142 292.884 621.202 292.478 620.469 293.045C618.467 294.594 617.788 297.668 617.166 300.299C616.974 301.11 617.294 302.023 617.876 302.448C619.434 303.587 621.259 303.003 622.949 302.896C623.715 302.847 624.488 302.926 625.259 302.973C625.482 304.818 625.686 306.659 625.69 308.533C625.692 309.528 626.399 310.482 627.235 310.436C628.071 310.39 628.783 309.6 628.78 308.533C628.776 306.514 628.549 304.548 628.31 302.593C629.033 302.238 629.567 301.276 629.309 300.296V300.296ZM621.93 296.415C621.878 296.47 621.877 296.464 621.93 296.415V296.415Z" fill="white"/>
<g clip-path="url(#clip0_8_173)">
<path d="M114.625 604C115.133 607.254 117.745 606.141 119.33 606.193C123.474 606.329 127.634 606.162 131.782 605.984C134.701 605.858 136.315 606.966 135.972 610.019C135.324 615.778 134.937 621.537 134.853 627.341C134.817 629.823 132.77 631.633 130.291 631.858C126.823 632.173 123.276 632.231 119.816 631.879C115.262 631.416 117.809 627.394 116.615 624.723C114.688 629.206 112.41 632.619 106.684 632.128C102.243 631.748 102.388 628.193 100.71 625.634C96.2023 630.681 91.2106 634.247 84.152 630.731C83.0207 630.167 82.1655 630.824 81.4446 631.266C79.874 632.229 78.127 632.285 76.611 631.923C67.3872 629.723 58.1944 632.676 49.0169 631.891C45.7118 631.608 42.3183 630.869 42.9684 626.013C43.5587 621.603 43.7159 617.136 44.2578 612.717C44.6704 609.354 46.2727 606.582 49.1106 604.36C50.3889 604 51.7778 604 53.5833 604C55.3486 605.15 56.8441 605.765 58.9432 605.19C60.0458 604.974 60.8879 604.979 61.7854 604.217C62.4444 604 62.8889 604 63.6666 604C64.124 604.122 64.248 604.244 64.5665 604.539C65.1327 604.735 65.5045 604.738 66.1756 604.806C69.5543 606.348 72.5365 605.667 75.7477 604.237C77.3889 604 78.7778 604 80.5833 604C83.0576 605.634 85.2567 605.321 87.7474 604.236C89.3889 604 90.7778 604 92.5833 604C96.405 606.274 99.9507 605.407 103.75 604.235C104.75 604 105.5 604 106.625 604C108.376 605.486 109.853 605.978 111.767 604.23C112.75 604 113.5 604 114.625 604Z" fill="#862561"/>
<path d="M60.2244 605.937C60.0766 605.522 60.2472 605.064 60.2089 604.303C60.4444 604 60.8889 604 61.6667 604C61.7602 604.82 61.5808 605.687 60.2244 605.937Z" fill="#8E1D71"/>
<path d="M95.484 662.928C93.1523 660.654 91.2404 658.394 88.4826 661.96C87.5315 663.19 85.9731 663.35 84.8221 662.923C79.0779 660.787 73.2253 664.265 67.767 662.797C61.2232 661.037 55.0315 662.879 48.7008 663.064C44.6789 663.182 43.1988 661.112 43.0866 657.786C42.8792 651.638 43.0453 645.478 43.0036 639.324C42.9891 637.188 44.164 635.886 45.908 635.087C47.0783 634.551 48.4077 634.055 49.6632 634.061C57.8621 634.104 66.0049 635.19 74.2819 634.206C78.4178 633.715 82.1882 636.152 83.837 641.366C86.1945 636.799 88.7141 633.313 94.3509 633.894C97.9833 634.269 98.7564 636.896 100.463 639.574C102.471 635.923 105.198 633.186 109.522 634.086C113.403 634.894 117.475 632.623 121.093 634.816C122.655 635.764 123.445 635.488 124.977 634.755C130.566 632.083 133.958 634.358 133.989 640.507C134.015 645.497 134.013 650.487 133.99 655.478C133.963 661.368 131.965 663.79 126.252 662.785C122.213 662.074 118.517 663.044 114.667 663.007C108.407 662.948 102.146 662.979 95.484 662.928Z" fill="#852460"/>
<path d="M68.7344 615.326C69.6193 608.555 76.3392 606.6 82.1651 608.686C83.4561 609.149 84.5185 609.809 86.1143 609.028C90.7945 606.736 94.9103 607.843 98.6254 611.897C100.499 612.99 100.893 614.594 101.315 616.607C101.315 617.861 101.106 618.648 100.39 619.683C98.2554 622.486 98.0411 626.316 94.0754 627.546C90.3552 629.382 87.0174 628.425 83.335 626.989C82.3778 627.069 81.7993 627.196 81.0818 627.588C71.6022 629.936 65.9033 624.382 68.7344 615.326Z" fill="#FEFEFE"/>
<path d="M47.3559 622.257C46.971 621.556 46.9061 621.131 46.7989 620.385C46.5791 619.6 46.518 619.119 46.7155 618.291C46.8734 617.958 47.0069 617.945 47.0568 617.99C48.8805 616.184 51.2214 615.769 53.5236 616.104C57.3021 616.653 61.13 616.164 65.3139 617.088C66.8893 618.143 67.1414 619.327 66.8789 621.088C66.3286 622.369 65.5866 622.776 64.3201 623.057C62.9386 623.108 61.9683 622.749 60.6165 623.086C58.4897 623.631 56.7014 623.821 54.4845 623.539C53.5482 623.497 53.0094 623.491 52.0572 623.504C50.1975 623.688 48.8422 623.493 47.3559 622.257Z" fill="#FF769B"/>
<path d="M66.3535 618.145C59.9995 618.004 54.0133 618.009 47.5669 618.025C47.0782 617.863 47.0498 617.692 46.9897 617.262C46.9599 615.573 47.1997 614.19 48.093 612.564C50.6821 611.029 52.9433 610.974 55.5085 612.685C55.8422 612.983 56.0036 613.441 56.048 613.68C56.9249 614.916 57.8754 614.263 59.1671 614.114C61.7059 614.964 64.1782 613.898 66.5863 615.428C67.3175 616.015 67.5272 616.474 67.435 617.404C67.1271 617.953 66.9242 618.122 66.3535 618.145Z" fill="#FD82A0"/>
<path d="M107.791 615.7C108.528 615.948 108.909 615.948 109.577 615.948C111.509 614.643 113.262 614.209 115.535 615.639C116.393 618.113 115.151 619.685 114.02 621.665C112.28 623.683 110.192 623.737 107.711 623.792C107.066 623.77 106.81 623.728 106.198 623.529C104.371 621.895 103.824 619.826 102.441 617.841C102.321 616.891 102.448 616.365 103.03 615.589C104.738 614.584 106.102 614.598 107.791 615.7Z" fill="#FE789C"/>
<path d="M132.222 619.877C131.575 620.364 131.063 620.602 130.259 620.868C128.635 621.381 127.241 621.664 125.544 622.227C123.632 622.516 122.119 622.526 120.528 621.223C120.204 620.509 120.148 620.071 120.15 619.305C120.278 618.815 120.348 618.653 120.3 618.255C120.17 617.825 120.156 617.633 120.213 617.16C121.106 614.474 123.411 614.594 125.646 613.855C126.282 613.721 126.54 613.682 127.193 613.618C128.924 613.577 130.263 613.558 131.703 614.711C132.283 615.754 132.551 616.547 132.796 617.666C132.512 618.506 132.506 619.085 132.222 619.877Z" fill="#FE7C9E"/>
<path d="M120.149 621.314C121.889 620.964 123.519 620.98 125.562 620.992C127.063 621.37 128.228 621.466 129.638 621.98C131.954 622.258 133.045 623.215 132.72 625.685C130.945 627.886 128.408 626.296 126.292 627.762C124.619 628.06 123.214 628.12 121.388 628.186C120.791 627.991 120.616 627.789 120.403 627.189C120.256 625.087 120.147 623.383 120.149 621.314Z" fill="#FE6796"/>
<path d="M123.595 608.283C125.92 608.043 127.894 608.032 129.86 607.904C134.599 607.594 134.844 609.758 132.537 613.424C130.961 614.027 129.649 613.995 127.946 613.994C127.288 613.989 127.024 613.986 126.364 613.969C124.303 613.845 122.822 613.328 121.522 611.662C121.08 609.757 121.518 608.679 123.595 608.283Z" fill="#FF94A7"/>
<path d="M115.974 615.752C114.154 615.982 112.44 615.979 110.294 615.963C110.221 614.878 110.677 613.828 110.921 612.731C112.055 607.631 112.795 607.246 117.944 609.631C118.555 610.266 118.808 610.692 118.95 611.577C118.895 613.044 118.269 613.807 117.19 614.715C116.632 615.146 116.356 615.333 115.974 615.752Z" fill="#FE8CA4"/>
<path d="M108.075 615.569C106.633 615.989 105.119 616.031 103.153 616.109C99.2672 615.68 100.389 612.726 99.8044 610.357C104.883 606.754 105.711 607.047 107.043 612.447C107.274 613.383 107.679 614.276 108.075 615.569Z" fill="#FE8CA3"/>
<path d="M99.6475 610.175C101.363 611.582 100.469 614.172 102.457 615.911C102.804 616.576 102.906 617.006 103.108 617.753C104.203 619.308 104.92 620.679 105.324 622.569C106.076 624.077 106.879 625.173 107.514 626.737C107.54 627.295 107.498 627.519 107.234 628.001C104.504 629.667 104.283 627.351 103.631 626.053C102.745 624.289 102.107 622.401 101.212 620.243C100.167 619.34 100.642 618.399 100.335 617.341C99.8114 615.632 99.412 614.212 98.981 612.415C99.1099 611.483 99.2704 610.928 99.6475 610.175Z" fill="#BC3D6F"/>
<path d="M66.7282 618.363C66.9325 617.568 66.954 617.118 66.9286 616.333C66.8068 615.792 66.7319 615.585 66.8996 615.156C67.5589 614.952 67.9757 614.97 68.7055 614.982C69.1509 616.957 69.0841 618.977 69.4549 620.913C70.4042 625.869 73.7782 628.024 80.5224 627.904C76.4562 630.666 72.6142 628.785 68.5167 626.145C67.2481 625.424 66.7475 624.529 66.7482 622.995C66.9499 621.289 66.3138 620.027 66.7282 618.363Z" fill="#BC3F70"/>
<path d="M53.6566 622.394C55.9691 622.022 58.0161 622.007 60.5008 621.988C61.1201 622.154 61.3016 622.324 61.6457 622.833C62.0841 624.534 61.6463 625.644 60.3072 626.759C58.9119 628.513 57.2559 628.09 55.365 628.193C53.1226 626.757 52.2952 625.034 53.6566 622.394Z" fill="#FB6897"/>
<path d="M58.8214 612.389C59.0774 611.593 59.1846 611.227 59.3469 610.581C59.3244 609.958 59.3835 609.645 59.7582 609.167C64.1662 605.974 66.0376 608.017 66.8448 612.619C64.8036 615.021 62.4233 614.69 59.6064 613.791C59.0376 613.305 58.8551 613.063 58.8214 612.389Z" fill="#FF93A6"/>
<path d="M55.8506 612.604C53.5949 612.983 51.3475 612.983 48.679 612.976C47.2504 612.46 47.5743 611.54 47.7906 610.362C52.8801 606.363 53.9326 606.661 55.8506 612.604Z" fill="#FE93A7"/>
<path d="M107.419 628.229C106.989 628.061 106.967 627.862 106.902 627.366C107.66 625.801 105.911 624.746 106.79 623.239C108.807 621.31 111.028 622.261 113.453 621.991C113.611 625.769 112.478 628.691 107.419 628.229Z" fill="#FD6595"/>
<path d="M46.9526 622.407C48.435 621.993 49.8342 622.005 51.6536 622.026C53.0601 623.118 52.9877 624.458 52.9244 626.174C52.7394 626.799 52.6139 627.032 52.2195 627.556C47.6059 628.862 46.1958 626.903 46.9526 622.407Z" fill="#FD6796"/>
<path d="M67.6147 621.775C67.9559 623.078 67.9988 624.176 68.1027 625.685C67.1283 626.976 66.3292 628.265 64.3404 628.097C63.6471 627.737 63.2369 627.497 62.5341 627.073C61.75 625.89 61.9448 624.917 62.0908 623.597C62.2439 623.02 62.3407 622.8 62.6754 622.308C63.6892 622.023 64.4652 622.01 65.6292 621.994C66.3816 621.638 66.8179 621.507 67.6147 621.775Z" fill="#FF6A98"/>
<path d="M121.666 610.777C123.202 611.54 124.405 612.077 125.824 612.872C126.375 613.494 126.5 613.924 126.229 614.69C124.67 616.657 122.434 615.525 120.588 616.734C120.283 616.88 120.015 616.504 119.928 616.29C119.358 614.833 118.725 613.618 119.188 611.82C119.455 611.214 119.616 610.999 120.152 610.635C120.796 610.509 121.064 610.53 121.666 610.777Z" fill="#FF88A2"/>
<path d="M58.9298 613.197C61.4838 612.977 63.7315 612.984 66.3989 612.987C66.8904 613.416 66.9622 613.849 67.088 614.608C67.0962 615.11 67.0504 615.287 66.9431 615.731C64.4241 615.776 61.8904 616.531 59.2183 615.136C58.5978 614.426 58.4941 613.951 58.9298 613.197Z" fill="#FE84A0"/>
<path d="M83.2038 627.235C86.4656 625.799 89.5043 629.477 93.4717 627.883C90.3425 630.022 86.8749 629.51 83.2038 627.235Z" fill="#B94071"/>
<path d="M52.1833 627.155C52.0407 625.59 52.0372 624.222 52.0538 622.444C52.4849 622.023 52.896 622.011 53.6146 622.018C54.2548 623.821 54.5874 625.605 54.947 627.784C54.5009 628.839 53.9468 628.976 53.1447 628.235C52.7147 627.863 52.4885 627.638 52.1833 627.155Z" fill="#BD3C6F"/>
<path d="M62.5108 622.867C62.8189 624.157 62.904 625.183 63.0084 626.594C63.1681 627.211 63.3086 627.442 63.2409 628.02C61.5707 629.447 61.1914 627.962 60.2351 627.131C60.3234 625.896 60.6474 624.816 61.0374 623.401C61.4039 622.669 61.8034 622.527 62.5108 622.867Z" fill="#B93B6E"/>
<path d="M126.435 628.061C127.044 624.616 129.852 626.508 132.247 626.03C131.762 629.658 128.834 627.584 126.435 628.061Z" fill="#FB76A2"/>
<path d="M129.982 621.782C128.54 623.28 127.22 623.502 126.054 621.317C127.005 619.841 128.212 619.81 129.745 620.661C129.977 621.093 129.986 621.29 129.982 621.782Z" fill="#D95786"/>
<path d="M126.852 613.515C128.558 613.3 129.99 613.303 131.829 613.472C132.17 613.929 132.109 614.221 132.034 614.738C130.638 614.962 129.261 614.962 127.471 614.936C126.656 614.615 126.483 614.228 126.852 613.515Z" fill="#BC3E6F"/>
<path d="M47.7508 610.235C48.0485 610.746 48.0793 611.491 48.184 612.603C48.0129 614.161 47.7681 615.353 47.2406 616.774C44.9959 614.653 47.3819 612.653 47.7508 610.235Z" fill="#BB3C6E"/>
<path d="M120.327 610.72C120.124 612.473 120.08 613.865 119.939 615.667C119.548 615.934 119.313 615.725 119.022 615.241C118.238 614.375 118.115 613.576 118.223 612.39C118.127 611.602 118.109 611.121 118.129 610.28C118.602 609.68 119.038 609.44 119.693 609.081C120.315 609.341 120.506 609.808 120.327 610.72Z" fill="#BB3C6E"/>
<path d="M122.044 610.703C122 611.003 121.508 611.01 121.261 611.006C120.376 610.351 120.518 609.547 120.829 608.454C121.881 608.09 122.677 608.032 123.712 608.04C123.33 608.873 122.709 609.638 122.044 610.703Z" fill="#FEB2BE"/>
<path d="M117.983 612.357C118.9 612.681 118.983 613.515 118.935 614.71C118.464 615.018 118.02 615.005 117.241 614.975C117.212 614.184 117.516 613.407 117.983 612.357Z" fill="#932C65"/>
<path d="M59.1782 612.715C59.1459 613.385 59.0556 613.801 58.95 614.533C58.0399 615.007 57.1397 615.213 56.2158 614.235C57.348 614.084 57.871 613.144 58.7259 612.147C59.0202 612.126 59.0703 612.293 59.1782 612.715Z" fill="#C34876"/>
<path d="M120.155 626.902C120.502 627.008 120.64 627.225 120.872 627.817C120.546 628.333 119.946 628.719 119.739 628.568C119.023 628.045 119.361 627.471 120.155 626.902Z" fill="#BB3C6E"/>
<path d="M120.836 608.188C121.051 608.861 121.018 609.574 121 610.644C121.015 611.002 120.59 611.031 120.379 611.056C120.106 610.61 120.043 610.14 119.947 609.315C120.138 608.717 120.363 608.472 120.836 608.188Z" fill="#E56F90"/>
<path d="M100.137 617.417C100.485 617.803 100.759 618.554 101.047 619.613C101.061 619.921 100.6 619.974 100.368 619.991C100.112 619.266 100.088 618.524 100.137 617.417Z" fill="#9B376D"/>
<path d="M46.6936 618.131C46.8883 618.429 46.9032 618.901 46.8374 619.719C46.2168 619.541 46.0434 618.967 46.6936 618.131Z" fill="#BC3B6E"/>
<path d="M132.341 619.947C132.194 619.564 132.3 619.001 132.589 618.215C132.713 618.584 132.654 619.176 132.341 619.947Z" fill="#D86B92"/>
<path d="M52.0177 627.18C52.3533 627.094 52.6012 627.302 52.8945 627.805C52.824 628.01 52.6469 627.992 52.2102 627.911C51.9506 627.848 51.9912 627.402 52.0177 627.18Z" fill="#E65186"/>
<path d="M63.2737 628.304C63.0249 628.137 63.0171 627.905 63.0185 627.327C63.3277 627.14 63.5769 627.358 63.8823 627.861C63.9893 628.089 63.5146 628.241 63.2737 628.304Z" fill="#E14F84"/>
<path d="M64.0779 605.255C63.9852 605.134 64.4649 605.081 64.6963 605.148C64.9278 605.216 64.5771 605.483 64.5771 605.483C64.5771 605.483 64.1706 605.377 64.0779 605.255Z" fill="#8E1D71"/>
<path d="M120.127 618.259C120.492 618.209 120.575 618.462 120.32 618.876C120.207 618.977 120.071 618.5 120.127 618.259Z" fill="#FE6796"/>
<path d="M59.7345 609.148C59.9668 609.31 59.9052 609.63 59.566 610.115C59.4528 609.977 59.5036 609.652 59.7345 609.148Z" fill="#C34876"/>
<path d="M121.311 654.846C120.94 656.467 120.822 657.846 119.336 658.981C118.758 659.334 118.469 659.507 117.935 659.712C116.81 659.703 115.936 659.672 114.734 659.658C112.115 658.573 112.656 656.439 112.487 654.53C112.218 651.472 113.243 648.302 111.493 644.996C110.949 643.863 110.853 643.052 110.989 641.825C111.687 640.026 112.553 638.772 113.804 637.332C117.755 636.247 120.713 637.014 122.662 640.932C124.067 641.077 124.018 640.026 124.661 639.175C125.882 636.029 128.322 636.727 130.288 637.095C132.547 637.518 132.01 639.711 131.869 641.211C131.323 647.027 133.319 653.013 130.388 658.919C129.877 659.234 129.691 659.315 129.21 659.325C128.191 659.204 127.467 659.154 126.381 659.071C123.736 658.513 123.662 656.254 122.644 654.736C122.193 655.29 122.293 651.639 121.311 654.846Z" fill="#FC7B9E"/>
<path d="M46.4195 657.895C48.0305 651.616 44.1433 645.82 46.0406 639.52C46.212 638.845 46.3434 638.564 46.7646 638.161C52.8229 634.823 57.9008 635.635 61.9758 640.654C64.2732 642.995 62.9243 646.001 64.2893 648.702C64.476 650.904 64.7854 652.709 63.198 654.57C59.1936 659.496 54.04 659.237 48.468 659.065C47.374 658.982 46.846 658.697 46.4195 657.895Z" fill="#FC7A9D"/>
<path d="M64.6605 639.352C64.8296 638.787 64.8776 638.627 65.0161 638.233C65.2353 637.836 65.3641 637.673 65.7451 637.328C68.3901 636.517 70.7868 635.891 73.2966 636.264C79.4133 637.174 81.8051 640.223 81.7812 647.222C79.3029 648.623 76.8993 650.07 79.1034 653.203C81.627 656.79 79.6894 658.001 76.3463 659.081C74.7133 659.19 73.8003 657.298 72.0252 658.525C71.3746 658.759 71.0047 658.892 70.3512 659.105C69.88 659.255 69.6924 659.325 69.2141 659.319C68.1943 659.198 67.465 659.154 66.3708 659.09C65.8422 658.896 65.6786 658.722 65.5381 658.19C65.552 657.185 65.5427 656.538 65.4527 655.577C64.2871 653.535 64.691 651.495 64.1093 649.234C63.4749 646.616 63.2316 644.396 63.9921 641.77C64.4135 640.871 64.5348 640.326 64.6605 639.352Z" fill="#FC7A9D"/>
<path d="M82.6449 656.415C84.1489 651.926 85.5562 647.871 87.0143 643.442C87.4472 642.594 87.4928 642.005 87.7885 641.207C87.9578 640.971 88.0882 640.592 88.1205 640.394C88.2394 639.885 88.3882 639.606 88.708 639.149C92.2655 635.35 96.1632 635.903 97.6522 640.214C99.0381 644.226 100.378 648.253 101.928 652.591C104.093 654.952 105.485 656.952 101.314 658.745C100.951 658.944 101.003 658.995 100.981 658.965C100.802 659.085 100.645 659.235 100.168 659.433C97.3892 659.88 96.3479 658.299 95.2501 656.25C93.9204 656.072 92.8765 656.042 91.4412 656.036C90.7907 656.276 90.5202 656.477 89.9937 656.721C89.0336 657.49 88.3197 658.202 87.3526 659.081C84.5991 660.314 83.122 659.439 82.6449 656.415Z" fill="#FC7A9D"/>
<path d="M104.704 645.433C104.915 644.978 105.059 644.523 105.098 644.287C105.945 642.9 107.147 642.701 108.893 642.739C109.982 642.933 110.536 643.215 111.281 644.026C113.102 649.048 112.883 653.695 111.356 658.671C110.998 658.987 110.556 659.142 110.336 659.22C104.912 660.341 104.095 659.871 103.911 655.089C103.793 652.022 103.722 648.917 104.704 645.433Z" fill="#FC7A9E"/>
<path d="M111.323 659.133C110.994 654.349 110.989 649.712 110.901 644.625C111.082 643.97 111.347 643.764 112.081 643.744C115.563 648.62 113.069 653.925 114.311 659.249C113.412 660.065 112.517 659.766 111.323 659.133Z" fill="#B6396C"/>
<path d="M104.613 645.187C104.938 648.279 105.147 651.592 104.93 654.877C104.711 658.195 106.147 659.398 109.682 659.213C107.211 662.947 104.476 660.229 101.325 659.009C103.333 657.603 103.029 655.683 102.108 653.267C104.181 650.793 101.746 647.364 104.613 645.187Z" fill="#B5396C"/>
<path d="M104.52 639.253C105.644 635.804 108.213 637.429 110.482 637.059C111.798 637.921 112.154 638.926 111.736 640.521C111.382 641.779 110.966 642.47 109.673 642.872C106.804 643.057 103.792 643.996 104.52 639.253Z" fill="#FC7B9E"/>
<path d="M64.601 640.717C64.9014 643.399 64.9646 645.754 64.9986 648.55C64.5901 649.311 64.153 649.455 63.3744 649.203C61.375 646.785 62.0897 644.24 62.1088 641.379C62.5207 640.955 62.8823 640.953 63.5155 640.954C63.9792 640.767 64.1715 640.578 64.601 640.717Z" fill="#A3336A"/>
<path d="M121.335 655.305C120.965 653.982 120.69 652.85 121.523 651.512C123.797 653.341 124.313 656.185 125.913 658.704C122.358 660.606 123.15 656.57 121.335 655.305Z" fill="#BD3D6F"/>
<path d="M63.0652 649.405C63.5084 648.983 63.9258 648.985 64.6563 648.989C66.3505 650.662 65.8139 652.588 65.5327 654.861C64.7555 655.167 64.139 655.071 63.2073 654.935C62.9412 653.207 62.9903 651.518 63.0652 649.405Z" fill="#BA3B6D"/>
<path d="M104.385 638.999C105.072 640.919 105.146 643.322 108.723 642.127C109.376 642.501 109.505 642.912 109.241 643.651C107.995 643.967 106.954 644.013 105.525 644.055C103.02 642.788 102.106 641.267 104.385 638.999Z" fill="#B83A6D"/>
<path d="M72.0524 658.804C71.9139 657.378 72.0834 656.129 72.2687 654.763C74.4039 655.274 74.4509 657.455 75.8558 658.83C74.7277 660.495 73.5438 659.744 72.0524 658.804Z" fill="#C14172"/>
<path d="M94.9669 656.456C96.0141 654.984 96.6612 655.515 97.0194 656.676C97.3911 657.88 98.0616 658.7 99.6667 659.032C100.127 659.246 100.248 659.389 100.182 659.743C96.7688 661.384 95.2906 660.022 94.9669 656.456Z" fill="#BA3B6D"/>
<path d="M82.5374 656.258C83.118 657.985 84.3015 659.035 86.7319 659.146C86.5937 660.964 85.4811 661.05 84.0369 660.448C82.1868 659.678 81.5713 658.419 82.5374 656.258Z" fill="#B3376B"/>
<path d="M111.516 641.289C111.094 640.009 111.011 638.952 110.906 637.499C111.684 637.092 112.484 637.082 113.683 637.075C113.769 638.34 114.276 639.804 112.841 640.966C112.302 641.213 112.078 641.363 111.516 641.289Z" fill="#B6396C"/>
<path d="M124.529 638.986C124.916 640.023 125.078 641.142 125.048 642.257C125.03 642.937 125.389 644.153 124.186 644.057C122.97 643.96 123.056 642.733 122.98 641.446C123.072 640.225 123.263 639.412 124.529 638.986Z" fill="#B83B6E"/>
<path d="M65.32 657.917C65.6697 658.026 65.7781 658.22 65.9462 658.742C65.6273 659.604 65.0962 659.974 64.5923 659.398C64.1018 658.836 64.5116 658.332 65.32 657.917Z" fill="#BA3B6D"/>
<path d="M46.3117 657.895C46.8795 657.892 47.3473 658.2 47.9169 658.777C46.7435 660.209 46.2807 659.629 46.3117 657.895Z" fill="#BB3B6D"/>
<path d="M82.0008 647.562C82.0148 648.056 83.2064 648.367 82.269 649.071C82.1717 648.766 82.0745 648.46 81.9656 647.883C81.9538 647.612 82.0168 647.592 82.0008 647.562Z" fill="#8D386B"/>
<path d="M87.7257 641.163C87.8154 641.542 87.6729 642.112 87.2978 642.876C87.2079 642.497 87.3507 641.926 87.7257 641.163Z" fill="#B83C6F"/>
<path d="M64.8933 640.695C64.6636 641.032 64.489 641.019 64.0507 640.982C63.9825 640.421 64.178 639.884 64.5775 639.148C64.8371 639.414 64.8927 639.88 64.8933 640.695Z" fill="#BA3B6D"/>
<path d="M90.012 656.76C90.0076 656.552 90.2677 656.327 90.7889 656.081C90.7922 656.288 90.5344 656.515 90.012 656.76Z" fill="#BA3B6D"/>
<path d="M129.045 659.378C129.103 659.205 129.292 659.156 129.771 659.13C129.767 659.27 129.471 659.385 129.045 659.378Z" fill="#BD3D6F"/>
<path d="M117.948 659.75C117.968 659.55 118.251 659.365 118.793 659.175C118.771 659.369 118.491 659.567 117.948 659.75Z" fill="#B6396C"/>
<path d="M100.214 659.846C99.9945 659.953 100 659.527 100.003 659.315C100.006 659.103 100.478 658.996 100.718 658.966C100.892 659.274 100.717 659.542 100.214 659.846Z" fill="#B5396C"/>
<path d="M69.0486 659.369C69.1123 659.197 69.3011 659.151 69.7787 659.145C69.7697 659.289 69.4717 659.392 69.0486 659.369Z" fill="#BA3B6D"/>
<path d="M65.7589 637.168C65.8625 637.394 65.684 637.606 65.2841 637.89C65.0637 637.637 65.2017 637.367 65.7589 637.168Z" fill="#EC6B91"/>
<path d="M46.7136 638.122C46.9067 638.31 46.8087 638.619 46.4205 639.045C46.1742 638.839 46.2716 638.532 46.7136 638.122Z" fill="#BB3B6D"/>
<path d="M88.6291 639.1C88.8483 639.287 88.7557 639.6 88.346 640.037C88.1183 639.845 88.2145 639.533 88.6291 639.1Z" fill="#B83C6F"/>
<path d="M83.4628 645.528C83.4391 645.484 83.4864 645.572 83.4628 645.528V645.528Z" fill="#8D386B"/>
<path d="M95.7632 613.027C96.7489 613.609 97.6595 614.079 97.8325 614.741C98.5149 617.355 97.9868 619.895 95.2651 620.828C92.3659 621.823 91.4995 618.892 91.1838 617.164C90.6927 614.476 92.0769 612.51 95.7632 613.027Z" fill="#202020"/>
<path d="M82.8132 620.948C79.3578 620.045 77.7773 616.294 79.4397 614.002C80.2464 612.89 81.3957 612.917 82.5658 613.017C84.1287 613.149 84.8654 614.037 85.0071 615.584C85.1955 617.641 84.7126 619.435 82.8132 620.948Z" fill="#1F1F1F"/>
<path d="M67.8125 621.65C67.4917 621.989 67.0705 622 66.3332 622C66.0082 620.926 65.9992 619.862 65.9879 618.398C65.9857 617.999 66.4491 618 66.68 618.009C67.178 619.118 67.4451 620.219 67.8125 621.65Z" fill="#FD98B5"/>
<path d="M62.8034 622.862C62.3721 623.103 62.0104 623.074 61.376 623.055C61.0731 622.885 61.0428 622.705 60.9755 622.254C61.4099 621.338 61.9494 621.524 62.707 621.945C62.8998 622.221 62.8864 622.407 62.8034 622.862Z" fill="#D44E7D"/>
<path d="M106.779 622.99C107.073 624.225 107.895 624.987 108.576 625.928C109.579 627.315 107.942 626.741 107.157 627.048C105.626 626.304 104.91 625.243 104.912 623.407C105.054 622.923 105.245 622.776 105.748 622.813C106.06 622.997 106.539 622.992 106.779 622.99Z" fill="#FE7AA5"/>
<path d="M106.036 622.639C105.86 623.007 105.661 623.017 105.162 623.048C104.31 621.628 103.758 620.187 103.206 618.407C105.501 618.568 105.716 620.452 106.036 622.639Z" fill="#FF8DAF"/>
<path d="M126.86 613.225C127.098 613.655 127.07 614.013 127.05 614.639C126.885 614.928 126.712 614.948 126.276 614.968C126.018 614.56 126.022 614.151 126.034 613.436C126.226 613.138 126.41 613.145 126.86 613.225Z" fill="#D45A82"/>
<path d="M110.986 641.309C111.402 641.067 111.626 641.068 112.188 641.067C112.515 641.781 112.503 642.497 112.52 643.572C112.26 643.964 111.97 643.997 111.249 644.104C110.419 644.131 110.021 644.086 109.329 643.981C109.032 643.527 109.03 643.133 109.044 642.444C109.637 641.95 110.216 641.751 110.986 641.309Z" fill="#8E2A64"/>
<path d="M57.2856 651.725C56.0491 653.134 54.6636 653.69 53.3187 652.802C52.7545 652.43 52.9548 651.103 53.6722 650.606C55.0938 649.622 56.4531 649.737 57.2856 651.725Z" fill="#BF4273"/>
<path d="M54.5707 644.571C52.8446 644.467 52.8714 643.591 53.489 642.643C53.897 642.017 54.6791 642.015 55.2052 642.436C56.1616 643.202 55.3652 643.821 54.5707 644.571Z" fill="#B2396D"/>
<path d="M74.4361 642.678C74.9 644.01 75.5058 645.325 73.7769 645.586C72.9433 645.712 72.3139 644.886 72.2036 644.041C72.007 642.534 72.6728 641.903 74.4361 642.678Z" fill="#BD3D6F"/>
<path d="M93.2947 645.897C94.1061 647.332 94.7383 648.819 92.8133 649.665C92.4824 649.811 91.5949 649.532 91.5221 649.284C91.0886 647.813 92.0595 646.84 93.2947 645.897Z" fill="#BF4475"/>
</g>
<defs>
<clipPath id="clip0_8_173">
<rect width="104" height="61" fill="white" transform="translate(37 603)"/>
</clipPath>
</defs>
</svg>
