<svg width="800" height="800" viewBox="0 0 800 800" fill="none" xmlns="http://www.w3.org/2000/svg">
<path d="M521.336 680.977H278.727C252.425 680.977 231.027 659.578 231.027 633.276V169.701C231.027 143.399 252.425 122 278.727 122H521.336C547.637 122 569.036 143.399 569.036 169.701V633.276C569.036 659.578 547.637 680.977 521.336 680.977H521.336V680.977Z" fill="#3F3D56"/>
<path d="M569.036 292.518C567.923 292.518 567.018 293.423 567.018 294.536V359.111C567.018 360.224 567.923 361.129 569.036 361.129C570.149 361.129 571.054 360.224 571.054 359.111V294.536C571.054 293.423 570.149 292.518 569.036 292.518Z" fill="#3F3D56"/>
<path d="M564.496 169.701V633.268C564.496 656.161 546.677 674.888 524.147 676.341H524.137C523.804 676.361 523.471 676.382 523.128 676.392C522.532 676.422 521.937 676.432 521.332 676.432C521.332 676.432 519.112 676.27 515.056 675.968C510.959 675.665 504.996 675.211 497.56 674.616C495.33 674.444 492.979 674.253 490.497 674.051C485.553 673.647 480.125 673.203 474.303 672.699C471.982 672.507 469.581 672.295 467.129 672.083C454.597 671.004 440.563 669.742 425.761 668.31C423.258 668.078 420.736 667.835 418.193 667.583C417.527 667.513 416.851 667.452 416.175 667.381C405.621 666.342 394.775 665.222 383.888 664.032C383.212 663.961 382.536 663.89 381.87 663.82C363.113 661.751 344.285 659.501 326.669 657.08C313.118 655.223 300.284 653.266 288.761 651.238C285.008 650.572 281.396 649.906 277.945 649.23C277.269 649.099 276.593 648.967 275.927 648.826C251.54 643.943 235.568 638.676 235.568 633.268V169.701C235.568 145.859 254.89 126.537 278.732 126.537H304.501C308.618 126.537 311.927 129.745 312.281 133.852C312.311 134.124 312.341 134.397 312.392 134.669C313.138 138.796 316.922 141.671 321.119 141.671H478.944C483.142 141.671 486.925 138.796 487.672 134.669C487.722 134.397 487.753 134.124 487.783 133.852C488.136 129.745 491.445 126.537 495.562 126.537H521.332C545.174 126.537 564.496 145.859 564.496 169.701H564.496V169.701Z" fill="white"/>
<path d="M230.018 244.087C228.905 244.087 228 244.992 228 246.105V262.249C228 263.362 228.905 264.267 230.018 264.267C231.131 264.267 232.036 263.362 232.036 262.249V246.105C232.036 244.992 231.131 244.087 230.018 244.087Z" fill="#3F3D56"/>
<path d="M230.018 292.518C228.905 292.518 228 293.423 228 294.536V325.814C228 326.927 228.905 327.832 230.018 327.832C231.131 327.832 232.036 326.927 232.036 325.814V294.536C232.036 293.423 231.131 292.518 230.018 292.518Z" fill="#3F3D56"/>
<path d="M230.018 336.913C228.905 336.913 228 337.818 228 338.931V370.21C228 371.323 228.905 372.228 230.018 372.228C231.131 372.228 232.036 371.323 232.036 370.21V338.931C232.036 337.818 231.131 336.913 230.018 336.913Z" fill="#3F3D56"/>
<path d="M303.868 133.604H265.138C264.967 133.604 264.828 133.742 264.828 133.914V138.338C264.828 138.51 264.967 138.648 265.138 138.648H303.868C304.039 138.648 304.178 138.51 304.178 138.338V133.914C304.178 133.742 304.039 133.604 303.868 133.604Z" fill="#3F3D56"/>
<path d="M501.939 138.648C504.168 138.648 505.975 136.841 505.975 134.612C505.975 132.383 504.168 130.576 501.939 130.576C499.71 130.576 497.903 132.383 497.903 134.612C497.903 136.841 499.71 138.648 501.939 138.648Z" fill="#3F3D56"/>
<path d="M513.038 138.648C515.266 138.648 517.073 136.841 517.073 134.612C517.073 132.383 515.266 130.576 513.038 130.576C510.809 130.576 509.002 132.383 509.002 134.612C509.002 136.841 510.809 138.648 513.038 138.648Z" fill="#3F3D56"/>
<path d="M524.136 138.648C526.365 138.648 528.172 136.841 528.172 134.612C528.172 132.383 526.365 130.576 524.136 130.576C521.907 130.576 520.1 132.383 520.1 134.612C520.1 136.841 521.907 138.648 524.136 138.648Z" fill="#3F3D56"/>
<path d="M425.71 582.271L434.822 582.27L439.157 547.122L425.708 547.123L425.71 582.271Z" fill="#FFB6B6"/>
<path d="M456.93 582.064C457.213 582.542 457.363 584.084 457.363 584.64C457.363 586.348 455.978 587.733 454.27 587.733H426.051C424.885 587.733 423.941 586.788 423.941 585.623V584.448C423.941 584.448 422.545 580.917 425.419 576.565C425.419 576.565 428.991 579.972 434.329 574.635L435.903 571.783L447.297 580.116L453.612 580.894C454.994 581.064 456.219 580.867 456.93 582.064H456.93V582.064Z" fill="#2F2E41"/>
<path d="M362.778 582.271L371.89 582.27L376.225 547.122L362.776 547.123L362.778 582.271Z" fill="#FFB6B6"/>
<path d="M393.998 582.064C394.281 582.542 394.431 584.084 394.431 584.64C394.431 586.348 393.046 587.733 391.338 587.733H363.119C361.953 587.733 361.009 586.788 361.009 585.623V584.448C361.009 584.448 359.613 580.917 362.487 576.565C362.487 576.565 366.059 579.972 371.397 574.635L372.971 571.783L384.365 580.116L390.68 580.894C392.062 581.064 393.287 580.867 393.998 582.064H393.998V582.064Z" fill="#2F2E41"/>
<path d="M428.434 416.272L431.811 420.714C431.811 420.714 432.117 422.788 437.239 439.688L440.049 566.71H423.049L400.33 465.077L376.748 568.748L362.013 569.617L362.704 451.784C362.704 451.784 361.152 447.684 362.472 442.879C367.524 424.487 367.232 429.336 367.44 423.04C367.703 415.058 428.434 416.272 428.434 416.272V416.272Z" fill="#2F2E41"/>
<path d="M401.638 309.531C411.489 309.531 419.475 301.546 419.475 291.694C419.475 281.843 411.489 273.857 401.638 273.857C391.787 273.857 383.801 281.843 383.801 291.694C383.801 301.546 391.787 309.531 401.638 309.531Z" fill="#FEB8B8"/>
<path d="M392.048 312.887L382.178 318.342C373.943 318.939 368.037 321.13 362.79 323.771L368.577 374.509L367.524 424.487C367.524 424.487 400.343 446.97 431.813 420.713V352.805L430.335 325.8C430.163 322.651 427.378 320.208 424.252 320.622C422.467 320.858 420.411 320.812 418.311 320.112L411.778 312.531L392.048 312.888V312.887V312.887Z" fill="#16F2F7"/>
<path d="M447.852 271.031C448.847 273.275 449.253 275.559 449.121 277.539L459.954 298.325L449.912 303.19L440.005 281.581C438.449 280.349 437.029 278.515 436.034 276.271C433.76 271.142 434.562 265.812 437.826 264.365C441.089 262.918 445.578 265.902 447.852 271.031V271.031V271.031Z" fill="#FFB6B6"/>
<path d="M418.311 320.112L421.299 321.479C424.04 318.532 432.299 318.995 436.306 319.377L453.915 321.056L445.692 295.331L458.071 290.35L472.863 318.817C473.758 323.646 471.75 328.553 467.727 331.371L429.988 352.803L425.601 323.446L418.311 320.112V320.112V320.112Z" fill="#16F2F7"/>
<path d="M327.047 440.777C327.235 438.329 327.961 436.126 329.016 434.446L329.333 411.008L340.481 411.486L338.959 435.209C339.744 437.031 340.125 439.319 339.937 441.767C339.508 447.36 336.274 451.673 332.715 451.4C329.155 451.126 326.618 446.371 327.047 440.777L327.047 440.777L327.047 440.777V440.777Z" fill="#FFB6B6"/>
<path d="M371.051 330.183L365.928 322.401C365.928 322.401 357.573 323.996 353.134 330.296C348.695 336.595 331.914 375.23 331.914 375.23L328.692 418.843L341.173 416.273L347.195 383.196L366.56 356.734L371.051 330.183L371.051 330.183V330.183Z" fill="#16F2F7"/>
<path d="M419.475 294.06C420.145 290.66 409.806 285.711 409.824 285.717C411.429 286.229 408.905 289.17 407.256 288.823C407.256 288.823 404.834 290.055 406.154 291.115C401.604 290.725 395.525 286.401 390.975 286.011C389.145 285.851 388.436 290.264 387.286 291.694C385.546 293.884 383.801 289.529 384.445 295.331H384.185C383.235 293.041 382.285 290.711 381.975 288.251C381.675 285.791 382.095 283.141 383.665 281.221C384.185 280.571 382.142 278.431 382.692 277.811C384.442 275.801 387.835 274.701 389.395 272.551C391.46 269.703 393.809 271.713 398.109 269.318C399.234 268.691 401.189 268.466 402.435 268.791L405.345 269.551C404.777 270.402 405.479 271.524 406.493 271.387L410.285 270.871C411.715 271.331 413.075 272.011 413.715 273.321C414.105 274.101 414.175 275.011 414.475 275.831C415.025 277.341 416.325 278.431 417.365 279.651C420.16 280.465 420.311 282.555 420.311 286.06C422.916 287.522 420.197 290.79 419.475 294.06V294.06L419.475 294.06Z" fill="#2F2E41"/>
<path d="M314.562 447.018C314.954 446.019 315.039 445.1 314.816 444.26C314.654 443.395 314.272 442.644 313.67 442.007C313.024 441.352 312.188 440.799 311.162 440.347C310.18 439.912 309.103 439.59 307.932 439.382L304.04 449.886C309.573 451.754 313.081 450.798 314.562 447.018ZM295.644 427.573C295.941 426.687 296.192 425.983 296.396 425.462C296.661 424.914 296.97 424.509 297.324 424.246C297.617 424.01 298.037 423.899 298.583 423.913C299.189 423.9 300 423.942 301.014 424.039C303.026 424.276 305.257 424.724 307.705 425.383C310.197 426.059 312.656 426.948 315.081 428.049C317.506 429.15 319.773 430.465 321.881 431.993C324.032 433.537 325.803 435.284 327.195 437.233C328.586 439.182 329.472 441.334 329.852 443.688C330.249 445.999 329.912 448.524 328.839 451.261C327.408 454.91 325.608 457.713 323.437 459.67C321.267 461.626 318.893 462.951 316.315 463.645C313.694 464.321 310.931 464.466 308.025 464.079C305.163 463.709 302.294 463.035 299.419 462.059L295.374 472.954C294.974 474.101 294.502 474.793 293.958 475.031C293.44 475.329 292.703 475.291 291.747 474.916L282.884 471.442C281.972 471.084 281.427 470.62 281.249 470.049C281.055 469.522 281.158 468.685 281.557 467.538L295.644 427.573ZM347.783 454.927C350.563 456.017 352.831 457.458 354.585 459.248C356.4 461.012 357.714 463.031 358.527 465.304C359.323 467.621 359.626 470.171 359.438 472.954C359.292 475.754 358.672 478.744 357.576 481.923C357.279 482.809 356.918 483.345 356.495 483.53C356.115 483.732 355.517 483.723 354.701 483.503L333.862 477.59C333.948 478.777 334.497 479.869 335.509 480.867C336.582 481.839 337.883 482.675 339.413 483.375C340.943 484.075 342.615 484.605 344.429 484.965C346.26 485.282 347.998 485.387 349.644 485.28C350.978 485.202 351.42 485.801 350.969 487.078L348.908 493.488C348.747 494.026 348.498 494.405 348.162 494.624C347.869 494.86 347.375 494.967 346.682 494.946C344.645 494.899 342.546 494.628 340.385 494.132C338.25 493.696 336.248 493.112 334.38 492.379C331.426 491.221 328.976 489.735 327.031 487.92C325.112 486.165 323.694 484.156 322.777 481.891C321.843 479.671 321.406 477.269 321.467 474.686C321.527 472.103 322.085 469.465 323.141 466.771C324.06 464.425 325.324 462.289 326.931 460.362C328.599 458.41 330.512 456.854 332.67 455.695C334.785 454.519 337.112 453.827 339.649 453.619C342.247 453.384 344.959 453.82 347.783 454.927ZM347.535 471.672C347.991 469.996 347.864 468.593 347.155 467.463C346.445 466.332 345.46 465.52 344.2 465.026C342.679 464.43 341.185 464.471 339.716 465.148C338.265 465.782 337.259 466.942 336.698 468.627L347.535 471.672ZM366.555 467.323C367.006 466.046 367.533 465.276 368.138 465.012C368.803 464.721 369.705 464.724 370.842 465.019C372.431 465.441 374.294 465.996 376.43 466.683C378.584 467.327 380.72 468.014 382.84 468.745C384.942 469.519 386.906 470.263 388.731 470.979C390.556 471.694 391.951 472.291 392.916 472.769C393.577 473.129 393.935 473.495 393.99 473.867C394.088 474.256 393.945 474.877 393.56 475.729L389.658 484.725C389.196 485.647 388.745 486.096 388.303 486.073C387.904 486.067 387.205 485.869 386.206 485.477C385.728 485.29 385.133 485.081 384.42 484.852C383.725 484.58 382.978 484.312 382.179 484.049C381.336 483.769 380.485 483.51 379.626 483.274C378.783 482.994 377.962 482.722 377.163 482.459L369.639 501.463C369.128 502.767 368.561 503.572 367.939 503.88C367.301 504.231 366.416 504.185 365.287 503.742L357.466 500.677C356.336 500.234 355.678 499.675 355.492 499.001C355.288 498.369 355.42 497.394 355.887 496.073L366.555 467.323ZM411.606 495.96L404.147 514.99C403.636 516.294 403.069 517.099 402.447 517.407C401.852 517.775 400.989 517.738 399.86 517.295L391.713 514.101C390.584 513.659 389.904 513.091 389.674 512.4C389.427 511.751 389.558 510.776 390.069 509.472L397.464 490.416L395.053 489.471C393.966 489.045 393.309 488.612 393.081 488.172C392.852 487.732 392.934 487.012 393.326 486.012L395.727 479.886C396.119 478.887 396.548 478.303 397.015 478.135C397.482 477.968 398.258 478.097 399.344 478.522L401.756 479.468L403.033 476.209C403.663 474.601 404.498 473.174 405.538 471.928C406.578 470.681 407.789 469.702 409.171 468.991C410.552 468.279 412.101 467.909 413.816 467.88C415.549 467.807 417.437 468.171 419.479 468.972C422.042 469.976 424.298 471.061 426.248 472.226C428.197 473.392 429.739 474.572 430.874 475.769C431.267 476.174 431.49 476.562 431.545 476.934C431.616 477.263 431.464 477.78 431.088 478.484L427.618 484.267C426.984 485.372 426.071 485.465 424.877 484.546C423.884 483.756 423.021 483.142 422.291 482.705C421.603 482.285 420.868 481.922 420.086 481.615C419.13 481.241 418.393 481.202 417.876 481.501C417.375 481.755 416.86 482.556 416.332 483.903L415.898 485.011L421.829 487.336C422.915 487.762 423.572 488.195 423.8 488.635C424.029 489.076 423.947 489.795 423.555 490.795L421.154 496.921C420.762 497.92 420.333 498.504 419.866 498.672C419.399 498.839 418.623 498.711 417.537 498.285L411.606 495.96ZM444.904 492.998C447.685 494.088 449.952 495.528 451.706 497.318C453.521 499.082 454.835 501.101 455.648 503.375C456.444 505.692 456.748 508.242 456.559 511.025C456.414 513.825 455.793 516.814 454.697 519.994C454.4 520.88 454.04 521.415 453.616 521.6C453.236 521.802 452.638 521.793 451.822 521.574L430.983 515.66C431.069 516.847 431.618 517.94 432.631 518.938C433.703 519.91 435.005 520.746 436.535 521.446C438.065 522.146 439.737 522.676 441.55 523.036C443.381 523.352 445.119 523.457 446.765 523.351C448.099 523.272 448.541 523.871 448.09 525.148L446.029 531.558C445.868 532.096 445.619 532.475 445.283 532.694C444.99 532.93 444.497 533.037 443.803 533.016C441.766 532.97 439.667 532.698 437.506 532.202C435.371 531.766 433.37 531.182 431.501 530.45C428.547 529.292 426.097 527.805 424.152 525.99C422.233 524.235 420.816 522.226 419.899 519.962C418.965 517.741 418.528 515.339 418.588 512.757C418.648 510.174 419.206 507.535 420.262 504.842C421.182 502.495 422.445 500.359 424.052 498.433C425.72 496.48 427.633 494.924 429.791 493.765C431.906 492.59 434.233 491.897 436.771 491.689C439.369 491.455 442.08 491.891 444.904 492.998ZM444.656 509.742C445.112 508.066 444.986 506.663 444.276 505.533C443.566 504.403 442.581 503.591 441.321 503.097C439.801 502.501 438.306 502.541 436.837 503.219C435.386 503.853 434.38 505.012 433.82 506.697L444.656 509.742ZM488.478 522.785C488.283 523.41 488.021 523.758 487.692 523.83C487.407 523.919 487.047 523.878 486.612 523.707C484.44 522.856 482.547 522.314 480.933 522.083C479.337 521.808 477.994 521.783 476.903 522.007C475.752 522.257 474.82 522.719 474.105 523.391C473.407 524.02 472.871 524.812 472.497 525.768C471.713 527.767 472.189 529.557 473.925 531.14C475.721 532.696 478.699 534.114 482.859 535.394C483.267 535.503 483.502 535.671 483.564 535.896C483.643 536.077 483.636 536.35 483.544 536.715L479.836 547.517C479.675 548.055 479.303 548.235 478.722 548.057C475.092 547.086 471.717 545.788 468.594 544.163C465.515 542.555 462.98 540.583 460.988 538.249C458.996 535.914 457.725 533.21 457.175 530.138C456.669 527.082 457.173 523.621 458.689 519.754C460.052 516.278 461.883 513.588 464.184 511.683C466.545 509.751 469.166 508.498 472.048 507.924C474.93 507.349 478.002 507.375 481.265 508.003C484.588 508.604 487.902 509.677 491.205 511.223C491.71 511.47 492.015 511.715 492.12 511.957C492.27 512.216 492.267 512.541 492.114 512.932L488.478 522.785ZM497.868 528.27L493.958 526.737C492.871 526.311 492.214 525.878 491.986 525.438C491.757 524.997 491.839 524.278 492.231 523.278L495.015 516.175C495.407 515.175 495.836 514.592 496.303 514.424C496.77 514.256 497.546 514.385 498.633 514.811L502.543 516.343L505.992 507.545C506.486 506.285 507.044 505.501 507.665 505.194C508.304 504.843 509.188 504.889 510.318 505.331L518.008 508.346C519.138 508.789 519.805 509.326 520.008 509.957C520.256 510.605 520.124 511.581 519.613 512.885L516.164 521.683L521.117 523.624C522.203 524.05 522.86 524.483 523.089 524.923C523.317 525.364 523.236 526.084 522.844 527.083L520.059 534.187C519.668 535.186 519.238 535.77 518.771 535.938C518.305 536.105 517.528 535.976 516.442 535.551L511.489 533.609L508.244 541.886C507.699 543.276 507.637 544.33 508.058 545.046C508.496 545.719 509.193 546.243 510.149 546.617C510.627 546.805 511.07 546.953 511.478 547.063C511.903 547.13 512.307 547.187 512.688 547.237C513.625 547.404 513.932 547.9 513.608 548.725L510.026 558.824C509.838 559.302 509.624 559.594 509.382 559.7C509.123 559.849 508.737 559.873 508.225 559.773C505.752 559.305 503.299 558.594 500.866 557.64C498.607 556.754 496.784 555.714 495.398 554.519C494.038 553.384 493.063 552.1 492.473 550.666C491.839 549.214 491.572 547.656 491.673 545.991C491.835 544.3 492.282 542.521 493.014 540.653L497.868 528.27Z" fill="#ED930D"/>
<path d="M622.182 90.0764C622.71 88.5931 624.183 87.7175 625.683 87.8857C626.308 87.9558 626.933 88.0115 627.561 87.9746C643.221 87.0535 662.619 96.0205 683.268 108.3C664.365 93.0048 647.064 79.4743 626.716 93.3791C625.263 94.3722 623.203 94.0214 622.358 92.4774C622.018 91.8571 621.896 91.1137 622.098 90.3469C622.122 90.2565 622.15 90.1662 622.182 90.0764L622.182 90.0764Z" fill="#E6E6E6"/>
<path d="M726.631 53.3889C727.922 54.2119 728.453 55.777 728.023 57.1723L727.974 57.3297C727.543 58.7304 726.604 59.9071 725.36 60.6817C707.552 71.7676 728.17 85.9548 695.213 108.855C711.172 91.7777 724.299 52.2304 726.293 53.1996C726.408 53.2554 726.521 53.3185 726.631 53.3889V53.3889Z" fill="#E6E6E6"/>
<path d="M753.926 140.078C753.262 141.457 751.771 142.17 750.334 141.909L750.172 141.879C748.73 141.617 747.45 140.824 746.534 139.681C733.412 123.315 721.773 145.471 695.123 115.466H695.123C713.973 129.285 754.799 137.624 754.074 139.719C754.032 139.84 753.983 139.96 753.926 140.078L753.926 140.078Z" fill="#E6E6E6"/>
<path d="M729.943 139.055C729.26 139.434 728.158 139.381 727.268 138.97L727.167 138.923C726.274 138.511 725.583 137.932 725.192 137.299C719.6 128.238 707.987 134.118 696.042 116.941C705.834 126.281 730.958 138.314 730.105 138.951C730.055 138.988 730.002 139.023 729.943 139.055V139.055Z" fill="#E6E6E6"/>
<path d="M735.332 102.913C735.163 103.676 734.393 104.466 733.495 104.859L733.394 104.904C732.493 105.299 731.601 105.433 730.868 105.306C720.376 103.487 717.081 116.079 696.302 113.638C709.786 112.496 735.45 101.662 735.361 102.723C735.356 102.784 735.347 102.848 735.332 102.913V102.913Z" fill="#E6E6E6"/>
<path d="M630.332 150.244C629.579 148.911 629.845 147.28 630.88 146.25L630.997 146.134C632.035 145.1 633.417 144.502 634.879 144.402C655.807 142.977 644.266 120.769 684.117 116.027C662.008 123.61 631.847 152.362 630.542 150.57C630.467 150.467 630.397 150.358 630.332 150.244V150.244Z" fill="#E6E6E6"/>
<path d="M714.494 150.005C713.72 150.521 712.726 150.418 712.065 149.817L711.991 149.749C711.327 149.145 710.913 148.313 710.796 147.412C709.125 134.515 696.188 142.496 691.783 118.015C697.212 131.41 715.712 148.987 714.682 149.863C714.623 149.913 714.56 149.96 714.494 150.005L714.494 150.005Z" fill="#E6E6E6"/>
<path d="M691.055 171.216C689.869 171.226 688.871 170.429 688.572 169.335L688.538 169.211C688.237 168.114 688.362 166.947 688.852 165.913C695.877 151.12 676.504 150.595 688.514 121.66V121.66C685.189 139.583 693.061 170.984 691.355 171.196C691.257 171.209 691.157 171.215 691.055 171.216V171.216Z" fill="#16F2F7"/>
<path d="M648.136 151C647.372 150.093 647.349 148.816 648.001 147.887L648.074 147.783C648.728 146.851 649.705 146.202 650.814 145.921C666.688 141.893 654.734 126.64 684.677 117.43C668.754 126.303 649.594 152.396 648.342 151.218C648.27 151.15 648.201 151.077 648.136 151V151Z" fill="#16F2F7"/>
<path d="M657.767 137.757C657.283 137.305 657.27 136.626 657.685 136.105L657.731 136.046C658.147 135.523 658.767 135.137 659.47 134.941C669.535 132.141 661.976 124.512 680.965 118.371C670.863 123.754 658.689 138.44 657.897 137.864C657.852 137.831 657.808 137.795 657.767 137.757V137.757Z" fill="#16F2F7"/>
<path d="M671.843 147.408C671.232 147.155 670.981 146.524 671.185 145.89L671.208 145.819C671.413 145.183 671.859 144.604 672.448 144.173C680.888 138.015 671.129 133.529 686.749 121.106C679.183 129.696 672.947 147.723 672.003 147.463C671.949 147.448 671.895 147.43 671.843 147.408V147.408Z" fill="#E6E6E6"/>
<path d="M630.663 104.621L632.198 109.345H637.165L633.146 112.265L634.681 116.989L630.663 114.07L626.644 116.989L628.179 112.265L624.16 109.345H629.128L630.663 104.621Z" fill="#16F2F7"/>
<path d="M699.115 48L700.65 52.7242H705.617L701.599 55.6439L703.134 60.3681L699.115 57.4484L695.096 60.3681L696.631 55.6439L692.613 52.7242H697.58L699.115 48Z" fill="#E6E6E6"/>
<path d="M735.454 98.7053L736.989 103.43H741.956L737.938 106.349L739.473 111.073L735.454 108.154L731.435 111.073L732.97 106.349L728.952 103.43H733.919L735.454 98.7053Z" fill="#16F2F7"/>
<path d="M661.931 150.256L663.466 154.98H668.433L664.415 157.9L665.95 162.624L661.931 159.704L657.912 162.624L659.447 157.9L655.429 154.98H660.396L661.931 150.256Z" fill="#16F2F7"/>
<path d="M689.819 98.7053L691.354 103.43H696.321L692.303 106.349L693.838 111.073L689.819 108.154L685.8 111.073L687.335 106.349L683.317 103.43H688.284L689.819 98.7053Z" fill="#16F2F7"/>
<path d="M728.169 48L729.705 52.7242H734.672L730.653 55.6439L732.188 60.3681L728.169 57.4484L724.151 60.3681L725.686 55.6439L721.667 52.7242H726.635L728.169 48Z" fill="#E6E6E6"/>
<path d="M628.059 141.368L630.006 145.938L634.954 145.499L631.209 148.762L633.155 153.332L628.894 150.779L625.15 154.043L626.261 149.201L622 146.648L626.948 146.209L628.059 141.368Z" fill="#E6E6E6"/>
<path d="M670.553 54.086C671.449 53.6449 672.456 53.9424 673.026 54.7417L673.091 54.8318C673.663 55.6337 673.935 56.6482 673.888 57.6858C673.204 72.5363 688.058 65.898 688.033 94.3133C684.929 78.2143 669.105 55.0113 670.332 54.2118C670.403 54.1658 670.476 54.1237 670.553 54.086V54.086Z" fill="#16F2F7"/>
<path d="M657.6 76.098C657.997 75.6021 658.648 75.5337 659.181 75.8838L659.241 75.9232C659.775 76.2743 660.193 76.8315 660.434 77.4828C663.889 86.8059 670.647 79.0012 677.989 96.5194C672.05 87.3739 657.013 77.0303 657.506 76.2308C657.534 76.1847 657.566 76.1404 657.6 76.098L657.6 76.098Z" fill="#E6E6E6"/>
<path d="M646.166 103.197C646.221 102.564 646.724 102.145 647.361 102.14L647.433 102.139C648.073 102.134 648.73 102.365 649.292 102.772C657.347 108.601 658.626 98.3562 674.467 108.836C664.446 104.536 646.197 104.298 646.162 103.36C646.16 103.306 646.162 103.251 646.166 103.197V103.197Z" fill="#E6E6E6"/>
<path d="M61.1088 572.166C61.4248 571.279 62.3059 570.755 63.203 570.856C63.5768 570.898 63.9504 570.931 64.3259 570.909C73.6927 570.358 85.2943 575.721 97.6446 583.066C86.3387 573.918 75.991 565.825 63.8207 574.141C62.9514 574.735 61.7198 574.526 61.2141 573.602C61.0109 573.231 60.9376 572.787 61.0587 572.328C61.073 572.274 61.0897 572.22 61.1088 572.166L61.1088 572.166Z" fill="#E6E6E6"/>
<path d="M123.581 550.223C124.353 550.715 124.67 551.651 124.413 552.486L124.384 552.58C124.126 553.418 123.564 554.122 122.82 554.585C112.17 561.215 124.501 569.701 104.789 583.398C114.334 573.184 122.186 549.53 123.378 550.11C123.447 550.143 123.515 550.181 123.581 550.223V550.223Z" fill="#E6E6E6"/>
<path d="M139.906 602.072C139.509 602.898 138.617 603.324 137.758 603.168L137.661 603.15C136.798 602.993 136.033 602.519 135.485 601.835C127.637 592.047 120.675 605.298 104.735 587.352H104.735C116.01 595.617 140.428 600.605 139.994 601.858C139.969 601.93 139.94 602.002 139.906 602.072L139.906 602.072Z" fill="#E6E6E6"/>
<path d="M125.562 601.461C125.153 601.688 124.494 601.656 123.962 601.41L123.901 601.382C123.367 601.135 122.954 600.789 122.72 600.41C119.375 594.991 112.43 598.508 105.285 588.234C111.142 593.82 126.169 601.017 125.658 601.399C125.629 601.421 125.597 601.441 125.562 601.461V601.461Z" fill="#E6E6E6"/>
<path d="M128.785 579.844C128.684 580.3 128.223 580.773 127.686 581.008L127.625 581.035C127.087 581.271 126.553 581.351 126.115 581.275C119.84 580.187 117.869 587.719 105.441 586.259C113.506 585.576 128.855 579.096 128.802 579.73C128.799 579.767 128.794 579.805 128.785 579.844V579.844Z" fill="#E6E6E6"/>
<path d="M65.9835 608.153C65.533 607.356 65.6921 606.38 66.3112 605.764L66.3811 605.695C67.0022 605.076 67.8286 604.719 68.7032 604.659C81.2201 603.806 74.3177 590.524 98.1526 587.688C84.9288 592.223 66.8898 609.42 66.1089 608.348C66.064 608.286 66.022 608.221 65.9835 608.153V608.153Z" fill="#E6E6E6"/>
<path d="M116.321 608.01C115.858 608.319 115.264 608.257 114.869 607.897L114.824 607.857C114.427 607.496 114.18 606.998 114.11 606.459C113.11 598.746 105.372 603.519 102.738 588.877C105.985 596.888 117.05 607.401 116.434 607.925C116.398 607.955 116.361 607.983 116.321 608.01L116.321 608.01Z" fill="#E6E6E6"/>
<path d="M102.302 620.697C101.593 620.702 100.996 620.226 100.817 619.571L100.797 619.498C100.617 618.841 100.692 618.143 100.985 617.525C105.186 608.677 93.5995 608.363 100.782 591.057V591.057C98.7938 601.777 103.502 620.558 102.482 620.685C102.423 620.692 102.363 620.696 102.302 620.697V620.697Z" fill="#16F2F7"/>
<path d="M76.632 608.605C76.1751 608.062 76.1614 607.299 76.5511 606.743L76.5951 606.681C76.986 606.123 77.5709 605.735 78.2342 605.567C87.7281 603.158 80.5782 594.035 98.4877 588.526C88.9637 593.833 77.5043 609.44 76.7554 608.735C76.7123 608.695 76.6711 608.651 76.632 608.605V608.605Z" fill="#16F2F7"/>
<path d="M82.3923 600.684C82.1033 600.414 82.0955 600.008 82.3431 599.696L82.3711 599.661C82.6194 599.348 82.9906 599.117 83.4112 599C89.4313 597.325 84.9101 592.762 96.2675 589.09C90.2251 592.309 82.9442 601.093 82.4703 600.749C82.443 600.729 82.417 600.707 82.3923 600.684V600.684Z" fill="#16F2F7"/>
<path d="M90.8114 606.457C90.4459 606.305 90.2959 605.928 90.4182 605.549L90.432 605.506C90.5545 605.126 90.8209 604.779 91.1736 604.522C96.2211 600.839 90.3847 598.155 99.727 590.726C95.2013 595.863 91.4717 606.645 90.9071 606.49C90.8746 606.481 90.8426 606.47 90.8114 606.457V606.457Z" fill="#E6E6E6"/>
<path d="M66.1812 580.865L67.0993 583.691H70.0703L67.6667 585.437L68.5848 588.263L66.1812 586.517L63.7776 588.263L64.6957 585.437L62.2921 583.691H65.2631L66.1812 580.865Z" fill="#16F2F7"/>
<path d="M107.123 547L108.041 549.826H111.012L108.609 551.572L109.527 554.397L107.123 552.651L104.72 554.397L105.638 551.572L103.234 549.826H106.205L107.123 547Z" fill="#E6E6E6"/>
<path d="M128.858 577.327L129.776 580.153H132.747L130.343 581.899L131.261 584.725L128.858 582.978L126.454 584.725L127.372 581.899L124.969 580.153H127.94L128.858 577.327Z" fill="#16F2F7"/>
<path d="M84.8831 608.16L85.8012 610.986H88.7722L86.3686 612.732L87.2867 615.558L84.8831 613.811L82.4795 615.558L83.3976 612.732L80.994 610.986H83.965L84.8831 608.16Z" fill="#16F2F7"/>
<path d="M101.563 577.327L102.481 580.153H105.452L103.049 581.899L103.967 584.725L101.563 582.978L99.1596 584.725L100.078 581.899L97.6741 580.153H100.645L101.563 577.327Z" fill="#16F2F7"/>
<path d="M124.501 547L125.419 549.826H128.39L125.986 551.572L126.904 554.397L124.501 552.651L122.097 554.397L123.015 551.572L120.612 549.826H123.583L124.501 547Z" fill="#E6E6E6"/>
<path d="M64.6241 602.844L65.7883 605.577L68.7477 605.315L66.5079 607.267L67.6722 610L65.1236 608.473L62.8838 610.425L63.5485 607.529L61 606.002L63.9593 605.74L64.6241 602.844Z" fill="#E6E6E6"/>
<path d="M90.04 550.64C90.5759 550.376 91.1781 550.554 91.5192 551.032L91.5577 551.086C91.9002 551.566 92.0629 552.173 92.0343 552.793C91.6257 561.675 100.51 557.705 100.495 574.7C98.6383 565.071 89.1739 551.194 89.9078 550.715C89.9501 550.688 89.9941 550.663 90.04 550.64V550.64Z" fill="#16F2F7"/>
<path d="M82.2924 563.806C82.53 563.509 82.9198 563.468 83.2381 563.678L83.2741 563.701C83.5937 563.911 83.8436 564.244 83.988 564.634C86.0539 570.21 90.0963 565.542 94.4873 576.02C90.9352 570.55 81.9414 564.363 82.2365 563.885C82.2535 563.858 82.2721 563.831 82.2924 563.806L82.2924 563.806Z" fill="#E6E6E6"/>
<path d="M75.4541 580.014C75.4866 579.635 75.7879 579.385 76.1689 579.382L76.2119 579.381C76.5943 579.378 76.9873 579.516 77.3239 579.76C82.1414 583.246 82.9061 577.118 92.3813 583.386C86.3875 580.814 75.4724 580.672 75.4517 580.111C75.4505 580.079 75.4513 580.046 75.4541 580.014V580.014Z" fill="#E6E6E6"/>
<path d="M101.28 187.669C102.092 185.39 104.356 184.044 106.661 184.303C107.622 184.41 108.582 184.496 109.547 184.439C133.616 183.024 163.429 196.805 195.165 215.679C166.113 192.17 139.522 171.375 108.248 192.746C106.014 194.272 102.85 193.733 101.55 191.36C101.028 190.406 100.84 189.264 101.151 188.085C101.188 187.946 101.23 187.808 101.28 187.669H101.28V187.669V187.669Z" fill="#E6E6E6"/>
<path d="M261.813 131.282C263.797 132.547 264.613 134.953 263.952 137.097L263.877 137.339C263.215 139.492 261.771 141.301 259.859 142.491C232.49 159.53 264.178 181.335 213.525 216.531V216.531C238.053 190.284 258.228 129.502 261.293 130.991C261.47 131.077 261.643 131.174 261.813 131.282H261.813V131.282Z" fill="#E6E6E6"/>
<path d="M303.764 264.519C302.743 266.639 300.452 267.735 298.244 267.333L297.995 267.288C295.779 266.885 293.811 265.667 292.402 263.909C272.236 238.756 254.346 272.808 213.386 226.691H213.386C242.359 247.931 305.106 260.748 303.991 263.968C303.927 264.154 303.851 264.338 303.764 264.519V264.519H303.764V264.519Z" fill="#E6E6E6"/>
<path d="M266.904 262.947C265.853 263.53 264.159 263.448 262.792 262.816L262.637 262.745C261.265 262.111 260.202 261.221 259.601 260.248C251.006 246.321 233.158 255.359 214.798 228.959H214.798C229.849 243.313 268.463 261.808 267.152 262.788C267.076 262.844 266.993 262.897 266.904 262.947V262.947Z" fill="#E6E6E6"/>
<path d="M275.186 207.398C274.927 208.571 273.743 209.785 272.363 210.39L272.207 210.459C270.822 211.066 269.452 211.272 268.325 211.077C252.2 208.281 247.136 227.635 215.2 223.882H215.2C235.924 222.128 275.367 205.475 275.231 207.107C275.224 207.201 275.209 207.298 275.186 207.398H275.186Z" fill="#E6E6E6"/>
<path d="M113.806 280.144C112.648 278.096 113.057 275.588 114.648 274.006L114.828 273.827C116.424 272.238 118.547 271.319 120.795 271.165C152.959 268.975 135.222 234.843 196.471 227.555V227.555C162.49 239.209 116.135 283.399 114.128 280.645C114.013 280.486 113.905 280.319 113.806 280.144V280.144V280.144Z" fill="#E6E6E6"/>
<path d="M243.159 279.776C241.969 280.57 240.442 280.412 239.426 279.487L239.312 279.383C238.292 278.455 237.655 277.176 237.476 275.791C234.907 255.97 215.023 268.235 208.254 230.61H208.254C216.597 251.197 245.031 278.212 243.448 279.558C243.357 279.635 243.26 279.708 243.159 279.776H243.159Z" fill="#E6E6E6"/>
<path d="M207.135 312.377C205.312 312.392 203.778 311.167 203.318 309.486L203.266 309.296C202.804 307.609 202.995 305.815 203.749 304.227C214.546 281.49 184.771 280.684 203.229 236.212H203.229C198.118 263.759 210.217 312.02 207.595 312.347C207.444 312.366 207.29 312.376 207.135 312.377V312.377H207.135Z" fill="#16F2F7"/>
<path d="M141.17 281.306C139.995 279.912 139.96 277.949 140.962 276.522L141.075 276.361C142.079 274.929 143.582 273.932 145.287 273.499C169.683 267.309 151.31 243.865 197.332 229.71V229.71C172.858 243.348 143.411 283.452 141.487 281.641C141.376 281.537 141.27 281.425 141.169 281.306H141.17Z" fill="#16F2F7"/>
<path d="M155.972 260.952C155.229 260.258 155.209 259.214 155.845 258.413L155.917 258.323C156.556 257.518 157.509 256.925 158.59 256.625C174.06 252.321 162.442 240.596 191.627 231.157C176.1 239.43 157.39 262.002 156.172 261.117C156.102 261.066 156.035 261.011 155.972 260.952V260.952Z" fill="#16F2F7"/>
<path d="M177.606 275.785C176.667 275.396 176.281 274.426 176.596 273.453L176.631 273.343C176.946 272.365 177.63 271.475 178.537 270.814C191.507 261.348 176.51 254.453 200.516 235.361C188.887 248.563 179.303 276.27 177.852 275.869C177.768 275.846 177.686 275.818 177.606 275.785V275.785Z" fill="#E6E6E6"/>
<path d="M114.314 210.024L116.673 217.285H124.308L118.131 221.772L120.491 229.033L114.314 224.546L108.138 229.033L110.497 221.772L104.32 217.285H111.955L114.314 210.024Z" fill="#16F2F7"/>
<path d="M219.522 123L221.881 130.261H229.516L223.339 134.748L225.699 142.009L219.522 137.522L213.346 142.009L215.705 134.748L209.528 130.261H217.163L219.522 123Z" fill="#E6E6E6"/>
<path d="M275.373 200.932L277.732 208.193H285.367L279.191 212.68L281.55 219.941L275.373 215.454L269.197 219.941L271.556 212.68L265.38 208.193H273.014L275.373 200.932Z" fill="#16F2F7"/>
<path d="M162.372 280.163L164.731 287.423H172.366L166.189 291.911L168.549 299.172L162.372 294.684L156.196 299.172L158.555 291.911L152.378 287.423H160.013L162.372 280.163Z" fill="#16F2F7"/>
<path d="M205.235 200.932L207.594 208.193H215.228L209.052 212.68L211.411 219.941L205.235 215.454L199.058 219.941L201.417 212.68L195.241 208.193H202.875L205.235 200.932Z" fill="#16F2F7"/>
<path d="M264.178 123L266.537 130.261H274.171L267.995 134.748L270.354 142.009L264.178 137.522L258.001 142.009L260.36 134.748L254.184 130.261H261.818L264.178 123Z" fill="#E6E6E6"/>
<path d="M110.313 266.502L113.305 273.526L120.909 272.851L115.154 277.867L118.145 284.891L111.596 280.967L105.841 285.983L107.549 278.542L101 274.618L108.605 273.943L110.313 266.502Z" fill="#E6E6E6"/>
<path d="M175.624 132.354C177.001 131.676 178.549 132.133 179.425 133.362L179.524 133.5C180.404 134.733 180.822 136.292 180.749 137.887C179.699 160.711 202.527 150.509 202.49 194.181H202.49C197.719 169.438 173.398 133.776 175.284 132.547C175.393 132.477 175.506 132.412 175.624 132.354H175.624Z" fill="#16F2F7"/>
<path d="M155.715 166.185C156.325 165.423 157.327 165.318 158.145 165.856L158.237 165.917C159.059 166.456 159.701 167.313 160.072 168.314C165.381 182.643 175.768 170.647 187.052 197.572C177.924 183.516 154.813 167.618 155.571 166.389C155.615 166.319 155.663 166.25 155.715 166.185L155.715 166.185Z" fill="#E6E6E6"/>
<path d="M138.142 207.836C138.226 206.863 139 206.218 139.979 206.211L140.09 206.21C141.072 206.202 142.082 206.556 142.947 207.182C155.327 216.141 157.292 200.395 181.64 216.501C166.238 209.893 138.189 209.528 138.136 208.085C138.133 208.002 138.135 207.919 138.142 207.836H138.142Z" fill="#E6E6E6"/>
<g clip-path="url(#clip0_8_47)">
<path d="M728.625 701C729.133 704.254 731.745 703.141 733.33 703.193C737.474 703.329 741.634 703.162 745.782 702.984C748.701 702.858 750.315 703.966 749.972 707.019C749.324 712.778 748.937 718.537 748.853 724.341C748.817 726.823 746.77 728.633 744.291 728.858C740.823 729.173 737.276 729.231 733.816 728.879C729.262 728.416 731.809 724.394 730.615 721.723C728.688 726.206 726.41 729.619 720.684 729.128C716.243 728.748 716.388 725.193 714.71 722.634C710.202 727.681 705.211 731.247 698.152 727.731C697.021 727.167 696.165 727.824 695.445 728.266C693.874 729.229 692.127 729.285 690.611 728.923C681.387 726.723 672.194 729.676 663.017 728.891C659.712 728.608 656.318 727.869 656.968 723.013C657.559 718.603 657.716 714.136 658.258 709.717C658.67 706.354 660.273 703.582 663.111 701.36C664.389 701 665.778 701 667.583 701C669.349 702.15 670.844 702.765 672.943 702.19C674.046 701.974 674.888 701.979 675.785 701.217C676.444 701 676.889 701 677.667 701C678.124 701.122 678.248 701.244 678.567 701.539C679.133 701.735 679.504 701.738 680.176 701.806C683.554 703.348 686.536 702.667 689.748 701.237C691.389 701 692.778 701 694.583 701C697.058 702.634 699.257 702.321 701.747 701.236C703.389 701 704.778 701 706.583 701C710.405 703.274 713.951 702.407 717.75 701.235C718.75 701 719.5 701 720.625 701C722.376 702.486 723.853 702.978 725.767 701.23C726.75 701 727.5 701 728.625 701Z" fill="#862561"/>
<path d="M674.224 702.937C674.077 702.522 674.247 702.064 674.209 701.303C674.444 701 674.889 701 675.667 701C675.76 701.82 675.581 702.687 674.224 702.937Z" fill="#8E1D71"/>
<path d="M709.484 759.928C707.152 757.654 705.24 755.394 702.483 758.96C701.531 760.19 699.973 760.35 698.822 759.923C693.078 757.787 687.225 761.265 681.767 759.797C675.223 758.037 669.031 759.879 662.701 760.064C658.679 760.182 657.199 758.112 657.087 754.786C656.879 748.638 657.045 742.478 657.004 736.324C656.989 734.188 658.164 732.886 659.908 732.087C661.078 731.551 662.408 731.055 663.663 731.061C671.862 731.104 680.005 732.19 688.282 731.206C692.418 730.715 696.188 733.152 697.837 738.366C700.194 733.799 702.714 730.313 708.351 730.894C711.983 731.269 712.756 733.896 714.463 736.574C716.471 732.923 719.198 730.186 723.522 731.086C727.403 731.894 731.474 729.623 735.093 731.816C736.655 732.764 737.445 732.488 738.977 731.755C744.566 729.083 747.958 731.358 747.989 737.507C748.015 742.497 748.013 747.487 747.99 752.478C747.963 758.368 745.965 760.79 740.252 759.785C736.213 759.074 732.517 760.044 728.667 760.007C722.407 759.948 716.146 759.979 709.484 759.928Z" fill="#852460"/>
<path d="M682.734 712.326C683.619 705.555 690.339 703.6 696.165 705.686C697.456 706.149 698.519 706.809 700.114 706.028C704.795 703.736 708.91 704.843 712.625 708.897C714.499 709.99 714.893 711.594 715.315 713.607C715.315 714.861 715.106 715.648 714.39 716.683C712.256 719.486 712.041 723.316 708.075 724.546C704.355 726.382 701.017 725.425 697.335 723.989C696.378 724.069 695.799 724.196 695.082 724.588C685.602 726.936 679.903 721.382 682.734 712.326Z" fill="#FEFEFE"/>
<path d="M661.356 719.257C660.971 718.556 660.906 718.131 660.799 717.385C660.579 716.6 660.518 716.119 660.716 715.291C660.874 714.958 661.007 714.945 661.057 714.99C662.881 713.184 665.222 712.769 667.524 713.104C671.302 713.653 675.13 713.164 679.314 714.088C680.889 715.143 681.142 716.327 680.879 718.088C680.329 719.369 679.587 719.776 678.32 720.057C676.939 720.108 675.968 719.749 674.617 720.086C672.49 720.631 670.702 720.821 668.485 720.539C667.548 720.497 667.009 720.491 666.057 720.504C664.198 720.688 662.842 720.493 661.356 719.257Z" fill="#FF769B"/>
<path d="M680.354 715.145C674 715.004 668.013 715.009 661.567 715.025C661.078 714.863 661.05 714.692 660.99 714.262C660.96 712.573 661.2 711.19 662.093 709.564C664.682 708.029 666.943 707.974 669.509 709.685C669.842 709.983 670.004 710.441 670.048 710.68C670.925 711.916 671.875 711.263 673.167 711.114C675.706 711.964 678.178 710.898 680.586 712.428C681.318 713.015 681.527 713.474 681.435 714.404C681.127 714.953 680.924 715.122 680.354 715.145Z" fill="#FD82A0"/>
<path d="M721.791 712.7C722.528 712.948 722.909 712.948 723.577 712.948C725.509 711.643 727.262 711.209 729.535 712.639C730.393 715.113 729.151 716.685 728.02 718.665C726.28 720.683 724.192 720.737 721.71 720.792C721.066 720.77 720.809 720.728 720.198 720.529C718.371 718.895 717.824 716.826 716.441 714.841C716.321 713.891 716.448 713.365 717.03 712.589C718.737 711.584 720.102 711.598 721.791 712.7Z" fill="#FE789C"/>
<path d="M746.222 716.877C745.575 717.364 745.063 717.602 744.259 717.868C742.635 718.381 741.241 718.664 739.544 719.227C737.632 719.516 736.119 719.526 734.528 718.223C734.203 717.509 734.148 717.071 734.149 716.305C734.277 715.815 734.347 715.653 734.3 715.255C734.169 714.825 734.156 714.633 734.213 714.16C735.106 711.474 737.411 711.594 739.646 710.855C740.282 710.721 740.54 710.682 741.193 710.618C742.924 710.577 744.262 710.558 745.703 711.711C746.283 712.754 746.551 713.547 746.796 714.666C746.512 715.506 746.506 716.085 746.222 716.877Z" fill="#FE7C9E"/>
<path d="M734.149 718.314C735.889 717.964 737.519 717.98 739.562 717.992C741.063 718.37 742.228 718.466 743.638 718.98C745.954 719.258 747.044 720.215 746.72 722.685C744.945 724.886 742.408 723.296 740.292 724.762C738.619 725.06 737.214 725.12 735.388 725.186C734.791 724.991 734.616 724.789 734.403 724.189C734.256 722.087 734.147 720.383 734.149 718.314Z" fill="#FE6796"/>
<path d="M737.595 705.283C739.92 705.043 741.894 705.032 743.859 704.904C748.599 704.594 748.844 706.758 746.537 710.424C744.961 711.027 743.649 710.995 741.946 710.994C741.288 710.989 741.024 710.986 740.364 710.969C738.302 710.845 736.822 710.328 735.522 708.662C735.08 706.757 735.518 705.679 737.595 705.283Z" fill="#FF94A7"/>
<path d="M729.974 712.752C728.154 712.982 726.44 712.979 724.294 712.963C724.221 711.878 724.677 710.828 724.921 709.731C726.055 704.631 726.795 704.246 731.944 706.631C732.555 707.266 732.808 707.692 732.95 708.577C732.895 710.044 732.269 710.807 731.19 711.715C730.632 712.146 730.356 712.333 729.974 712.752Z" fill="#FE8CA4"/>
<path d="M722.075 712.569C720.633 712.989 719.119 713.031 717.153 713.109C713.267 712.68 714.389 709.726 713.804 707.357C718.883 703.754 719.711 704.047 721.043 709.447C721.274 710.383 721.679 711.276 722.075 712.569Z" fill="#FE8CA3"/>
<path d="M713.647 707.175C715.363 708.582 714.469 711.172 716.457 712.911C716.804 713.576 716.906 714.006 717.108 714.753C718.203 716.308 718.92 717.679 719.324 719.569C720.076 721.077 720.879 722.173 721.514 723.737C721.54 724.295 721.497 724.519 721.234 725.001C718.504 726.667 718.283 724.351 717.631 723.053C716.745 721.289 716.107 719.401 715.212 717.243C714.167 716.34 714.642 715.399 714.335 714.341C713.811 712.632 713.412 711.212 712.981 709.415C713.11 708.483 713.27 707.928 713.647 707.175Z" fill="#BC3D6F"/>
<path d="M680.728 715.363C680.932 714.568 680.954 714.118 680.929 713.333C680.807 712.792 680.732 712.585 680.9 712.156C681.559 711.952 681.976 711.97 682.705 711.982C683.151 713.957 683.084 715.977 683.455 717.913C684.404 722.869 687.778 725.024 694.522 724.904C690.456 727.666 686.614 725.785 682.517 723.145C681.248 722.424 680.747 721.529 680.748 719.995C680.95 718.289 680.314 717.027 680.728 715.363Z" fill="#BC3F70"/>
<path d="M667.657 719.394C669.969 719.022 672.016 719.007 674.501 718.988C675.12 719.154 675.302 719.324 675.646 719.833C676.084 721.534 675.646 722.644 674.307 723.759C672.912 725.513 671.256 725.09 669.365 725.193C667.123 723.757 666.295 722.034 667.657 719.394Z" fill="#FB6897"/>
<path d="M672.822 709.389C673.077 708.593 673.185 708.227 673.347 707.581C673.325 706.958 673.384 706.645 673.758 706.167C678.166 702.974 680.038 705.017 680.845 709.619C678.804 712.021 676.423 711.69 673.607 710.791C673.038 710.305 672.855 710.063 672.822 709.389Z" fill="#FF93A6"/>
<path d="M669.851 709.604C667.595 709.983 665.348 709.983 662.679 709.976C661.25 709.46 661.574 708.54 661.791 707.362C666.88 703.363 667.933 703.661 669.851 709.604Z" fill="#FE93A7"/>
<path d="M721.419 725.229C720.989 725.061 720.967 724.862 720.902 724.366C721.659 722.801 719.911 721.746 720.79 720.239C722.807 718.31 725.028 719.261 727.453 718.991C727.611 722.769 726.477 725.691 721.419 725.229Z" fill="#FD6595"/>
<path d="M660.953 719.407C662.435 718.993 663.834 719.005 665.654 719.026C667.06 720.118 666.988 721.458 666.924 723.174C666.739 723.799 666.614 724.032 666.219 724.556C661.606 725.862 660.196 723.903 660.953 719.407Z" fill="#FD6796"/>
<path d="M681.615 718.775C681.956 720.078 681.999 721.176 682.103 722.685C681.128 723.976 680.329 725.265 678.34 725.097C677.647 724.737 677.237 724.497 676.534 724.073C675.75 722.89 675.945 721.917 676.091 720.597C676.244 720.02 676.341 719.8 676.675 719.308C677.689 719.023 678.465 719.01 679.629 718.994C680.382 718.638 680.818 718.507 681.615 718.775Z" fill="#FF6A98"/>
<path d="M735.666 707.777C737.202 708.54 738.405 709.077 739.824 709.872C740.375 710.494 740.5 710.924 740.229 711.69C738.67 713.657 736.434 712.525 734.588 713.734C734.283 713.88 734.015 713.504 733.928 713.29C733.358 711.833 732.725 710.618 733.188 708.82C733.455 708.214 733.616 707.999 734.152 707.635C734.796 707.509 735.064 707.53 735.666 707.777Z" fill="#FF88A2"/>
<path d="M672.93 710.197C675.484 709.977 677.731 709.984 680.399 709.987C680.89 710.416 680.962 710.849 681.088 711.608C681.096 712.11 681.05 712.287 680.943 712.731C678.424 712.776 675.89 713.531 673.218 712.136C672.598 711.426 672.494 710.951 672.93 710.197Z" fill="#FE84A0"/>
<path d="M697.204 724.235C700.466 722.799 703.504 726.477 707.472 724.883C704.343 727.022 700.875 726.51 697.204 724.235Z" fill="#B94071"/>
<path d="M666.183 724.155C666.041 722.59 666.037 721.222 666.054 719.444C666.485 719.023 666.896 719.011 667.615 719.018C668.255 720.821 668.587 722.605 668.947 724.784C668.501 725.839 667.947 725.976 667.145 725.235C666.715 724.863 666.488 724.638 666.183 724.155Z" fill="#BD3C6F"/>
<path d="M676.511 719.867C676.819 721.157 676.904 722.183 677.008 723.594C677.168 724.211 677.309 724.442 677.241 725.02C675.571 726.447 675.191 724.962 674.235 724.131C674.323 722.896 674.647 721.816 675.037 720.401C675.404 719.669 675.803 719.527 676.511 719.867Z" fill="#B93B6E"/>
<path d="M740.435 725.061C741.044 721.616 743.852 723.508 746.247 723.03C745.762 726.658 742.834 724.584 740.435 725.061Z" fill="#FB76A2"/>
<path d="M743.982 718.782C742.54 720.28 741.22 720.502 740.054 718.317C741.005 716.841 742.212 716.81 743.745 717.661C743.977 718.093 743.986 718.29 743.982 718.782Z" fill="#D95786"/>
<path d="M740.852 710.515C742.558 710.3 743.99 710.303 745.829 710.472C746.17 710.929 746.109 711.221 746.034 711.738C744.638 711.962 743.261 711.962 741.471 711.936C740.656 711.615 740.483 711.228 740.852 710.515Z" fill="#BC3E6F"/>
<path d="M661.751 707.235C662.049 707.746 662.079 708.491 662.184 709.603C662.013 711.161 661.768 712.353 661.241 713.774C658.996 711.653 661.382 709.653 661.751 707.235Z" fill="#BB3C6E"/>
<path d="M734.327 707.72C734.124 709.473 734.08 710.865 733.939 712.667C733.548 712.934 733.313 712.725 733.022 712.241C732.238 711.375 732.115 710.576 732.223 709.39C732.127 708.602 732.109 708.121 732.129 707.28C732.603 706.68 733.038 706.44 733.694 706.081C734.315 706.341 734.506 706.808 734.327 707.72Z" fill="#BB3C6E"/>
<path d="M736.044 707.703C736 708.003 735.508 708.01 735.261 708.006C734.376 707.351 734.518 706.547 734.829 705.454C735.881 705.09 736.677 705.032 737.712 705.04C737.33 705.873 736.709 706.638 736.044 707.703Z" fill="#FEB2BE"/>
<path d="M731.983 709.357C732.9 709.681 732.983 710.515 732.935 711.71C732.464 712.018 732.02 712.005 731.241 711.975C731.212 711.184 731.516 710.407 731.983 709.357Z" fill="#932C65"/>
<path d="M673.178 709.715C673.146 710.385 673.056 710.801 672.95 711.533C672.04 712.007 671.14 712.213 670.216 711.235C671.348 711.084 671.871 710.144 672.726 709.147C673.02 709.126 673.07 709.293 673.178 709.715Z" fill="#C34876"/>
<path d="M734.155 723.902C734.503 724.008 734.64 724.225 734.872 724.817C734.546 725.333 733.946 725.719 733.739 725.568C733.023 725.045 733.361 724.471 734.155 723.902Z" fill="#BB3C6E"/>
<path d="M734.836 705.188C735.051 705.861 735.018 706.574 735 707.644C735.015 708.002 734.59 708.031 734.379 708.056C734.106 707.61 734.043 707.14 733.947 706.315C734.138 705.717 734.362 705.472 734.836 705.188Z" fill="#E56F90"/>
<path d="M714.137 714.417C714.485 714.803 714.759 715.554 715.047 716.613C715.061 716.921 714.6 716.974 714.368 716.991C714.112 716.266 714.088 715.524 714.137 714.417Z" fill="#9B376D"/>
<path d="M660.693 715.131C660.888 715.429 660.903 715.901 660.837 716.719C660.217 716.541 660.043 715.967 660.693 715.131Z" fill="#BC3B6E"/>
<path d="M746.341 716.947C746.194 716.564 746.3 716.001 746.59 715.215C746.713 715.584 746.654 716.176 746.341 716.947Z" fill="#D86B92"/>
<path d="M666.018 724.18C666.353 724.094 666.601 724.302 666.894 724.805C666.824 725.01 666.647 724.992 666.21 724.911C665.951 724.848 665.991 724.402 666.018 724.18Z" fill="#E65186"/>
<path d="M677.274 725.304C677.025 725.137 677.017 724.905 677.018 724.327C677.328 724.14 677.577 724.358 677.882 724.861C677.989 725.089 677.515 725.241 677.274 725.304Z" fill="#E14F84"/>
<path d="M678.078 702.255C677.985 702.134 678.465 702.081 678.696 702.148C678.928 702.216 678.577 702.483 678.577 702.483C678.577 702.483 678.171 702.377 678.078 702.255Z" fill="#8E1D71"/>
<path d="M734.127 715.259C734.492 715.209 734.575 715.462 734.32 715.876C734.207 715.977 734.071 715.5 734.127 715.259Z" fill="#FE6796"/>
<path d="M673.735 706.148C673.967 706.31 673.905 706.63 673.566 707.115C673.453 706.977 673.504 706.652 673.735 706.148Z" fill="#C34876"/>
<path d="M735.311 751.846C734.94 753.467 734.822 754.846 733.336 755.981C732.758 756.334 732.469 756.506 731.935 756.711C730.81 756.703 729.936 756.672 728.734 756.658C726.115 755.573 726.656 753.439 726.488 751.53C726.218 748.471 727.243 745.302 725.493 741.996C724.949 740.863 724.853 740.051 724.989 738.825C725.687 737.026 726.553 735.772 727.804 734.332C731.755 733.246 734.714 734.013 736.662 737.932C738.067 738.077 738.018 737.026 738.661 736.175C739.882 733.029 742.322 733.727 744.288 734.095C746.547 734.518 746.01 736.711 745.87 738.211C745.323 744.027 747.319 750.013 744.388 755.919C743.877 756.234 743.691 756.314 743.211 756.325C742.191 756.204 741.467 756.153 740.381 756.07C737.736 755.513 737.662 753.254 736.644 751.736C736.193 752.29 736.293 748.639 735.311 751.846Z" fill="#FC7B9E"/>
<path d="M660.42 754.895C662.031 748.616 658.143 742.82 660.041 736.52C660.212 735.845 660.343 735.564 660.765 735.161C666.823 731.823 671.901 732.635 675.976 737.654C678.273 739.995 676.924 743.001 678.289 745.702C678.476 747.904 678.785 749.709 677.198 751.57C673.194 756.496 668.04 756.237 662.468 756.065C661.374 755.982 660.846 755.697 660.42 754.895Z" fill="#FC7A9D"/>
<path d="M678.661 736.352C678.83 735.787 678.878 735.627 679.016 735.233C679.235 734.836 679.364 734.674 679.745 734.328C682.39 733.517 684.787 732.891 687.297 733.264C693.413 734.174 695.805 737.223 695.781 744.222C693.303 745.623 690.899 747.071 693.103 750.203C695.627 753.79 693.689 755.001 690.346 756.081C688.713 756.19 687.8 754.298 686.025 755.525C685.375 755.759 685.005 755.892 684.351 756.105C683.88 756.255 683.692 756.325 683.214 756.319C682.194 756.199 681.465 756.155 680.371 756.09C679.842 755.896 679.679 755.722 679.538 755.19C679.552 754.185 679.543 753.538 679.453 752.578C678.287 750.535 678.691 748.496 678.109 746.235C677.475 743.616 677.232 741.397 677.992 738.771C678.414 737.871 678.535 737.327 678.661 736.352Z" fill="#FC7A9D"/>
<path d="M696.645 753.415C698.149 748.926 699.556 744.871 701.014 740.442C701.447 739.594 701.493 739.005 701.789 738.207C701.958 737.971 702.088 737.592 702.121 737.394C702.239 736.885 702.388 736.606 702.708 736.149C706.266 732.35 710.163 732.903 711.652 737.214C713.038 741.226 714.379 745.253 715.928 749.591C718.093 751.952 719.485 753.952 715.314 755.745C714.951 755.944 715.003 755.995 714.981 755.965C714.802 756.085 714.645 756.235 714.168 756.433C711.389 756.88 710.348 755.299 709.25 753.25C707.921 753.072 706.877 753.042 705.441 753.036C704.791 753.276 704.52 753.477 703.994 753.721C703.034 754.49 702.32 755.202 701.353 756.081C698.599 757.314 697.122 756.439 696.645 753.415Z" fill="#FC7A9D"/>
<path d="M718.704 742.433C718.915 741.978 719.059 741.523 719.098 741.287C719.945 739.9 721.147 739.701 722.893 739.739C723.982 739.933 724.536 740.215 725.281 741.026C727.102 746.048 726.883 750.695 725.356 755.671C724.998 755.987 724.556 756.142 724.336 756.22C718.912 757.341 718.095 756.871 717.911 752.089C717.793 749.022 717.722 745.917 718.704 742.433Z" fill="#FC7A9E"/>
<path d="M725.323 756.133C724.994 751.349 724.989 746.712 724.901 741.625C725.082 740.97 725.347 740.764 726.081 740.744C729.563 745.62 727.069 750.925 728.311 756.249C727.412 757.065 726.517 756.766 725.323 756.133Z" fill="#B6396C"/>
<path d="M718.613 742.188C718.938 745.279 719.147 748.592 718.93 751.877C718.711 755.196 720.147 756.399 723.682 756.214C721.211 759.947 718.476 757.23 715.325 756.009C717.333 754.604 717.029 752.683 716.108 750.267C718.181 747.793 715.746 744.364 718.613 742.188Z" fill="#B5396C"/>
<path d="M718.52 736.253C719.644 732.804 722.213 734.429 724.482 734.059C725.798 734.921 726.154 735.926 725.736 737.521C725.382 738.779 724.965 739.47 723.672 739.872C720.804 740.057 717.792 740.996 718.52 736.253Z" fill="#FC7B9E"/>
<path d="M678.601 737.717C678.901 740.399 678.965 742.754 678.999 745.55C678.59 746.311 678.153 746.455 677.374 746.203C675.375 743.785 676.09 741.24 676.109 738.379C676.521 737.955 676.882 737.953 677.515 737.954C677.979 737.767 678.172 737.578 678.601 737.717Z" fill="#A3336A"/>
<path d="M735.335 752.305C734.965 750.982 734.69 749.85 735.524 748.512C737.798 750.341 738.313 753.185 739.913 755.704C736.358 757.606 737.15 753.57 735.335 752.305Z" fill="#BD3D6F"/>
<path d="M677.065 746.405C677.508 745.983 677.926 745.985 678.656 745.988C680.35 747.662 679.814 749.588 679.533 751.861C678.755 752.167 678.139 752.071 677.207 751.935C676.941 750.207 676.99 748.518 677.065 746.405Z" fill="#BA3B6D"/>
<path d="M718.385 735.999C719.072 737.918 719.145 740.322 722.723 739.127C723.376 739.501 723.505 739.911 723.241 740.651C721.994 740.967 720.954 741.013 719.525 741.054C717.02 739.787 716.106 738.267 718.385 735.999Z" fill="#B83A6D"/>
<path d="M686.052 755.804C685.914 754.378 686.083 753.129 686.269 751.763C688.404 752.274 688.451 754.455 689.856 755.83C688.728 757.495 687.544 756.744 686.052 755.804Z" fill="#C14172"/>
<path d="M708.967 753.456C710.014 751.984 710.661 752.515 711.019 753.676C711.391 754.88 712.061 755.7 713.667 756.032C714.127 756.246 714.247 756.389 714.181 756.743C710.769 758.384 709.29 757.022 708.967 753.456Z" fill="#BA3B6D"/>
<path d="M696.537 753.258C697.118 754.985 698.301 756.035 700.732 756.146C700.594 757.964 699.481 758.05 698.037 757.448C696.187 756.678 695.571 755.419 696.537 753.258Z" fill="#B3376B"/>
<path d="M725.516 738.289C725.094 737.009 725.011 735.952 724.906 734.499C725.684 734.092 726.484 734.082 727.683 734.075C727.769 735.34 728.276 736.804 726.841 737.966C726.302 738.213 726.078 738.363 725.516 738.289Z" fill="#B6396C"/>
<path d="M738.529 735.986C738.916 737.023 739.078 738.143 739.048 739.257C739.03 739.938 739.389 741.153 738.186 741.057C736.969 740.961 737.056 739.733 736.979 738.446C737.072 737.225 737.263 736.412 738.529 735.986Z" fill="#B83B6E"/>
<path d="M679.32 754.917C679.67 755.026 679.778 755.22 679.946 755.742C679.627 756.604 679.096 756.974 678.592 756.398C678.102 755.836 678.512 755.332 679.32 754.917Z" fill="#BA3B6D"/>
<path d="M660.312 754.895C660.88 754.892 661.347 755.199 661.917 755.777C660.744 757.208 660.281 756.629 660.312 754.895Z" fill="#BB3B6D"/>
<path d="M696.001 744.562C696.015 745.056 697.206 745.367 696.269 746.071C696.172 745.766 696.075 745.46 695.966 744.883C695.954 744.612 696.017 744.592 696.001 744.562Z" fill="#8D386B"/>
<path d="M701.726 738.163C701.815 738.542 701.673 739.112 701.298 739.876C701.208 739.497 701.351 738.926 701.726 738.163Z" fill="#B83C6F"/>
<path d="M678.893 737.696C678.664 738.032 678.489 738.019 678.051 737.982C677.983 737.421 678.178 736.885 678.578 736.148C678.837 736.414 678.893 736.88 678.893 737.696Z" fill="#BA3B6D"/>
<path d="M704.012 753.76C704.008 753.552 704.268 753.327 704.789 753.081C704.792 753.288 704.534 753.515 704.012 753.76Z" fill="#BA3B6D"/>
<path d="M743.045 756.378C743.104 756.206 743.292 756.156 743.772 756.13C743.767 756.27 743.471 756.386 743.045 756.378Z" fill="#BD3D6F"/>
<path d="M731.948 756.75C731.968 756.55 732.251 756.365 732.793 756.175C732.771 756.369 732.491 756.567 731.948 756.75Z" fill="#B6396C"/>
<path d="M714.214 756.845C713.994 756.953 714 756.527 714.003 756.315C714.006 756.102 714.478 755.995 714.718 755.965C714.891 756.274 714.717 756.541 714.214 756.845Z" fill="#B5396C"/>
<path d="M683.049 756.369C683.112 756.197 683.301 756.151 683.779 756.145C683.77 756.288 683.472 756.392 683.049 756.369Z" fill="#BA3B6D"/>
<path d="M679.759 734.168C679.862 734.394 679.684 734.606 679.284 734.889C679.064 734.637 679.202 734.367 679.759 734.168Z" fill="#EC6B91"/>
<path d="M660.714 735.122C660.907 735.31 660.809 735.619 660.42 736.045C660.174 735.839 660.272 735.532 660.714 735.122Z" fill="#BB3B6D"/>
<path d="M702.629 736.1C702.848 736.287 702.756 736.6 702.346 737.037C702.118 736.845 702.215 736.533 702.629 736.1Z" fill="#B83C6F"/>
<path d="M697.463 742.528C697.439 742.484 697.487 742.572 697.463 742.528V742.528Z" fill="#8D386B"/>
<path d="M709.763 710.027C710.749 710.609 711.66 711.079 711.833 711.741C712.515 714.355 711.987 716.895 709.265 717.828C706.366 718.823 705.5 715.892 705.184 714.164C704.693 711.476 706.077 709.51 709.763 710.027Z" fill="#202020"/>
<path d="M696.813 717.948C693.358 717.045 691.777 713.294 693.44 711.002C694.246 709.89 695.396 709.917 696.566 710.017C698.129 710.149 698.865 711.037 699.007 712.584C699.195 714.641 698.713 716.435 696.813 717.948Z" fill="#1F1F1F"/>
<path d="M681.813 718.65C681.492 718.989 681.071 719 680.333 719C680.008 717.926 679.999 716.862 679.988 715.398C679.986 714.999 680.449 715 680.68 715.009C681.178 716.118 681.445 717.219 681.813 718.65Z" fill="#FD98B5"/>
<path d="M676.803 719.862C676.372 720.103 676.01 720.074 675.376 720.055C675.073 719.885 675.043 719.705 674.976 719.254C675.41 718.338 675.949 718.524 676.707 718.945C676.9 719.221 676.886 719.407 676.803 719.862Z" fill="#D44E7D"/>
<path d="M720.779 719.99C721.074 721.225 721.895 721.987 722.576 722.928C723.579 724.315 721.943 723.741 721.157 724.048C719.626 723.304 718.91 722.243 718.912 720.407C719.054 719.923 719.245 719.776 719.748 719.813C720.06 719.997 720.539 719.992 720.779 719.99Z" fill="#FE7AA5"/>
<path d="M720.037 719.639C719.86 720.007 719.661 720.017 719.162 720.048C718.311 718.628 717.758 717.187 717.207 715.407C719.501 715.568 719.716 717.452 720.037 719.639Z" fill="#FF8DAF"/>
<path d="M740.86 710.225C741.098 710.655 741.07 711.013 741.05 711.639C740.885 711.928 740.712 711.948 740.276 711.968C740.018 711.56 740.022 711.151 740.034 710.436C740.226 710.138 740.41 710.145 740.86 710.225Z" fill="#D45A82"/>
<path d="M724.986 738.308C725.402 738.067 725.626 738.068 726.189 738.066C726.515 738.78 726.503 739.497 726.52 740.572C726.26 740.963 725.97 740.997 725.249 741.104C724.419 741.131 724.021 741.086 723.329 740.981C723.033 740.527 723.03 740.133 723.044 739.444C723.638 738.95 724.216 738.75 724.986 738.308Z" fill="#8E2A64"/>
<path d="M671.286 748.725C670.049 750.134 668.664 750.689 667.319 749.802C666.754 749.429 666.955 748.102 667.672 747.606C669.094 746.622 670.453 746.736 671.286 748.725Z" fill="#BF4273"/>
<path d="M668.571 741.571C666.845 741.467 666.872 740.591 667.489 739.643C667.897 739.017 668.679 739.015 669.205 739.436C670.162 740.202 669.365 740.821 668.571 741.571Z" fill="#B2396D"/>
<path d="M688.436 739.678C688.9 741.009 689.506 742.325 687.777 742.586C686.943 742.711 686.314 741.885 686.204 741.04C686.007 739.534 686.673 738.902 688.436 739.678Z" fill="#BD3D6F"/>
<path d="M707.295 742.897C708.106 744.332 708.738 745.819 706.813 746.665C706.483 746.811 705.595 746.532 705.522 746.284C705.089 744.813 706.06 743.84 707.295 742.897Z" fill="#BF4475"/>
</g>
<defs>
<clipPath id="clip0_8_47">
<rect width="104" height="61" fill="white" transform="translate(651 700)"/>
</clipPath>
</defs>
</svg>
