<svg width="800" height="800" viewBox="0 0 800 800" fill="none" xmlns="http://www.w3.org/2000/svg">
<path d="M453.336 618.977H210.727C184.425 618.977 163.027 597.578 163.027 571.276V107.701C163.027 81.3985 184.425 60 210.727 60H453.336C479.637 60 501.036 81.3985 501.036 107.701V571.276C501.036 597.578 479.637 618.977 453.336 618.977H453.336V618.977Z" fill="#3F3D56"/>
<path d="M501.036 230.518C499.923 230.518 499.018 231.423 499.018 232.536V297.111C499.018 298.224 499.923 299.129 501.036 299.129C502.149 299.129 503.054 298.224 503.054 297.111V232.536C503.054 231.423 502.149 230.518 501.036 230.518Z" fill="#3F3D56"/>
<path d="M496.496 107.701V571.268C496.496 594.161 478.677 612.888 456.147 614.341H456.137C455.804 614.361 455.471 614.382 455.128 614.392C454.532 614.422 453.937 614.432 453.332 614.432C453.332 614.432 451.112 614.27 447.056 613.968C442.959 613.665 436.996 613.211 429.56 612.616C427.33 612.444 424.979 612.253 422.497 612.051C417.553 611.647 412.125 611.203 406.303 610.699C403.982 610.507 401.581 610.295 399.129 610.083C386.597 609.004 372.563 607.742 357.761 606.31C355.258 606.078 352.736 605.835 350.193 605.583C349.527 605.513 348.851 605.452 348.175 605.381C337.621 604.342 326.775 603.222 315.888 602.032C315.212 601.961 314.536 601.89 313.87 601.82C295.113 599.751 276.285 597.501 258.669 595.08C245.118 593.223 232.284 591.266 220.761 589.238C217.008 588.572 213.396 587.906 209.945 587.23C209.269 587.099 208.593 586.967 207.927 586.826C183.54 581.943 167.568 576.676 167.568 571.268V107.701C167.568 83.8587 186.89 64.5366 210.732 64.5366H236.501C240.618 64.5366 243.927 67.7452 244.281 71.8517C244.311 72.1242 244.341 72.3966 244.392 72.669C245.138 76.7958 248.922 79.6714 253.119 79.6714H410.944C415.142 79.6714 418.925 76.7958 419.672 72.669C419.722 72.3966 419.753 72.1242 419.783 71.8517C420.136 67.7452 423.445 64.5366 427.562 64.5366H453.332C477.174 64.5366 496.496 83.8587 496.496 107.701H496.496V107.701Z" fill="white"/>
<path d="M162.018 182.087C160.905 182.087 160 182.992 160 184.105V200.249C160 201.362 160.905 202.267 162.018 202.267C163.131 202.267 164.036 201.362 164.036 200.249V184.105C164.036 182.992 163.131 182.087 162.018 182.087Z" fill="#3F3D56"/>
<path d="M162.018 230.518C160.905 230.518 160 231.423 160 232.536V263.814C160 264.927 160.905 265.832 162.018 265.832C163.131 265.832 164.036 264.927 164.036 263.814V232.536C164.036 231.423 163.131 230.518 162.018 230.518Z" fill="#3F3D56"/>
<path d="M162.018 274.913C160.905 274.913 160 275.818 160 276.931V308.21C160 309.323 160.905 310.228 162.018 310.228C163.131 310.228 164.036 309.323 164.036 308.21V276.931C164.036 275.818 163.131 274.913 162.018 274.913Z" fill="#3F3D56"/>
<path d="M235.868 71.6035H197.138C196.967 71.6035 196.828 71.7424 196.828 71.9137V76.3382C196.828 76.5095 196.967 76.6484 197.138 76.6484H235.868C236.039 76.6484 236.178 76.5095 236.178 76.3382V71.9137C236.178 71.7424 236.039 71.6035 235.868 71.6035Z" fill="#3F3D56"/>
<path d="M433.939 76.6483C436.168 76.6483 437.975 74.8413 437.975 72.6123C437.975 70.3834 436.168 68.5764 433.939 68.5764C431.71 68.5764 429.903 70.3834 429.903 72.6123C429.903 74.8413 431.71 76.6483 433.939 76.6483Z" fill="#3F3D56"/>
<path d="M445.038 76.6483C447.266 76.6483 449.073 74.8413 449.073 72.6123C449.073 70.3834 447.266 68.5764 445.038 68.5764C442.809 68.5764 441.002 70.3834 441.002 72.6123C441.002 74.8413 442.809 76.6483 445.038 76.6483Z" fill="#3F3D56"/>
<path d="M456.136 76.6483C458.365 76.6483 460.172 74.8413 460.172 72.6123C460.172 70.3834 458.365 68.5764 456.136 68.5764C453.907 68.5764 452.1 70.3834 452.1 72.6123C452.1 74.8413 453.907 76.6483 456.136 76.6483Z" fill="#3F3D56"/>
<path d="M357.71 520.271L366.822 520.27L371.157 485.122L357.708 485.123L357.71 520.271Z" fill="#FFB6B6"/>
<path d="M388.93 520.064C389.213 520.542 389.363 522.084 389.363 522.64C389.363 524.348 387.978 525.733 386.27 525.733H358.051C356.885 525.733 355.941 524.788 355.941 523.623V522.448C355.941 522.448 354.545 518.917 357.419 514.565C357.419 514.565 360.991 517.972 366.329 512.635L367.903 509.783L379.297 518.116L385.612 518.894C386.994 519.064 388.219 518.867 388.93 520.064H388.93V520.064Z" fill="#2F2E41"/>
<path d="M294.778 520.271L303.89 520.27L308.225 485.122L294.776 485.123L294.778 520.271Z" fill="#FFB6B6"/>
<path d="M325.998 520.064C326.281 520.542 326.431 522.084 326.431 522.64C326.431 524.348 325.046 525.733 323.338 525.733H295.119C293.953 525.733 293.009 524.788 293.009 523.623V522.448C293.009 522.448 291.613 518.917 294.487 514.565C294.487 514.565 298.059 517.972 303.397 512.635L304.971 509.783L316.365 518.116L322.68 518.894C324.062 519.064 325.287 518.867 325.998 520.064H325.998V520.064Z" fill="#2F2E41"/>
<path d="M360.434 354.272L363.811 358.714C363.811 358.714 364.117 360.788 369.239 377.688L372.049 504.71H355.049L332.33 403.077L308.748 506.748L294.013 507.617L294.704 389.784C294.704 389.784 293.152 385.684 294.472 380.879C299.524 362.487 299.232 367.336 299.44 361.04C299.703 353.058 360.434 354.272 360.434 354.272V354.272Z" fill="#2F2E41"/>
<path d="M333.638 247.531C343.489 247.531 351.475 239.546 351.475 229.694C351.475 219.843 343.489 211.857 333.638 211.857C323.787 211.857 315.801 219.843 315.801 229.694C315.801 239.546 323.787 247.531 333.638 247.531Z" fill="#FEB8B8"/>
<path d="M324.048 250.887L314.178 256.342C305.943 256.939 300.037 259.13 294.79 261.771L300.577 312.509L299.524 362.487C299.524 362.487 332.343 384.97 363.813 358.713V290.805L362.335 263.8C362.163 260.651 359.378 258.208 356.252 258.622C354.467 258.858 352.411 258.812 350.311 258.112L343.778 250.531L324.048 250.888V250.887V250.887Z" fill="#16F2F7"/>
<path d="M379.852 209.031C380.847 211.275 381.253 213.559 381.121 215.539L391.954 236.325L381.912 241.19L372.005 219.581C370.449 218.349 369.029 216.515 368.034 214.271C365.76 209.142 366.562 203.812 369.826 202.365C373.089 200.918 377.578 203.902 379.852 209.031V209.031V209.031Z" fill="#FFB6B6"/>
<path d="M350.311 258.112L353.299 259.479C356.04 256.532 364.299 256.995 368.306 257.377L385.915 259.056L377.692 233.331L390.071 228.35L404.863 256.817C405.758 261.646 403.75 266.553 399.727 269.371L361.988 290.803L357.601 261.446L350.311 258.112V258.112V258.112Z" fill="#16F2F7"/>
<path d="M259.047 378.777C259.235 376.329 259.961 374.126 261.016 372.446L261.333 349.008L272.481 349.486L270.959 373.209C271.744 375.031 272.125 377.319 271.937 379.767C271.508 385.36 268.274 389.673 264.715 389.4C261.155 389.126 258.618 384.371 259.047 378.777L259.047 378.777L259.047 378.777V378.777Z" fill="#FFB6B6"/>
<path d="M303.051 268.183L297.928 260.401C297.928 260.401 289.573 261.996 285.134 268.296C280.695 274.595 263.914 313.23 263.914 313.23L260.692 356.843L273.173 354.273L279.195 321.196L298.56 294.734L303.051 268.183L303.051 268.183V268.183Z" fill="#16F2F7"/>
<path d="M351.475 232.06C352.145 228.66 341.806 223.711 341.824 223.717C343.429 224.229 340.905 227.17 339.256 226.823C339.256 226.823 336.834 228.055 338.154 229.115C333.604 228.725 327.525 224.401 322.975 224.011C321.145 223.851 320.436 228.264 319.286 229.694C317.546 231.884 315.801 227.529 316.445 233.331H316.185C315.235 231.041 314.285 228.711 313.975 226.251C313.675 223.791 314.095 221.141 315.665 219.221C316.185 218.571 314.142 216.431 314.692 215.811C316.442 213.801 319.835 212.701 321.395 210.551C323.46 207.703 325.809 209.713 330.109 207.318C331.234 206.691 333.189 206.466 334.435 206.791L337.345 207.551C336.777 208.402 337.479 209.524 338.493 209.387L342.285 208.871C343.715 209.331 345.075 210.011 345.715 211.321C346.105 212.101 346.175 213.011 346.475 213.831C347.025 215.341 348.325 216.431 349.365 217.651C352.16 218.465 352.311 220.555 352.311 224.06C354.916 225.522 352.197 228.79 351.475 232.06V232.06L351.475 232.06Z" fill="#2F2E41"/>
<path d="M246.562 385.018C246.954 384.019 247.039 383.1 246.816 382.26C246.654 381.395 246.272 380.644 245.67 380.007C245.024 379.352 244.188 378.799 243.162 378.347C242.18 377.912 241.103 377.59 239.932 377.382L236.04 387.886C241.573 389.754 245.081 388.798 246.562 385.018ZM227.644 365.573C227.941 364.687 228.192 363.983 228.396 363.462C228.661 362.914 228.97 362.509 229.324 362.246C229.617 362.01 230.037 361.899 230.583 361.913C231.189 361.9 232 361.942 233.014 362.039C235.026 362.276 237.257 362.724 239.705 363.383C242.197 364.059 244.656 364.948 247.081 366.049C249.506 367.15 251.773 368.465 253.881 369.993C256.032 371.537 257.803 373.284 259.195 375.233C260.586 377.182 261.472 379.334 261.852 381.688C262.249 383.999 261.912 386.524 260.839 389.261C259.408 392.91 257.608 395.713 255.437 397.67C253.267 399.626 250.893 400.951 248.315 401.645C245.694 402.321 242.931 402.466 240.025 402.079C237.163 401.709 234.294 401.035 231.419 400.059L227.374 410.954C226.974 412.101 226.502 412.793 225.958 413.031C225.44 413.329 224.703 413.291 223.747 412.916L214.884 409.442C213.972 409.084 213.427 408.62 213.249 408.049C213.055 407.522 213.158 406.685 213.557 405.538L227.644 365.573ZM279.783 392.927C282.563 394.017 284.831 395.458 286.585 397.248C288.4 399.012 289.714 401.031 290.527 403.304C291.323 405.621 291.626 408.171 291.438 410.954C291.292 413.754 290.672 416.744 289.576 419.923C289.279 420.809 288.918 421.345 288.495 421.53C288.115 421.732 287.517 421.723 286.701 421.503L265.862 415.59C265.948 416.777 266.497 417.869 267.509 418.867C268.582 419.839 269.883 420.675 271.413 421.375C272.943 422.075 274.615 422.605 276.429 422.965C278.26 423.282 279.998 423.387 281.644 423.28C282.978 423.202 283.42 423.801 282.969 425.078L280.908 431.488C280.747 432.026 280.498 432.405 280.162 432.624C279.869 432.86 279.375 432.967 278.682 432.946C276.645 432.899 274.546 432.628 272.385 432.132C270.25 431.696 268.248 431.112 266.38 430.379C263.426 429.221 260.976 427.735 259.031 425.92C257.112 424.165 255.694 422.156 254.777 419.891C253.843 417.671 253.406 415.269 253.467 412.686C253.527 410.103 254.085 407.465 255.141 404.771C256.06 402.425 257.324 400.289 258.931 398.362C260.599 396.41 262.512 394.854 264.67 393.695C266.785 392.519 269.112 391.827 271.649 391.619C274.247 391.384 276.959 391.82 279.783 392.927ZM279.535 409.672C279.991 407.996 279.864 406.593 279.155 405.463C278.445 404.332 277.46 403.52 276.2 403.026C274.679 402.43 273.185 402.471 271.716 403.148C270.265 403.782 269.259 404.942 268.698 406.627L279.535 409.672ZM298.555 405.323C299.006 404.046 299.533 403.276 300.138 403.012C300.803 402.721 301.705 402.724 302.842 403.019C304.431 403.441 306.294 403.996 308.43 404.683C310.584 405.327 312.72 406.014 314.84 406.745C316.942 407.519 318.906 408.263 320.731 408.979C322.556 409.694 323.951 410.291 324.916 410.769C325.577 411.129 325.935 411.495 325.99 411.867C326.088 412.256 325.945 412.877 325.56 413.729L321.658 422.725C321.196 423.647 320.745 424.096 320.303 424.073C319.904 424.067 319.205 423.869 318.206 423.477C317.728 423.29 317.133 423.081 316.42 422.852C315.725 422.58 314.978 422.312 314.179 422.049C313.336 421.769 312.485 421.51 311.626 421.274C310.783 420.994 309.962 420.722 309.163 420.459L301.639 439.463C301.128 440.767 300.561 441.572 299.939 441.88C299.301 442.231 298.416 442.185 297.287 441.742L289.466 438.677C288.336 438.234 287.678 437.675 287.492 437.001C287.288 436.369 287.42 435.394 287.887 434.073L298.555 405.323ZM343.606 433.96L336.147 452.99C335.636 454.294 335.069 455.099 334.447 455.407C333.852 455.775 332.989 455.738 331.86 455.295L323.713 452.101C322.584 451.659 321.904 451.091 321.674 450.4C321.427 449.751 321.558 448.776 322.069 447.472L329.464 428.416L327.053 427.471C325.966 427.045 325.309 426.612 325.081 426.172C324.852 425.732 324.934 425.012 325.326 424.012L327.727 417.886C328.119 416.887 328.548 416.303 329.015 416.135C329.482 415.968 330.258 416.097 331.344 416.522L333.756 417.468L335.033 414.209C335.663 412.601 336.498 411.174 337.538 409.928C338.578 408.681 339.789 407.702 341.171 406.991C342.552 406.279 344.101 405.909 345.816 405.88C347.549 405.807 349.437 406.171 351.479 406.972C354.042 407.976 356.298 409.061 358.248 410.226C360.197 411.392 361.739 412.572 362.874 413.769C363.267 414.174 363.49 414.562 363.545 414.934C363.616 415.263 363.464 415.78 363.088 416.484L359.618 422.267C358.984 423.372 358.071 423.465 356.877 422.546C355.884 421.756 355.021 421.142 354.291 420.705C353.603 420.285 352.868 419.922 352.086 419.615C351.13 419.241 350.393 419.202 349.876 419.501C349.375 419.755 348.86 420.556 348.332 421.903L347.898 423.011L353.829 425.336C354.915 425.762 355.572 426.195 355.8 426.635C356.029 427.076 355.947 427.795 355.555 428.795L353.154 434.921C352.762 435.92 352.333 436.504 351.866 436.672C351.399 436.839 350.623 436.711 349.537 436.285L343.606 433.96ZM376.904 430.998C379.685 432.088 381.952 433.528 383.706 435.318C385.521 437.082 386.835 439.101 387.648 441.375C388.444 443.692 388.748 446.242 388.559 449.025C388.414 451.825 387.793 454.814 386.697 457.994C386.4 458.88 386.04 459.415 385.616 459.6C385.236 459.802 384.638 459.793 383.822 459.574L362.983 453.66C363.069 454.847 363.618 455.94 364.631 456.938C365.703 457.91 367.005 458.746 368.535 459.446C370.065 460.146 371.737 460.676 373.55 461.036C375.381 461.352 377.119 461.457 378.765 461.351C380.099 461.272 380.541 461.871 380.09 463.148L378.029 469.558C377.868 470.096 377.619 470.475 377.283 470.694C376.99 470.93 376.497 471.037 375.803 471.016C373.766 470.97 371.667 470.698 369.506 470.202C367.371 469.766 365.37 469.182 363.501 468.45C360.547 467.292 358.097 465.805 356.152 463.99C354.233 462.235 352.816 460.226 351.899 457.962C350.965 455.741 350.528 453.339 350.588 450.757C350.648 448.174 351.206 445.535 352.262 442.842C353.182 440.495 354.445 438.359 356.052 436.433C357.72 434.48 359.633 432.924 361.791 431.765C363.906 430.59 366.233 429.897 368.771 429.689C371.369 429.455 374.08 429.891 376.904 430.998ZM376.656 447.742C377.112 446.066 376.986 444.663 376.276 443.533C375.566 442.403 374.581 441.591 373.321 441.097C371.801 440.501 370.306 440.541 368.837 441.219C367.386 441.853 366.38 443.012 365.82 444.697L376.656 447.742ZM420.478 460.785C420.283 461.41 420.021 461.758 419.692 461.83C419.407 461.919 419.047 461.878 418.612 461.707C416.44 460.856 414.547 460.314 412.933 460.083C411.337 459.808 409.994 459.783 408.903 460.007C407.752 460.257 406.82 460.719 406.105 461.391C405.407 462.02 404.871 462.812 404.497 463.768C403.713 465.767 404.189 467.557 405.925 469.14C407.721 470.696 410.699 472.114 414.859 473.394C415.267 473.503 415.502 473.671 415.564 473.896C415.643 474.077 415.636 474.35 415.544 474.715L411.836 485.517C411.675 486.055 411.303 486.235 410.722 486.057C407.092 485.086 403.717 483.788 400.594 482.163C397.515 480.555 394.98 478.583 392.988 476.249C390.996 473.914 389.725 471.21 389.175 468.138C388.669 465.082 389.173 461.621 390.689 457.754C392.052 454.278 393.883 451.588 396.184 449.683C398.545 447.751 401.166 446.498 404.048 445.924C406.93 445.349 410.002 445.375 413.265 446.003C416.588 446.604 419.902 447.677 423.205 449.223C423.71 449.47 424.015 449.715 424.12 449.957C424.27 450.216 424.267 450.541 424.114 450.932L420.478 460.785ZM429.868 466.27L425.958 464.737C424.871 464.311 424.214 463.878 423.986 463.438C423.757 462.997 423.839 462.278 424.231 461.278L427.015 454.175C427.407 453.175 427.836 452.592 428.303 452.424C428.77 452.256 429.546 452.385 430.633 452.811L434.543 454.343L437.992 445.545C438.486 444.285 439.044 443.501 439.665 443.194C440.304 442.843 441.188 442.889 442.318 443.331L450.008 446.346C451.138 446.789 451.805 447.326 452.008 447.957C452.256 448.605 452.124 449.581 451.613 450.885L448.164 459.683L453.117 461.624C454.203 462.05 454.86 462.483 455.089 462.923C455.317 463.364 455.236 464.084 454.844 465.083L452.059 472.187C451.668 473.186 451.238 473.77 450.771 473.938C450.305 474.105 449.528 473.976 448.442 473.551L443.489 471.609L440.244 479.886C439.699 481.276 439.637 482.33 440.058 483.046C440.496 483.719 441.193 484.243 442.149 484.617C442.627 484.805 443.07 484.953 443.478 485.063C443.903 485.13 444.307 485.187 444.688 485.237C445.625 485.404 445.932 485.9 445.608 486.725L442.026 496.824C441.838 497.302 441.624 497.594 441.382 497.7C441.123 497.849 440.737 497.873 440.225 497.773C437.752 497.305 435.299 496.594 432.866 495.64C430.607 494.754 428.784 493.714 427.398 492.519C426.038 491.384 425.063 490.1 424.473 488.666C423.839 487.214 423.572 485.656 423.673 483.991C423.835 482.3 424.282 480.521 425.014 478.653L429.868 466.27Z" fill="#ED930D"/>
<path d="M534.182 102.076C534.71 100.593 536.183 99.7175 537.683 99.8857C538.308 99.9558 538.933 100.011 539.561 99.9746C555.221 99.0535 574.619 108.02 595.268 120.3C576.365 105.005 559.064 91.4743 538.716 105.379C537.263 106.372 535.203 106.021 534.358 104.477C534.018 103.857 533.896 103.114 534.098 102.347C534.122 102.256 534.15 102.166 534.182 102.076L534.182 102.076Z" fill="#E6E6E6"/>
<path d="M638.631 65.3889C639.922 66.2119 640.453 67.777 640.023 69.1723L639.974 69.3297C639.543 70.7304 638.604 71.9071 637.36 72.6817C619.552 83.7676 640.17 97.9548 607.213 120.855C623.172 103.778 636.299 64.2304 638.293 65.1996C638.408 65.2554 638.521 65.3185 638.631 65.3889V65.3889Z" fill="#E6E6E6"/>
<path d="M665.926 152.078C665.262 153.457 663.771 154.17 662.334 153.909L662.172 153.879C660.73 153.617 659.45 152.824 658.534 151.681C645.412 135.315 633.773 157.471 607.123 127.466H607.123C625.973 141.285 666.799 149.624 666.074 151.719C666.032 151.84 665.983 151.96 665.926 152.078L665.926 152.078Z" fill="#E6E6E6"/>
<path d="M641.943 151.055C641.26 151.434 640.158 151.381 639.268 150.97L639.167 150.923C638.274 150.511 637.583 149.932 637.192 149.299C631.6 140.238 619.987 146.118 608.042 128.941C617.834 138.281 642.958 150.314 642.105 150.951C642.055 150.988 642.002 151.023 641.943 151.055V151.055Z" fill="#E6E6E6"/>
<path d="M647.332 114.913C647.163 115.676 646.393 116.466 645.495 116.859L645.394 116.904C644.493 117.299 643.601 117.433 642.868 117.306C632.376 115.487 629.081 128.079 608.302 125.638C621.786 124.496 647.45 113.662 647.361 114.723C647.356 114.784 647.347 114.848 647.332 114.913V114.913Z" fill="#E6E6E6"/>
<path d="M542.332 162.244C541.579 160.911 541.845 159.28 542.88 158.25L542.997 158.134C544.035 157.1 545.417 156.502 546.879 156.402C567.807 154.977 556.266 132.769 596.117 128.027C574.008 135.61 543.847 164.362 542.542 162.57C542.467 162.467 542.397 162.358 542.332 162.244V162.244Z" fill="#E6E6E6"/>
<path d="M626.494 162.005C625.72 162.521 624.726 162.418 624.065 161.817L623.991 161.749C623.327 161.145 622.913 160.313 622.796 159.412C621.125 146.515 608.188 154.496 603.783 130.015C609.212 143.41 627.712 160.987 626.682 161.863C626.623 161.913 626.56 161.96 626.494 162.005L626.494 162.005Z" fill="#E6E6E6"/>
<path d="M603.055 183.216C601.869 183.226 600.871 182.429 600.572 181.335L600.538 181.211C600.237 180.114 600.362 178.947 600.852 177.913C607.877 163.12 588.504 162.595 600.514 133.66V133.66C597.189 151.583 605.061 182.984 603.355 183.196C603.257 183.209 603.157 183.215 603.055 183.216V183.216Z" fill="#16F2F7"/>
<path d="M560.136 163C559.372 162.093 559.349 160.816 560.001 159.887L560.074 159.783C560.728 158.851 561.705 158.202 562.814 157.921C578.688 153.893 566.734 138.64 596.677 129.43C580.754 138.303 561.594 164.396 560.342 163.218C560.27 163.15 560.201 163.077 560.136 163V163Z" fill="#16F2F7"/>
<path d="M569.767 149.757C569.283 149.305 569.27 148.626 569.685 148.105L569.731 148.046C570.147 147.523 570.767 147.137 571.47 146.941C581.535 144.141 573.976 136.512 592.965 130.371C582.863 135.754 570.689 150.44 569.897 149.864C569.852 149.831 569.808 149.795 569.767 149.757V149.757Z" fill="#16F2F7"/>
<path d="M583.843 159.408C583.232 159.155 582.981 158.524 583.185 157.89L583.208 157.819C583.413 157.183 583.859 156.604 584.448 156.173C592.888 150.015 583.129 145.529 598.749 133.106C591.183 141.696 584.947 159.723 584.003 159.463C583.949 159.448 583.895 159.43 583.843 159.408V159.408Z" fill="#E6E6E6"/>
<path d="M542.663 116.621L544.198 121.345H549.165L545.146 124.265L546.681 128.989L542.663 126.07L538.644 128.989L540.179 124.265L536.16 121.345H541.128L542.663 116.621Z" fill="#16F2F7"/>
<path d="M611.115 60L612.65 64.7242H617.617L613.599 67.6439L615.134 72.3681L611.115 69.4484L607.096 72.3681L608.631 67.6439L604.613 64.7242H609.58L611.115 60Z" fill="#E6E6E6"/>
<path d="M647.454 110.705L648.989 115.43H653.956L649.938 118.349L651.473 123.073L647.454 120.154L643.435 123.073L644.97 118.349L640.952 115.43H645.919L647.454 110.705Z" fill="#16F2F7"/>
<path d="M573.931 162.256L575.466 166.98H580.433L576.415 169.9L577.95 174.624L573.931 171.704L569.912 174.624L571.447 169.9L567.429 166.98H572.396L573.931 162.256Z" fill="#16F2F7"/>
<path d="M601.819 110.705L603.354 115.43H608.321L604.303 118.349L605.838 123.073L601.819 120.154L597.8 123.073L599.335 118.349L595.317 115.43H600.284L601.819 110.705Z" fill="#16F2F7"/>
<path d="M640.169 60L641.705 64.7242H646.672L642.653 67.6439L644.188 72.3681L640.169 69.4484L636.151 72.3681L637.686 67.6439L633.667 64.7242H638.635L640.169 60Z" fill="#E6E6E6"/>
<path d="M540.059 153.368L542.006 157.938L546.954 157.499L543.209 160.762L545.155 165.332L540.894 162.779L537.15 166.043L538.261 161.201L534 158.648L538.948 158.209L540.059 153.368Z" fill="#E6E6E6"/>
<path d="M582.553 66.086C583.449 65.6449 584.456 65.9424 585.026 66.7417L585.091 66.8318C585.663 67.6337 585.935 68.6482 585.888 69.6858C585.204 84.5363 600.058 77.898 600.033 106.313C596.929 90.2143 581.105 67.0113 582.332 66.2118C582.403 66.1658 582.476 66.1237 582.553 66.086V66.086Z" fill="#16F2F7"/>
<path d="M569.6 88.098C569.997 87.6021 570.648 87.5337 571.181 87.8838L571.241 87.9232C571.775 88.2743 572.193 88.8315 572.434 89.4828C575.889 98.8059 582.647 91.0012 589.989 108.519C584.05 99.3739 569.013 89.0303 569.506 88.2308C569.534 88.1847 569.566 88.1404 569.6 88.098L569.6 88.098Z" fill="#E6E6E6"/>
<path d="M558.166 115.197C558.221 114.564 558.724 114.145 559.361 114.14L559.433 114.139C560.073 114.134 560.73 114.365 561.292 114.772C569.347 120.601 570.626 110.356 586.467 120.836C576.446 116.536 558.197 116.298 558.162 115.36C558.16 115.306 558.162 115.251 558.166 115.197V115.197Z" fill="#E6E6E6"/>
<path d="M61.1088 572.166C61.4248 571.279 62.3059 570.755 63.203 570.856C63.5768 570.898 63.9504 570.931 64.3259 570.909C73.6927 570.358 85.2943 575.721 97.6446 583.066C86.3387 573.918 75.991 565.825 63.8207 574.141C62.9514 574.735 61.7198 574.526 61.2141 573.602C61.0109 573.231 60.9376 572.787 61.0587 572.328C61.073 572.274 61.0897 572.22 61.1088 572.166L61.1088 572.166Z" fill="#E6E6E6"/>
<path d="M123.581 550.223C124.353 550.715 124.67 551.651 124.413 552.486L124.384 552.58C124.126 553.418 123.564 554.122 122.82 554.585C112.17 561.215 124.501 569.701 104.789 583.398C114.334 573.184 122.186 549.53 123.378 550.11C123.447 550.143 123.515 550.181 123.581 550.223V550.223Z" fill="#E6E6E6"/>
<path d="M139.906 602.072C139.509 602.898 138.617 603.324 137.758 603.168L137.661 603.15C136.798 602.993 136.033 602.519 135.485 601.835C127.637 592.047 120.675 605.298 104.735 587.352H104.735C116.01 595.617 140.428 600.605 139.994 601.858C139.969 601.93 139.94 602.002 139.906 602.072L139.906 602.072Z" fill="#E6E6E6"/>
<path d="M125.562 601.461C125.153 601.688 124.494 601.656 123.962 601.41L123.901 601.382C123.367 601.135 122.954 600.789 122.72 600.41C119.375 594.991 112.43 598.508 105.285 588.234C111.142 593.82 126.169 601.017 125.658 601.399C125.629 601.421 125.597 601.441 125.562 601.461V601.461Z" fill="#E6E6E6"/>
<path d="M128.785 579.844C128.684 580.3 128.223 580.773 127.686 581.008L127.625 581.035C127.087 581.271 126.553 581.351 126.115 581.275C119.84 580.187 117.869 587.719 105.441 586.259C113.506 585.576 128.855 579.096 128.802 579.73C128.799 579.767 128.794 579.805 128.785 579.844V579.844Z" fill="#E6E6E6"/>
<path d="M65.9835 608.153C65.533 607.356 65.6921 606.38 66.3112 605.764L66.3811 605.695C67.0022 605.076 67.8286 604.719 68.7032 604.659C81.2201 603.806 74.3177 590.524 98.1526 587.688C84.9288 592.223 66.8898 609.42 66.1089 608.348C66.064 608.286 66.022 608.221 65.9835 608.153V608.153Z" fill="#E6E6E6"/>
<path d="M116.321 608.01C115.858 608.319 115.264 608.257 114.869 607.897L114.824 607.857C114.427 607.496 114.18 606.998 114.11 606.459C113.11 598.746 105.372 603.519 102.738 588.877C105.985 596.888 117.05 607.401 116.434 607.925C116.398 607.955 116.361 607.983 116.321 608.01L116.321 608.01Z" fill="#E6E6E6"/>
<path d="M102.302 620.697C101.593 620.702 100.996 620.226 100.817 619.571L100.797 619.498C100.617 618.841 100.692 618.143 100.985 617.525C105.186 608.677 93.5995 608.363 100.782 591.057V591.057C98.7938 601.777 103.502 620.558 102.482 620.685C102.423 620.692 102.363 620.696 102.302 620.697V620.697Z" fill="#16F2F7"/>
<path d="M76.632 608.605C76.1751 608.062 76.1614 607.299 76.5511 606.743L76.5951 606.681C76.986 606.123 77.5709 605.735 78.2342 605.567C87.7281 603.158 80.5782 594.035 98.4877 588.526C88.9637 593.833 77.5043 609.44 76.7554 608.735C76.7123 608.695 76.6711 608.651 76.632 608.605V608.605Z" fill="#16F2F7"/>
<path d="M82.3923 600.684C82.1033 600.414 82.0955 600.008 82.3431 599.696L82.3711 599.661C82.6194 599.348 82.9906 599.117 83.4112 599C89.4313 597.325 84.9101 592.762 96.2675 589.09C90.2251 592.309 82.9442 601.093 82.4703 600.749C82.443 600.729 82.417 600.707 82.3923 600.684V600.684Z" fill="#16F2F7"/>
<path d="M90.8114 606.457C90.4459 606.305 90.2959 605.928 90.4182 605.549L90.432 605.506C90.5545 605.126 90.8209 604.779 91.1736 604.522C96.2211 600.839 90.3847 598.155 99.727 590.726C95.2013 595.863 91.4717 606.645 90.9071 606.49C90.8746 606.481 90.8426 606.47 90.8114 606.457V606.457Z" fill="#E6E6E6"/>
<path d="M66.1812 580.865L67.0993 583.691H70.0703L67.6667 585.437L68.5848 588.263L66.1812 586.517L63.7776 588.263L64.6957 585.437L62.2921 583.691H65.2631L66.1812 580.865Z" fill="#16F2F7"/>
<path d="M107.123 547L108.041 549.826H111.012L108.609 551.572L109.527 554.397L107.123 552.651L104.72 554.397L105.638 551.572L103.234 549.826H106.205L107.123 547Z" fill="#E6E6E6"/>
<path d="M128.858 577.327L129.776 580.153H132.747L130.343 581.899L131.261 584.725L128.858 582.978L126.454 584.725L127.372 581.899L124.969 580.153H127.94L128.858 577.327Z" fill="#16F2F7"/>
<path d="M84.8831 608.16L85.8012 610.986H88.7722L86.3686 612.732L87.2867 615.558L84.8831 613.811L82.4795 615.558L83.3976 612.732L80.994 610.986H83.965L84.8831 608.16Z" fill="#16F2F7"/>
<path d="M101.563 577.327L102.481 580.153H105.452L103.049 581.899L103.967 584.725L101.563 582.978L99.1596 584.725L100.078 581.899L97.6741 580.153H100.645L101.563 577.327Z" fill="#16F2F7"/>
<path d="M124.501 547L125.419 549.826H128.39L125.986 551.572L126.904 554.397L124.501 552.651L122.097 554.397L123.015 551.572L120.612 549.826H123.583L124.501 547Z" fill="#E6E6E6"/>
<path d="M64.6241 602.844L65.7883 605.577L68.7477 605.315L66.5079 607.267L67.6722 610L65.1236 608.473L62.8838 610.425L63.5485 607.529L61 606.002L63.9593 605.74L64.6241 602.844Z" fill="#E6E6E6"/>
<path d="M90.04 550.64C90.5759 550.376 91.1781 550.554 91.5192 551.032L91.5577 551.086C91.9002 551.566 92.0629 552.173 92.0343 552.793C91.6257 561.675 100.51 557.705 100.495 574.7C98.6383 565.071 89.1739 551.194 89.9078 550.715C89.9501 550.688 89.9941 550.663 90.04 550.64V550.64Z" fill="#16F2F7"/>
<path d="M82.2924 563.806C82.53 563.509 82.9198 563.468 83.2381 563.678L83.2741 563.701C83.5937 563.911 83.8436 564.244 83.988 564.634C86.0539 570.21 90.0963 565.542 94.4873 576.02C90.9352 570.55 81.9414 564.363 82.2365 563.885C82.2535 563.858 82.2721 563.831 82.2924 563.806L82.2924 563.806Z" fill="#E6E6E6"/>
<path d="M75.4541 580.014C75.4866 579.635 75.7879 579.385 76.1689 579.382L76.2119 579.381C76.5943 579.378 76.9873 579.516 77.3239 579.76C82.1414 583.246 82.9061 577.118 92.3813 583.386C86.3875 580.814 75.4724 580.672 75.4517 580.111C75.4505 580.079 75.4513 580.046 75.4541 580.014V580.014Z" fill="#E6E6E6"/>
<path d="M56.2796 138.669C57.0915 136.39 59.3557 135.044 61.661 135.303C62.6217 135.41 63.5815 135.496 64.5466 135.439C88.6164 134.024 118.429 147.805 150.165 166.679C121.113 143.17 94.5222 122.375 63.2483 143.746C61.0145 145.272 57.8496 144.733 56.5501 142.36C56.0281 141.406 55.8396 140.264 56.1509 139.085C56.1876 138.946 56.2305 138.808 56.2797 138.669H56.2796V138.669V138.669Z" fill="#E6E6E6"/>
<path d="M216.813 82.2823C218.797 83.5472 219.613 85.9528 218.952 88.0973L218.877 88.3392C218.215 90.492 216.771 92.3006 214.859 93.4911C187.49 110.53 219.178 132.335 168.525 167.531V167.531C193.053 141.284 213.228 80.5019 216.293 81.9915C216.47 82.0773 216.643 82.1742 216.813 82.2824H216.813V82.2823Z" fill="#E6E6E6"/>
<path d="M258.764 215.519C257.743 217.639 255.452 218.735 253.244 218.333L252.995 218.288C250.779 217.885 248.811 216.667 247.402 214.909C227.236 189.756 209.346 223.808 168.386 177.691H168.386C197.359 198.931 260.106 211.748 258.991 214.968C258.927 215.154 258.851 215.338 258.764 215.519V215.519H258.764V215.519Z" fill="#E6E6E6"/>
<path d="M221.904 213.947C220.853 214.53 219.159 214.448 217.792 213.816L217.637 213.745C216.265 213.111 215.202 212.221 214.601 211.248C206.006 197.321 188.158 206.359 169.798 179.959H169.798C184.849 194.313 223.463 212.808 222.152 213.788C222.076 213.844 221.993 213.897 221.904 213.947V213.947Z" fill="#E6E6E6"/>
<path d="M230.186 158.398C229.927 159.571 228.743 160.785 227.363 161.39L227.207 161.459C225.822 162.066 224.452 162.272 223.325 162.077C207.2 159.281 202.136 178.635 170.2 174.882H170.2C190.924 173.128 230.367 156.475 230.231 158.107C230.224 158.201 230.209 158.298 230.186 158.398H230.186Z" fill="#E6E6E6"/>
<path d="M68.806 231.144C67.6484 229.096 68.0572 226.588 69.6481 225.006L69.8276 224.827C71.4237 223.238 73.5474 222.319 75.7947 222.165C107.959 219.975 90.2223 185.843 151.471 178.555V178.555C117.49 190.209 71.1348 234.399 69.1283 231.645C69.0127 231.486 68.905 231.319 68.806 231.144V231.144V231.144Z" fill="#E6E6E6"/>
<path d="M198.159 230.776C196.969 231.57 195.442 231.412 194.426 230.487L194.312 230.383C193.292 229.455 192.655 228.176 192.476 226.791C189.907 206.97 170.023 219.235 163.254 181.61H163.254C171.597 202.197 200.031 229.212 198.448 230.558C198.357 230.635 198.26 230.708 198.159 230.776H198.159Z" fill="#E6E6E6"/>
<path d="M162.135 263.377C160.312 263.392 158.778 262.167 158.318 260.486L158.266 260.296C157.804 258.609 157.995 256.815 158.749 255.227C169.546 232.49 139.771 231.684 158.229 187.212H158.229C153.118 214.759 165.217 263.02 162.595 263.347C162.444 263.366 162.29 263.376 162.135 263.377V263.377H162.135Z" fill="#16F2F7"/>
<path d="M96.1695 232.306C94.9953 230.912 94.9602 228.949 95.9617 227.522L96.0746 227.361C97.0791 225.929 98.5821 224.932 100.287 224.499C124.683 218.309 106.31 194.865 152.332 180.71V180.71C127.858 194.348 98.4111 234.452 96.4867 232.641C96.3759 232.537 96.2699 232.425 96.1695 232.306H96.1695Z" fill="#16F2F7"/>
<path d="M110.972 211.952C110.229 211.258 110.209 210.214 110.845 209.413L110.917 209.323C111.556 208.518 112.509 207.925 113.59 207.625C129.06 203.321 117.442 191.596 146.627 182.157C131.1 190.43 112.39 213.002 111.172 212.117C111.102 212.066 111.035 212.011 110.972 211.952V211.952Z" fill="#16F2F7"/>
<path d="M132.606 226.785C131.667 226.396 131.281 225.426 131.596 224.453L131.631 224.343C131.946 223.365 132.63 222.475 133.537 221.814C146.507 212.348 131.51 205.453 155.516 186.361C143.887 199.563 134.303 227.27 132.852 226.869C132.768 226.846 132.686 226.818 132.606 226.785V226.785Z" fill="#E6E6E6"/>
<path d="M69.3142 161.024L71.6734 168.285H79.3079L73.1314 172.772L75.4906 180.033L69.3142 175.546L63.1377 180.033L65.4969 172.772L59.3204 168.285H66.955L69.3142 161.024Z" fill="#16F2F7"/>
<path d="M174.522 74L176.881 81.2609H184.516L178.339 85.7483L180.699 93.0092L174.522 88.5217L168.346 93.0092L170.705 85.7483L164.528 81.2609H172.163L174.522 74Z" fill="#E6E6E6"/>
<path d="M230.373 151.932L232.732 159.193H240.367L234.191 163.68L236.55 170.941L230.373 166.454L224.197 170.941L226.556 163.68L220.38 159.193H228.014L230.373 151.932Z" fill="#16F2F7"/>
<path d="M117.372 231.163L119.731 238.423H127.366L121.189 242.911L123.549 250.172L117.372 245.684L111.196 250.172L113.555 242.911L107.378 238.423H115.013L117.372 231.163Z" fill="#16F2F7"/>
<path d="M160.235 151.932L162.594 159.193H170.228L164.052 163.68L166.411 170.941L160.235 166.454L154.058 170.941L156.417 163.68L150.241 159.193H157.875L160.235 151.932Z" fill="#16F2F7"/>
<path d="M219.178 74L221.537 81.2609H229.171L222.995 85.7483L225.354 93.0092L219.178 88.5217L213.001 93.0092L215.36 85.7483L209.184 81.2609H216.818L219.178 74Z" fill="#E6E6E6"/>
<path d="M65.3128 217.502L68.3046 224.526L75.9092 223.851L70.1536 228.867L73.1454 235.891L66.5965 231.967L60.8409 236.983L62.549 229.542L56 225.618L63.6046 224.943L65.3128 217.502Z" fill="#E6E6E6"/>
<path d="M130.624 83.3539C132.001 82.6759 133.549 83.1333 134.425 84.3617L134.524 84.5003C135.404 85.7327 135.822 87.292 135.749 88.8867C134.699 111.711 157.527 101.509 157.49 145.181H157.49C152.719 120.438 128.398 84.7761 130.284 83.5473C130.393 83.4765 130.506 83.4119 130.624 83.3539H130.624Z" fill="#16F2F7"/>
<path d="M110.715 117.185C111.325 116.423 112.327 116.318 113.145 116.856L113.237 116.917C114.059 117.456 114.701 118.313 115.072 119.314C120.381 133.643 130.768 121.647 142.052 148.572C132.924 134.516 109.813 118.618 110.571 117.389C110.615 117.319 110.663 117.25 110.715 117.185L110.715 117.185Z" fill="#E6E6E6"/>
<path d="M93.1423 158.836C93.226 157.863 94.0001 157.218 94.9792 157.211L95.0897 157.21C96.0723 157.202 97.0823 157.556 97.9473 158.182C110.327 167.141 112.292 151.395 136.64 167.501C121.238 160.893 93.1893 160.528 93.1363 159.085C93.1332 159.002 93.1352 158.919 93.1423 158.836H93.1423Z" fill="#E6E6E6"/>
<g clip-path="url(#clip0_8_47)">
<path d="M131.625 691C132.133 694.254 134.745 693.141 136.33 693.193C140.474 693.329 144.634 693.162 148.782 692.984C151.701 692.858 153.315 693.966 152.972 697.019C152.324 702.778 151.937 708.537 151.853 714.341C151.817 716.823 149.77 718.633 147.291 718.858C143.823 719.173 140.276 719.231 136.816 718.879C132.262 718.416 134.809 714.394 133.615 711.723C131.688 716.206 129.41 719.619 123.684 719.128C119.243 718.748 119.388 715.193 117.71 712.634C113.202 717.681 108.211 721.247 101.152 717.731C100.021 717.167 99.1655 717.824 98.4446 718.266C96.874 719.229 95.127 719.285 93.611 718.923C84.3872 716.723 75.1944 719.676 66.0169 718.891C62.7118 718.608 59.3183 717.869 59.9684 713.013C60.5587 708.603 60.7159 704.136 61.2578 699.717C61.6704 696.354 63.2727 693.582 66.1106 691.36C67.3889 691 68.7778 691 70.5833 691C72.3486 692.15 73.8441 692.765 75.9432 692.19C77.0458 691.974 77.8879 691.979 78.7854 691.217C79.4444 691 79.8889 691 80.6666 691C81.124 691.122 81.248 691.244 81.5665 691.539C82.1327 691.735 82.5045 691.738 83.1756 691.806C86.5543 693.348 89.5365 692.667 92.7477 691.237C94.3889 691 95.7778 691 97.5833 691C100.058 692.634 102.257 692.321 104.747 691.236C106.389 691 107.778 691 109.583 691C113.405 693.274 116.951 692.407 120.75 691.235C121.75 691 122.5 691 123.625 691C125.376 692.486 126.853 692.978 128.767 691.23C129.75 691 130.5 691 131.625 691Z" fill="#862561"/>
<path d="M77.2245 692.937C77.0766 692.522 77.2473 692.064 77.209 691.303C77.4445 691 77.8889 691 78.6667 691C78.7602 691.82 78.5809 692.687 77.2245 692.937Z" fill="#8E1D71"/>
<path d="M112.484 749.928C110.152 747.654 108.24 745.394 105.483 748.96C104.531 750.19 102.973 750.35 101.822 749.923C96.0778 747.787 90.2253 751.265 84.767 749.797C78.2232 748.037 72.0314 749.879 65.7008 750.064C61.6789 750.182 60.1988 748.112 60.0866 744.786C59.8792 738.638 60.0452 732.478 60.0035 726.324C59.9891 724.188 61.164 722.886 62.9079 722.087C64.0782 721.551 65.4076 721.055 66.6632 721.061C74.862 721.104 83.0048 722.19 91.2819 721.206C95.4177 720.715 99.1882 723.152 100.837 728.366C103.194 723.799 105.714 720.313 111.351 720.894C114.983 721.269 115.756 723.896 117.463 726.574C119.471 722.923 122.198 720.186 126.522 721.086C130.403 721.894 134.474 719.623 138.093 721.816C139.655 722.764 140.445 722.488 141.977 721.755C147.566 719.083 150.958 721.358 150.989 727.507C151.015 732.497 151.013 737.487 150.99 742.478C150.963 748.368 148.965 750.79 143.252 749.785C139.213 749.074 135.517 750.044 131.667 750.007C125.407 749.948 119.146 749.979 112.484 749.928Z" fill="#852460"/>
<path d="M85.7344 702.326C86.6193 695.555 93.3393 693.6 99.1652 695.686C100.456 696.149 101.519 696.809 103.114 696.028C107.795 693.736 111.91 694.843 115.625 698.897C117.499 699.99 117.893 701.594 118.315 703.607C118.315 704.861 118.106 705.648 117.39 706.683C115.256 709.486 115.041 713.316 111.075 714.546C107.355 716.382 104.017 715.425 100.335 713.989C99.3779 714.069 98.7993 714.196 98.0819 714.588C88.6022 716.936 82.9034 711.382 85.7344 702.326Z" fill="#FEFEFE"/>
<path d="M64.3559 709.257C63.971 708.556 63.9061 708.131 63.7989 707.385C63.5791 706.6 63.518 706.119 63.7155 705.291C63.8734 704.958 64.0069 704.945 64.0568 704.99C65.8805 703.184 68.2214 702.769 70.5236 703.104C74.3021 703.653 78.13 703.164 82.3139 704.088C83.8893 705.143 84.1414 706.327 83.8789 708.088C83.3286 709.369 82.5866 709.776 81.3201 710.057C79.9386 710.108 78.9683 709.749 77.6165 710.086C75.4897 710.631 73.7014 710.821 71.4845 710.539C70.5482 710.497 70.0094 710.491 69.0572 710.504C67.1975 710.688 65.8422 710.493 64.3559 709.257Z" fill="#FF769B"/>
<path d="M83.3535 705.145C76.9995 705.004 71.0133 705.009 64.5669 705.025C64.0782 704.863 64.0498 704.692 63.9897 704.262C63.9599 702.573 64.1997 701.19 65.093 699.564C67.6821 698.029 69.9433 697.974 72.5085 699.685C72.8422 699.983 73.0036 700.441 73.048 700.68C73.9249 701.916 74.8754 701.263 76.1671 701.114C78.7059 701.964 81.1782 700.898 83.5863 702.428C84.3175 703.015 84.5272 703.474 84.435 704.404C84.1271 704.953 83.9242 705.122 83.3535 705.145Z" fill="#FD82A0"/>
<path d="M124.791 702.7C125.528 702.948 125.909 702.948 126.577 702.948C128.509 701.643 130.262 701.209 132.535 702.639C133.393 705.113 132.151 706.685 131.02 708.665C129.28 710.683 127.192 710.737 124.711 710.792C124.066 710.77 123.81 710.728 123.198 710.529C121.371 708.895 120.824 706.826 119.441 704.841C119.321 703.891 119.448 703.365 120.03 702.589C121.738 701.584 123.102 701.598 124.791 702.7Z" fill="#FE789C"/>
<path d="M149.222 706.877C148.575 707.364 148.063 707.602 147.259 707.868C145.635 708.381 144.241 708.664 142.544 709.227C140.632 709.516 139.119 709.526 137.528 708.223C137.204 707.509 137.148 707.071 137.15 706.305C137.278 705.815 137.348 705.653 137.3 705.255C137.17 704.825 137.156 704.633 137.213 704.16C138.106 701.474 140.411 701.594 142.646 700.855C143.282 700.721 143.54 700.682 144.193 700.618C145.924 700.577 147.263 700.558 148.703 701.711C149.283 702.754 149.551 703.547 149.796 704.666C149.512 705.506 149.506 706.085 149.222 706.877Z" fill="#FE7C9E"/>
<path d="M137.149 708.314C138.889 707.964 140.519 707.98 142.562 707.992C144.063 708.37 145.228 708.466 146.638 708.98C148.954 709.258 150.044 710.215 149.72 712.685C147.945 714.886 145.408 713.296 143.292 714.762C141.619 715.06 140.214 715.12 138.388 715.186C137.791 714.991 137.616 714.789 137.403 714.189C137.256 712.087 137.147 710.383 137.149 708.314Z" fill="#FE6796"/>
<path d="M140.595 695.283C142.92 695.043 144.894 695.032 146.86 694.904C151.599 694.594 151.844 696.758 149.537 700.424C147.961 701.027 146.649 700.995 144.946 700.994C144.288 700.989 144.024 700.986 143.364 700.969C141.303 700.845 139.823 700.328 138.522 698.662C138.08 696.757 138.518 695.679 140.595 695.283Z" fill="#FF94A7"/>
<path d="M132.974 702.752C131.154 702.982 129.44 702.979 127.294 702.963C127.221 701.878 127.677 700.828 127.921 699.731C129.055 694.631 129.795 694.246 134.944 696.631C135.555 697.266 135.808 697.692 135.95 698.577C135.895 700.044 135.269 700.807 134.19 701.715C133.632 702.146 133.356 702.333 132.974 702.752Z" fill="#FE8CA4"/>
<path d="M125.075 702.569C123.633 702.989 122.119 703.031 120.153 703.109C116.267 702.68 117.388 699.726 116.804 697.357C121.883 693.754 122.711 694.047 124.043 699.447C124.274 700.383 124.679 701.276 125.075 702.569Z" fill="#FE8CA3"/>
<path d="M116.647 697.175C118.363 698.582 117.469 701.172 119.457 702.911C119.804 703.576 119.906 704.006 120.108 704.753C121.203 706.308 121.92 707.679 122.324 709.569C123.076 711.077 123.879 712.173 124.514 713.737C124.54 714.295 124.497 714.519 124.234 715.001C121.504 716.667 121.283 714.351 120.631 713.053C119.745 711.289 119.107 709.401 118.212 707.243C117.167 706.34 117.642 705.399 117.335 704.341C116.811 702.632 116.412 701.212 115.981 699.415C116.11 698.483 116.27 697.928 116.647 697.175Z" fill="#BC3D6F"/>
<path d="M83.7281 705.363C83.9324 704.568 83.9539 704.118 83.9285 703.333C83.8068 702.792 83.7319 702.585 83.8995 702.156C84.5589 701.952 84.9757 701.97 85.7054 701.982C86.1509 703.957 86.084 705.977 86.4548 707.913C87.4041 712.869 90.7782 715.024 97.5224 714.904C93.4561 717.666 89.6141 715.785 85.5166 713.145C84.248 712.424 83.7474 711.529 83.7481 709.995C83.9498 708.289 83.3137 707.027 83.7281 705.363Z" fill="#BC3F70"/>
<path d="M70.6566 709.394C72.9691 709.022 75.0161 709.007 77.5008 708.988C78.1201 709.154 78.3016 709.324 78.6457 709.833C79.0841 711.534 78.6463 712.644 77.3072 713.759C75.9119 715.513 74.2559 715.09 72.365 715.193C70.1226 713.757 69.2952 712.034 70.6566 709.394Z" fill="#FB6897"/>
<path d="M75.8214 699.389C76.0774 698.593 76.1846 698.227 76.3469 697.581C76.3244 696.958 76.3835 696.645 76.7582 696.167C81.1662 692.974 83.0376 695.017 83.8448 699.619C81.8036 702.021 79.4233 701.69 76.6064 700.791C76.0376 700.305 75.8551 700.063 75.8214 699.389Z" fill="#FF93A6"/>
<path d="M72.8506 699.604C70.5949 699.983 68.3475 699.983 65.679 699.976C64.2504 699.46 64.5743 698.54 64.7906 697.362C69.8801 693.363 70.9326 693.661 72.8506 699.604Z" fill="#FE93A7"/>
<path d="M124.419 715.229C123.989 715.061 123.967 714.862 123.902 714.366C124.66 712.801 122.911 711.746 123.79 710.239C125.807 708.31 128.028 709.261 130.453 708.991C130.611 712.769 129.478 715.691 124.419 715.229Z" fill="#FD6595"/>
<path d="M63.9527 709.407C65.4351 708.993 66.8342 709.005 68.6537 709.026C70.0602 710.118 69.9877 711.458 69.9245 713.174C69.7395 713.799 69.614 714.032 69.2196 714.556C64.606 715.862 63.1959 713.903 63.9527 709.407Z" fill="#FD6796"/>
<path d="M84.6147 708.775C84.9558 710.078 84.9987 711.176 85.1026 712.685C84.1282 713.976 83.3291 715.265 81.3404 715.097C80.647 714.737 80.2369 714.497 79.534 714.073C78.75 712.89 78.9447 711.917 79.0908 710.597C79.2438 710.02 79.3406 709.8 79.6753 709.308C80.6891 709.023 81.4651 709.01 82.6291 708.994C83.3815 708.638 83.8178 708.507 84.6147 708.775Z" fill="#FF6A98"/>
<path d="M138.666 697.777C140.202 698.54 141.405 699.077 142.824 699.872C143.375 700.494 143.5 700.924 143.229 701.69C141.67 703.657 139.434 702.525 137.588 703.734C137.283 703.88 137.015 703.504 136.928 703.29C136.358 701.833 135.725 700.618 136.188 698.82C136.455 698.214 136.616 697.999 137.152 697.635C137.796 697.509 138.064 697.53 138.666 697.777Z" fill="#FF88A2"/>
<path d="M75.9298 700.197C78.4838 699.977 80.7315 699.984 83.3989 699.987C83.8904 700.416 83.9622 700.849 84.088 701.608C84.0962 702.11 84.0504 702.287 83.9431 702.731C81.4241 702.776 78.8904 703.531 76.2183 702.136C75.5978 701.426 75.4941 700.951 75.9298 700.197Z" fill="#FE84A0"/>
<path d="M100.204 714.235C103.466 712.799 106.504 716.477 110.472 714.883C107.343 717.022 103.875 716.51 100.204 714.235Z" fill="#B94071"/>
<path d="M69.1834 714.155C69.0407 712.59 69.0372 711.222 69.0538 709.444C69.485 709.023 69.896 709.011 70.6147 709.018C71.2549 710.821 71.5875 712.605 71.947 714.784C71.501 715.839 70.9469 715.976 70.1447 715.235C69.7148 714.863 69.4886 714.638 69.1834 714.155Z" fill="#BD3C6F"/>
<path d="M79.5108 709.867C79.8189 711.157 79.904 712.183 80.0084 713.594C80.1681 714.211 80.3086 714.442 80.2409 715.02C78.5707 716.447 78.1914 714.962 77.2351 714.131C77.3234 712.896 77.6474 711.816 78.0374 710.401C78.4039 709.669 78.8034 709.527 79.5108 709.867Z" fill="#B93B6E"/>
<path d="M143.435 715.061C144.044 711.616 146.852 713.508 149.247 713.03C148.762 716.658 145.834 714.584 143.435 715.061Z" fill="#FB76A2"/>
<path d="M146.982 708.782C145.54 710.28 144.22 710.502 143.054 708.317C144.005 706.841 145.212 706.81 146.745 707.661C146.977 708.093 146.986 708.29 146.982 708.782Z" fill="#D95786"/>
<path d="M143.852 700.515C145.558 700.3 146.99 700.303 148.829 700.472C149.17 700.929 149.109 701.221 149.034 701.738C147.638 701.962 146.261 701.962 144.471 701.936C143.656 701.615 143.483 701.228 143.852 700.515Z" fill="#BC3E6F"/>
<path d="M64.7509 697.235C65.0486 697.746 65.0794 698.491 65.184 699.603C65.013 701.161 64.7681 702.353 64.2407 703.774C61.996 701.653 64.3819 699.653 64.7509 697.235Z" fill="#BB3C6E"/>
<path d="M137.327 697.72C137.124 699.473 137.08 700.865 136.939 702.667C136.548 702.934 136.313 702.725 136.022 702.241C135.238 701.375 135.115 700.576 135.223 699.39C135.127 698.602 135.109 698.121 135.129 697.28C135.603 696.68 136.038 696.44 136.694 696.081C137.315 696.341 137.506 696.808 137.327 697.72Z" fill="#BB3C6E"/>
<path d="M139.044 697.703C139 698.003 138.508 698.01 138.261 698.006C137.376 697.351 137.518 696.547 137.829 695.454C138.881 695.09 139.677 695.032 140.712 695.04C140.33 695.873 139.709 696.638 139.044 697.703Z" fill="#FEB2BE"/>
<path d="M134.983 699.357C135.9 699.681 135.983 700.515 135.935 701.71C135.464 702.018 135.02 702.005 134.241 701.975C134.212 701.184 134.516 700.407 134.983 699.357Z" fill="#932C65"/>
<path d="M76.1782 699.715C76.1459 700.385 76.0556 700.801 75.95 701.533C75.0399 702.007 74.1397 702.213 73.2158 701.235C74.348 701.084 74.871 700.144 75.7259 699.147C76.0202 699.126 76.0703 699.293 76.1782 699.715Z" fill="#C34876"/>
<path d="M137.155 713.902C137.502 714.008 137.64 714.225 137.872 714.817C137.546 715.333 136.946 715.719 136.739 715.568C136.023 715.045 136.361 714.471 137.155 713.902Z" fill="#BB3C6E"/>
<path d="M137.836 695.188C138.051 695.861 138.018 696.574 138 697.644C138.015 698.002 137.59 698.031 137.379 698.056C137.106 697.61 137.043 697.14 136.947 696.315C137.138 695.717 137.363 695.472 137.836 695.188Z" fill="#E56F90"/>
<path d="M117.137 704.417C117.485 704.803 117.759 705.554 118.047 706.613C118.061 706.921 117.6 706.974 117.368 706.991C117.112 706.266 117.088 705.524 117.137 704.417Z" fill="#9B376D"/>
<path d="M63.6936 705.131C63.8883 705.429 63.9032 705.901 63.8374 706.719C63.2168 706.541 63.0434 705.967 63.6936 705.131Z" fill="#BC3B6E"/>
<path d="M149.341 706.947C149.194 706.564 149.3 706.001 149.589 705.215C149.713 705.584 149.654 706.176 149.341 706.947Z" fill="#D86B92"/>
<path d="M69.0176 714.18C69.3532 714.094 69.6012 714.302 69.8945 714.805C69.824 715.01 69.6468 714.992 69.2101 714.911C68.9505 714.848 68.9911 714.402 69.0176 714.18Z" fill="#E65186"/>
<path d="M80.2736 715.304C80.0248 715.137 80.017 714.905 80.0184 714.327C80.3277 714.14 80.5769 714.358 80.8823 714.861C80.9892 715.089 80.5146 715.241 80.2736 715.304Z" fill="#E14F84"/>
<path d="M81.0779 692.255C80.9852 692.134 81.4649 692.081 81.6963 692.148C81.9278 692.216 81.5771 692.483 81.5771 692.483C81.5771 692.483 81.1706 692.377 81.0779 692.255Z" fill="#8E1D71"/>
<path d="M137.127 705.259C137.492 705.209 137.575 705.462 137.32 705.876C137.207 705.977 137.071 705.5 137.127 705.259Z" fill="#FE6796"/>
<path d="M76.7345 696.148C76.9668 696.31 76.9052 696.63 76.566 697.115C76.4528 696.977 76.5036 696.652 76.7345 696.148Z" fill="#C34876"/>
<path d="M138.311 741.846C137.94 743.467 137.822 744.846 136.336 745.981C135.758 746.334 135.469 746.507 134.935 746.712C133.81 746.703 132.936 746.672 131.734 746.658C129.115 745.573 129.656 743.439 129.488 741.53C129.218 738.472 130.243 735.302 128.493 731.996C127.949 730.863 127.853 730.052 127.989 728.825C128.687 727.026 129.553 725.772 130.804 724.332C134.755 723.247 137.714 724.014 139.662 727.932C141.067 728.077 141.018 727.026 141.661 726.175C142.882 723.029 145.322 723.727 147.288 724.095C149.547 724.518 149.01 726.711 148.87 728.211C148.323 734.027 150.319 740.013 147.388 745.919C146.877 746.234 146.691 746.315 146.211 746.325C145.191 746.204 144.467 746.154 143.381 746.071C140.736 745.513 140.662 743.254 139.644 741.736C139.193 742.29 139.293 738.639 138.311 741.846Z" fill="#FC7B9E"/>
<path d="M63.4195 744.895C65.0305 738.616 61.1433 732.82 63.0406 726.52C63.212 725.845 63.3434 725.564 63.7646 725.161C69.8229 721.823 74.9008 722.635 78.9758 727.654C81.2732 729.995 79.9243 733.001 81.2893 735.702C81.476 737.904 81.7854 739.709 80.198 741.57C76.1936 746.496 71.04 746.237 65.468 746.065C64.374 745.982 63.846 745.697 63.4195 744.895Z" fill="#FC7A9D"/>
<path d="M81.6605 726.352C81.8296 725.787 81.8776 725.627 82.0161 725.233C82.2353 724.836 82.3641 724.673 82.7451 724.328C85.3901 723.517 87.7868 722.891 90.2966 723.264C96.4133 724.174 98.8051 727.223 98.7812 734.222C96.3029 735.623 93.8993 737.07 96.1034 740.203C98.627 743.79 96.6894 745.001 93.3463 746.081C91.7133 746.19 90.8003 744.298 89.0252 745.525C88.3746 745.759 88.0047 745.892 87.3512 746.105C86.88 746.255 86.6924 746.325 86.2141 746.319C85.1943 746.198 84.465 746.154 83.3708 746.09C82.8422 745.896 82.6786 745.722 82.5381 745.19C82.552 744.185 82.5427 743.538 82.4527 742.577C81.2871 740.535 81.691 738.495 81.1093 736.234C80.4749 733.616 80.2316 731.396 80.9921 728.77C81.4135 727.871 81.5348 727.326 81.6605 726.352Z" fill="#FC7A9D"/>
<path d="M99.6449 743.415C101.149 738.926 102.556 734.871 104.014 730.442C104.447 729.594 104.493 729.005 104.788 728.207C104.958 727.971 105.088 727.592 105.12 727.394C105.239 726.885 105.388 726.606 105.708 726.149C109.265 722.35 113.163 722.903 114.652 727.214C116.038 731.226 117.378 735.253 118.928 739.591C121.093 741.952 122.485 743.952 118.314 745.745C117.951 745.944 118.003 745.995 117.981 745.965C117.802 746.085 117.645 746.235 117.168 746.433C114.389 746.88 113.348 745.299 112.25 743.25C110.92 743.072 109.876 743.042 108.441 743.036C107.791 743.276 107.52 743.477 106.994 743.721C106.034 744.49 105.32 745.202 104.353 746.081C101.599 747.314 100.122 746.439 99.6449 743.415Z" fill="#FC7A9D"/>
<path d="M121.704 732.433C121.915 731.978 122.059 731.523 122.098 731.287C122.945 729.9 124.147 729.701 125.893 729.739C126.982 729.933 127.536 730.215 128.281 731.026C130.102 736.048 129.883 740.695 128.356 745.671C127.998 745.987 127.556 746.142 127.336 746.22C121.912 747.341 121.095 746.871 120.911 742.089C120.793 739.022 120.722 735.917 121.704 732.433Z" fill="#FC7A9E"/>
<path d="M128.323 746.133C127.994 741.349 127.989 736.712 127.901 731.625C128.082 730.97 128.347 730.764 129.081 730.744C132.563 735.62 130.069 740.925 131.311 746.249C130.412 747.065 129.517 746.766 128.323 746.133Z" fill="#B6396C"/>
<path d="M121.613 732.188C121.937 735.279 122.147 738.592 121.93 741.877C121.711 745.196 123.147 746.399 126.682 746.214C124.211 749.947 121.476 747.23 118.325 746.009C120.333 744.604 120.029 742.683 119.108 740.267C121.181 737.793 118.746 734.364 121.613 732.188Z" fill="#B5396C"/>
<path d="M121.52 726.253C122.644 722.804 125.213 724.429 127.482 724.059C128.798 724.921 129.154 725.926 128.736 727.521C128.382 728.779 127.966 729.47 126.673 729.872C123.804 730.057 120.792 730.996 121.52 726.253Z" fill="#FC7B9E"/>
<path d="M81.601 727.717C81.9014 730.399 81.9646 732.754 81.9986 735.55C81.5901 736.311 81.153 736.455 80.3744 736.203C78.375 733.785 79.0897 731.24 79.1088 728.379C79.5207 727.955 79.8823 727.953 80.5155 727.954C80.9792 727.767 81.1715 727.578 81.601 727.717Z" fill="#A3336A"/>
<path d="M138.335 742.305C137.965 740.982 137.69 739.85 138.523 738.512C140.797 740.341 141.313 743.185 142.913 745.704C139.358 747.606 140.15 743.57 138.335 742.305Z" fill="#BD3D6F"/>
<path d="M80.0653 736.405C80.5085 735.983 80.9259 735.985 81.6563 735.988C83.3506 737.662 82.814 739.588 82.5328 741.861C81.7555 742.167 81.1391 742.071 80.2074 741.935C79.9413 740.207 79.9904 738.518 80.0653 736.405Z" fill="#BA3B6D"/>
<path d="M121.385 725.999C122.072 727.919 122.146 730.322 125.723 729.127C126.376 729.501 126.505 729.912 126.241 730.651C124.995 730.967 123.954 731.013 122.525 731.055C120.02 729.788 119.106 728.267 121.385 725.999Z" fill="#B83A6D"/>
<path d="M89.0524 745.804C88.9139 744.378 89.0834 743.129 89.2687 741.763C91.4039 742.274 91.4509 744.455 92.8558 745.83C91.7277 747.495 90.5438 746.744 89.0524 745.804Z" fill="#C14172"/>
<path d="M111.967 743.456C113.014 741.984 113.661 742.515 114.019 743.676C114.391 744.88 115.062 745.7 116.667 746.032C117.127 746.246 117.248 746.389 117.182 746.743C113.769 748.384 112.291 747.022 111.967 743.456Z" fill="#BA3B6D"/>
<path d="M99.5374 743.258C100.118 744.985 101.301 746.035 103.732 746.146C103.594 747.964 102.481 748.05 101.037 747.448C99.1868 746.678 98.5713 745.419 99.5374 743.258Z" fill="#B3376B"/>
<path d="M128.516 728.289C128.094 727.009 128.011 725.952 127.906 724.499C128.684 724.092 129.484 724.082 130.683 724.075C130.769 725.34 131.276 726.804 129.841 727.966C129.302 728.213 129.078 728.363 128.516 728.289Z" fill="#B6396C"/>
<path d="M141.529 725.986C141.916 727.023 142.078 728.142 142.048 729.257C142.03 729.937 142.389 731.153 141.186 731.057C139.969 730.96 140.056 729.733 139.979 728.446C140.072 727.225 140.263 726.412 141.529 725.986Z" fill="#B83B6E"/>
<path d="M82.32 744.917C82.6697 745.026 82.7781 745.22 82.9462 745.742C82.6273 746.604 82.0962 746.974 81.5923 746.398C81.1018 745.836 81.5116 745.332 82.32 744.917Z" fill="#BA3B6D"/>
<path d="M63.3116 744.895C63.8794 744.892 64.3473 745.199 64.9169 745.777C63.7434 747.208 63.2806 746.629 63.3116 744.895Z" fill="#BB3B6D"/>
<path d="M99.0008 734.562C99.0148 735.056 100.206 735.367 99.269 736.071C99.1717 735.766 99.0745 735.46 98.9656 734.883C98.9538 734.612 99.0168 734.592 99.0008 734.562Z" fill="#8D386B"/>
<path d="M104.726 728.163C104.815 728.542 104.673 729.112 104.298 729.876C104.208 729.497 104.351 728.926 104.726 728.163Z" fill="#B83C6F"/>
<path d="M81.8933 727.695C81.6636 728.032 81.489 728.019 81.0507 727.982C80.9825 727.421 81.178 726.884 81.5775 726.148C81.8371 726.414 81.8927 726.88 81.8933 727.695Z" fill="#BA3B6D"/>
<path d="M107.012 743.76C107.008 743.552 107.268 743.327 107.789 743.081C107.792 743.288 107.534 743.515 107.012 743.76Z" fill="#BA3B6D"/>
<path d="M146.045 746.378C146.103 746.206 146.292 746.156 146.771 746.13C146.767 746.27 146.471 746.386 146.045 746.378Z" fill="#BD3D6F"/>
<path d="M134.948 746.75C134.968 746.55 135.251 746.365 135.793 746.175C135.771 746.369 135.491 746.567 134.948 746.75Z" fill="#B6396C"/>
<path d="M117.214 746.845C116.995 746.953 117 746.527 117.003 746.315C117.006 746.102 117.478 745.995 117.718 745.965C117.892 746.274 117.717 746.541 117.214 746.845Z" fill="#B5396C"/>
<path d="M86.0486 746.369C86.1123 746.197 86.301 746.151 86.7787 746.145C86.7696 746.288 86.4716 746.392 86.0486 746.369Z" fill="#BA3B6D"/>
<path d="M82.7588 724.168C82.8625 724.394 82.6839 724.606 82.284 724.89C82.0637 724.637 82.2016 724.367 82.7588 724.168Z" fill="#EC6B91"/>
<path d="M63.7136 725.122C63.9066 725.31 63.8086 725.619 63.4204 726.045C63.1741 725.839 63.2715 725.532 63.7136 725.122Z" fill="#BB3B6D"/>
<path d="M105.629 726.1C105.848 726.287 105.756 726.6 105.346 727.037C105.118 726.845 105.214 726.533 105.629 726.1Z" fill="#B83C6F"/>
<path d="M100.463 732.528C100.439 732.484 100.486 732.572 100.463 732.528V732.528Z" fill="#8D386B"/>
<path d="M112.763 700.027C113.749 700.609 114.66 701.079 114.833 701.741C115.515 704.355 114.987 706.895 112.265 707.828C109.366 708.823 108.5 705.892 108.184 704.164C107.693 701.476 109.077 699.51 112.763 700.027Z" fill="#202020"/>
<path d="M99.8132 707.948C96.3579 707.045 94.7774 703.294 96.4398 701.002C97.2464 699.89 98.3957 699.917 99.5659 700.017C101.129 700.149 101.865 701.037 102.007 702.584C102.196 704.641 101.713 706.435 99.8132 707.948Z" fill="#1F1F1F"/>
<path d="M84.8125 708.65C84.4917 708.989 84.0705 709 83.3332 709C83.0082 707.926 82.9992 706.862 82.9879 705.398C82.9857 704.999 83.4491 705 83.68 705.009C84.178 706.118 84.4451 707.219 84.8125 708.65Z" fill="#FD98B5"/>
<path d="M79.8035 709.862C79.3721 710.103 79.0104 710.074 78.3761 710.055C78.0731 709.885 78.0428 709.705 77.9756 709.254C78.41 708.338 78.9494 708.524 79.707 708.945C79.8999 709.221 79.8865 709.407 79.8035 709.862Z" fill="#D44E7D"/>
<path d="M123.779 709.99C124.073 711.225 124.895 711.987 125.576 712.928C126.579 714.315 124.942 713.741 124.157 714.048C122.626 713.304 121.91 712.243 121.912 710.407C122.054 709.923 122.245 709.776 122.748 709.813C123.06 709.997 123.539 709.992 123.779 709.99Z" fill="#FE7AA5"/>
<path d="M123.036 709.639C122.86 710.007 122.661 710.017 122.162 710.048C121.31 708.628 120.758 707.187 120.206 705.407C122.501 705.568 122.716 707.452 123.036 709.639Z" fill="#FF8DAF"/>
<path d="M143.86 700.225C144.098 700.655 144.07 701.013 144.05 701.639C143.885 701.928 143.712 701.948 143.276 701.968C143.018 701.56 143.022 701.151 143.034 700.436C143.226 700.138 143.41 700.145 143.86 700.225Z" fill="#D45A82"/>
<path d="M127.986 728.309C128.402 728.067 128.626 728.068 129.188 728.067C129.515 728.781 129.503 729.497 129.52 730.572C129.26 730.964 128.97 730.997 128.249 731.104C127.419 731.131 127.021 731.086 126.329 730.981C126.032 730.527 126.03 730.133 126.044 729.444C126.637 728.95 127.216 728.751 127.986 728.309Z" fill="#8E2A64"/>
<path d="M74.2856 738.725C73.049 740.134 71.6636 740.689 70.3187 739.802C69.7545 739.429 69.9547 738.102 70.6722 737.606C72.0937 736.622 73.453 736.736 74.2856 738.725Z" fill="#BF4273"/>
<path d="M71.5707 731.571C69.8446 731.467 69.8714 730.591 70.489 729.643C70.897 729.017 71.6791 729.015 72.2052 729.436C73.1616 730.202 72.3652 730.821 71.5707 731.571Z" fill="#B2396D"/>
<path d="M91.4361 729.678C91.9001 731.01 92.5059 732.325 90.7769 732.586C89.9434 732.712 89.314 731.886 89.2037 731.041C89.0071 729.534 89.6728 728.903 91.4361 729.678Z" fill="#BD3D6F"/>
<path d="M110.295 732.897C111.106 734.332 111.738 735.819 109.813 736.665C109.482 736.811 108.595 736.532 108.522 736.284C108.089 734.813 109.06 733.84 110.295 732.897Z" fill="#BF4475"/>
</g>
<path d="M416.191 720.389L691.941 720.696C692.256 720.696 692.559 720.571 692.783 720.347C693.006 720.124 693.131 719.821 693.131 719.505C693.131 719.19 693.006 718.887 692.783 718.663C692.559 718.44 692.256 718.315 691.941 718.315L416.191 718.007C415.875 718.007 415.572 718.133 415.349 718.356C415.125 718.579 415 718.882 415 719.198C415 719.514 415.125 719.817 415.349 720.04C415.572 720.263 415.875 720.389 416.191 720.389V720.389Z" fill="#CACACA"/>
<path d="M553.201 671.549L555.087 684.835V684.868L555.71 689.289L556.72 696.386V696.394L557.141 699.383L557.772 703.829L563.413 703.711L565.097 703.669L565.981 703.652L565.897 699.729L565.687 689.322L565.308 671.296H565.232L563.548 671.33L556.821 671.473L555.137 671.507L553.201 671.549Z" fill="#FFB6B6"/>
<path d="M540.075 717.468C540.125 719.497 541.801 721.105 543.821 721.063L546.516 721.004L548.2 720.971L554.927 720.836L556.619 720.802L560.138 720.727L562.824 714.85L563.354 717.367V717.376L564.045 720.642L565.03 720.626L570.199 720.516L568.044 699.813L565.897 699.729L565.114 699.695L563.43 699.628L557.149 699.383H557.141L556.703 699.367L555.019 699.299L554.32 699.274L554.447 705.151L548.25 709.621L546.558 710.842L541.599 714.42C540.622 715.128 540.049 716.264 540.075 717.468L540.075 717.468H540.075Z" fill="#2F2E41"/>
<path d="M618.485 670.586L623.158 683.166L623.165 683.199L624.716 687.385L627.215 694.104L627.217 694.112L628.265 696.943L629.829 701.152L635.315 699.835L636.951 699.435L637.811 699.23L636.893 695.415L634.471 685.292L630.261 667.76L630.187 667.777L628.549 668.168L622.006 669.741L620.368 670.133L618.485 670.586Z" fill="#FFB6B6"/>
<path d="M615.443 718.248C615.924 720.22 617.904 721.434 619.869 720.963L622.489 720.331L624.127 719.939L630.671 718.375L632.318 717.981L635.74 717.158L637.112 710.844L638.167 713.19L638.169 713.198L639.539 716.243L640.498 716.017L645.525 714.809L639.009 695.04L636.893 695.415L636.121 695.549L634.462 695.842L628.273 696.941L628.265 696.943L627.833 697.02L626.174 697.312L625.486 697.437L626.861 703.152L621.759 708.84L620.365 710.393L616.283 714.945C615.479 715.845 615.162 717.077 615.443 718.248H615.443H615.443Z" fill="#2F2E41"/>
<path d="M567.18 422.017L561.323 446.768C578.982 456.55 596.43 459.764 604.009 448.098L613.926 426.379L567.18 422.017H567.18Z" fill="#FFB6B6"/>
<path d="M602.566 448.301C601.555 455.081 586.891 441.639 561.568 446.143L544.306 503.684V685.657L576.673 687.095L568.761 590.714L584.944 545.76L579.909 588.916L615.926 687.095H642.024L614.434 599.705L618.75 522.744C618.75 522.744 628.819 492.535 610.838 468.08L602.566 448.301H602.566Z" fill="#2F2E41"/>
<path d="M607.601 443.266L562.43 432.35L562.136 418.017C562.136 418.017 554.261 410.643 562.177 397.559L581.967 364.851L583.8 358.685L599.159 355.973L615.633 373.516L618.382 417.807L607.601 443.266L607.601 443.266V443.266Z" fill="#E6E6E6"/>
<path d="M549.141 349.46L534.362 374.586L523.685 371.088L542.469 345.359C542.106 344.275 542.04 343.077 542.35 341.888C543.201 338.631 546.531 336.68 549.789 337.53C553.046 338.381 554.997 341.711 554.146 344.969C553.51 347.406 551.485 349.112 549.141 349.46V349.46Z" fill="#FFB6B6"/>
<path d="M596.716 384.01L598.775 374.62C598.775 374.62 597.169 368.532 586.083 368.896C574.997 369.26 537.195 374.339 537.195 374.339L541.205 368.055L542.33 362.013L531.538 358.805L526.346 362.603L524.872 366.555L525.83 367.847L523.085 370.256C520.331 377.022 523.384 384.757 530.016 387.819L532.719 389.71L536.408 390.938L540.436 389.696L596.716 384.01L596.716 384.01H596.716V384.01Z" fill="#E6E6E6"/>
<path d="M634.69 478.57L624.911 451.109L634.447 445.167L642.116 476.086C643.181 476.504 644.142 477.222 644.855 478.223C646.806 480.967 646.164 484.773 643.421 486.724C640.678 488.676 636.872 488.034 634.92 485.291C633.46 483.238 633.452 480.59 634.69 478.57V478.57Z" fill="#FFB6B6"/>
<path d="M602 375.977L610.117 370.827C610.117 370.827 616.388 370.252 619.841 380.793C623.295 391.333 632.589 434.965 632.589 434.965L636.163 440.175L636.443 441.758L639.576 446.21L638.449 447.82L642.706 450.17L626.804 459.349L621.498 450.649L622.381 446.324L619.679 444.433L617.262 441.387L617.05 437.177L602 375.977L602 375.977V375.977Z" fill="#E6E6E6"/>
<path d="M579.46 346.284L588.82 354.19L579.429 325.051L578.036 326.084C576.584 327.162 575.852 328.958 576.138 330.743L579.46 346.284L579.46 346.284Z" fill="#2F2E41"/>
<path d="M591.426 352.812C600.079 352.812 607.093 345.798 607.093 337.146C607.093 328.494 600.079 321.479 591.426 321.479C582.774 321.479 575.76 328.494 575.76 337.146C575.76 345.798 582.774 352.812 591.426 352.812Z" fill="#FFB6B6"/>
<path d="M602.089 368.306C602.089 368.306 593.33 368.754 583.931 366.937C583.22 364.776 583.2 362.384 583.937 360.231C583.298 361.907 578.037 368.306 578.037 368.306C578.831 361.27 578.747 355.778 582.295 351.259C587.944 344.076 580.743 336.341 576.502 328.698C576.044 326.602 577 324.447 578.864 323.38C578.87 321.093 589.86 314.11 597.276 318.326C603.607 315.091 617.259 323.951 618.693 332.075C626.289 337.189 628.985 367.296 620.323 363.595L602.089 368.306L602.089 368.306Z" fill="#2F2E41"/>
<defs>
<clipPath id="clip0_8_47">
<rect width="104" height="61" fill="white" transform="translate(54 690)"/>
</clipPath>
</defs>
</svg>
